<svg width="77" height="23" viewBox="0 0 77 23" fill="none" xmlns="http://www.w3.org/2000/svg">
<path d="M5.71 10.6508L7.47 14.2208L11.42 14.7908L8.56 17.5708L9.24 21.5008L5.71 19.6508L2.18 21.5008L2.86 17.5708L0 14.7908L3.95 14.2208L5.71 10.6508ZM21.24 10.6508L23 14.2208L26.94 14.7908L24.09 17.5708L24.77 21.5008L21.24 19.6508L17.71 21.5008L18.39 17.5708L15.53 14.7908L19.48 14.2208L21.24 10.6508ZM36.77 10.6508L38.53 14.2208L42.47 14.7908L39.62 17.5708L40.29 21.5008L36.77 19.6508L33.24 21.5008L33.91 17.5708L31.06 14.7908L35 14.2208L36.77 10.6508ZM52.29 10.6508L54.06 14.2208L58 14.7908L55.15 17.5708L55.82 21.5008L52.29 19.6508L48.77 21.5008L49.44 17.5708L46.59 14.7908L50.53 14.2208L52.29 10.6508Z" fill="#FED072"/>
<g clip-path="url(#clip0_604_471)">
<path d="M69.71 11.1508L71.47 14.7208L75.42 15.2908L72.56 18.0708L73.24 22.0008L69.71 20.1508L66.18 22.0008L66.86 18.0708L64 15.2908L67.95 14.7208L69.71 11.1508ZM85.24 11.1508L87 14.7208L90.94 15.2908L88.09 18.0708L88.77 22.0008L85.24 20.1508L81.71 22.0008L82.39 18.0708L79.53 15.2908L83.48 14.7208L85.24 11.1508ZM100.77 11.1508L102.53 14.7208L106.47 15.2908L103.62 18.0708L104.29 22.0008L100.77 20.1508L97.24 22.0008L97.91 18.0708L95.06 15.2908L99 14.7208L100.77 11.1508ZM116.29 11.1508L118.06 14.7208L122 15.2908L119.15 18.0708L119.82 22.0008L116.29 20.1508L112.77 22.0008L113.44 18.0708L110.59 15.2908L114.53 14.7208L116.29 11.1508Z" fill="#FED072"/>
</g>
<defs>
<clipPath id="clip0_604_471">
<rect width="13" height="15" fill="white" transform="translate(64 7.5)"/>
</clipPath>
</defs>
</svg>
