<svg width="288" height="118" viewBox="0 0 288 118" fill="none" xmlns="http://www.w3.org/2000/svg">
<g filter="url(#filter0_d_471_510)">
<rect x="26" y="26" width="236" height="66" rx="6" fill="white"/>
</g>
<g clip-path="url(#clip0_471_510)">
<path d="M51.3539 66.951C51.2234 66.9544 51.0936 66.9311 50.9724 66.8826C50.8512 66.8341 50.7411 66.7615 50.6489 66.669C50.5454 66.5734 50.4634 66.4567 50.4085 66.3269C50.3535 66.197 50.3269 66.0569 50.3304 65.916C50.3266 65.6397 50.4239 65.3715 50.604 65.1619L54.4245 61.0197C54.52 60.9158 54.6361 60.8328 54.7653 60.7762C54.8946 60.7195 55.0343 60.6904 55.1755 60.6907C55.306 60.6874 55.4358 60.7107 55.557 60.7592C55.6782 60.8076 55.7883 60.8803 55.8805 60.9727C55.9821 61.0699 56.0628 61.1868 56.1176 61.3163C56.1724 61.4458 56.2001 61.5852 56.199 61.7258C56.2027 62.0021 56.1054 62.2702 55.9254 62.4798L52.1038 66.622C52.0085 66.7262 51.8924 66.8092 51.7631 66.8659C51.6338 66.9225 51.4941 66.9515 51.3529 66.951H51.3539Z" fill="url(#paint0_linear_471_510)"/>
<path d="M45.0274 60.7389C44.7538 60.7337 44.4924 60.6247 44.2963 60.4339C44.1978 60.3352 44.1208 60.2174 44.0699 60.0876C44.0191 59.9579 43.9955 59.8191 44.0007 59.6798C44.0047 59.4013 44.1097 59.1337 44.2963 58.9268L47.8901 55.1836C47.9827 55.0829 48.096 55.0034 48.2222 54.9508C48.3484 54.8981 48.4846 54.8735 48.6212 54.8786C48.8949 54.8835 49.1563 54.9926 49.3523 55.1836C49.4509 55.2821 49.5281 55.3999 49.5789 55.5297C49.6298 55.6595 49.6533 55.7984 49.6479 55.9376C49.6434 56.2161 49.5384 56.4835 49.3523 56.6907L45.7543 60.4339C45.6585 60.5303 45.5446 60.6069 45.4191 60.6592C45.2937 60.7116 45.1591 60.7386 45.0232 60.7389H45.0274Z" fill="url(#paint1_linear_471_510)"/>
<path d="M45.3859 66.8922C45.1121 66.886 44.8508 66.7763 44.6548 66.5851C44.5558 66.4865 44.4783 66.3686 44.4271 66.2386C44.3759 66.1087 44.3521 65.9696 44.3571 65.83C44.3542 65.6907 44.3791 65.5522 44.4302 65.4226C44.4813 65.2929 44.5576 65.1748 44.6548 65.0749L51.8791 57.4976C51.9731 57.3987 52.0866 57.3205 52.2125 57.2678C52.3383 57.2151 52.4737 57.1891 52.6102 57.1916C52.8838 57.1975 53.145 57.3069 53.3413 57.4976C53.537 57.6989 53.6483 57.9674 53.6526 58.2481C53.6569 58.5289 53.5537 58.8006 53.3642 59.0078L46.1399 66.5851C45.9388 66.7827 45.6678 66.893 45.3859 66.8922Z" fill="#A750F7"/>
<path d="M49.7524 51.4342C52.0835 49.3338 59.2848 43.4088 67.1483 42.5827C67.2008 42.5775 67.2537 42.5847 67.303 42.6036C67.3522 42.6225 67.3964 42.6526 67.432 42.6915C67.4675 42.7304 67.4935 42.7771 67.5079 42.8278C67.5223 42.8785 67.5247 42.9319 67.5149 42.9837C66.429 49.4342 63.4351 55.4113 58.9193 60.1436C58.8457 60.2216 58.7536 60.2796 58.6515 60.3122C58.5494 60.3448 58.4408 60.3509 58.3356 60.3301C58.2305 60.3092 58.1324 60.262 58.0506 60.1928C57.9687 60.1237 57.9057 60.0349 57.8675 59.9348L56.3124 56.2532L54.3708 56.7754C54.2816 56.796 54.1886 56.7927 54.101 56.766C54.0135 56.7393 53.9345 56.6901 53.872 56.6232C53.8094 56.5564 53.7656 56.4742 53.7448 56.3851C53.724 56.2959 53.727 56.2029 53.7536 56.1153L54.2758 54.251L49.9351 52.5423C49.8328 52.4977 49.7433 52.4282 49.6746 52.3402C49.606 52.2521 49.5605 52.1483 49.5422 52.0382C49.524 51.928 49.5335 51.8151 49.57 51.7096C49.6066 51.6041 49.6699 51.5094 49.7524 51.4342Z" fill="url(#paint2_linear_471_510)"/>
<path d="M71.471 58.3947L63.6984 58.5367C63.559 58.5378 63.4222 58.5754 63.3018 58.6457C63.1814 58.7161 63.0816 58.8168 63.0122 58.9378C62.2341 60.2349 59.6293 64.4837 57.5937 66.3532C57.4837 66.4574 57.3513 66.5352 57.2066 66.5805C57.062 66.6258 56.9089 66.6376 56.759 66.6148C56.6092 66.592 56.4665 66.5354 56.3418 66.4491C56.2171 66.3629 56.1138 66.2494 56.0396 66.1171C55.9846 66.0238 55.9314 65.9295 55.8798 65.8341C55.4436 64.8371 54.9473 63.8675 54.3936 62.9306C53.6961 61.8313 52.9326 60.7752 52.1074 59.7681C51.1256 58.6288 50.0303 57.5926 48.8383 56.6755C47.5929 55.7293 46.2143 54.9726 44.7473 54.43C44.572 54.3598 44.417 54.2469 44.2965 54.1014C44.1761 53.956 44.0938 53.7828 44.0574 53.5975C44.021 53.4122 44.0315 53.2207 44.0879 53.0405C44.1444 52.8603 44.245 52.6971 44.3807 52.5657C46.0967 50.8894 49.0221 48.128 50.8478 47.1838C50.9815 47.1088 51.0923 46.999 51.1687 46.866C51.245 46.7331 51.2839 46.582 51.2812 46.4287L51.1475 38.8514C51.1409 38.7122 51.1701 38.5736 51.2325 38.449C51.2948 38.3244 51.3881 38.2179 51.5035 38.1398C51.6189 38.0616 51.7524 38.0145 51.8913 38.0028C52.0301 37.9912 52.1696 38.0155 52.2964 38.0733C54.7221 39.0732 56.927 40.541 58.7854 42.393C58.8845 42.5085 59.0153 42.5925 59.1615 42.6344C59.3078 42.6764 59.4632 42.6745 59.6084 42.6291C62.4554 41.7434 65.3912 41.1735 68.3628 40.9298C68.4821 40.9232 68.6013 40.9432 68.712 40.9882C68.8226 41.0332 68.9219 41.1022 69.0027 41.1902C69.0835 41.2782 69.1438 41.383 69.1793 41.497C69.2147 41.6111 69.2244 41.7316 69.2077 41.8499C68.9591 44.627 68.4617 47.3762 67.7215 50.0643C67.6763 50.195 67.6651 50.335 67.689 50.4711C67.7129 50.6073 67.7712 50.7351 67.8583 50.8424C69.4253 52.8513 70.8535 54.9645 72.1332 57.1675C72.2086 57.2876 72.2507 57.4256 72.2554 57.5674C72.2601 57.7091 72.2271 57.8496 72.1598 57.9744C72.0925 58.0993 71.9933 58.204 71.8723 58.278C71.7513 58.3521 71.6128 58.3916 71.471 58.3947Z" fill="url(#paint3_linear_471_510)"/>
<path d="M55.3753 56.5055L54.3727 56.7667C54.2834 56.7873 54.1902 56.7841 54.1025 56.7574C54.0149 56.7306 53.9358 56.6813 53.8732 56.6143C53.8107 56.5473 53.7668 56.465 53.7462 56.3757C53.7255 56.2864 53.7287 56.1932 53.7554 56.1055L54.2776 54.2412L49.9349 52.5409C49.829 52.4973 49.7358 52.4278 49.6637 52.3389C49.5916 52.2499 49.5429 52.1443 49.5221 52.0317C49.5013 51.9191 49.5091 51.8031 49.5447 51.6943C49.5804 51.5854 49.6427 51.4873 49.726 51.4088C52.0593 49.3063 59.2606 43.3823 67.1251 42.5562C67.1775 42.5512 67.2304 42.5585 67.2794 42.5775C67.3285 42.5964 67.3726 42.6266 67.408 42.6655C67.4435 42.7044 67.4694 42.751 67.4837 42.8016C67.4981 42.8523 67.5005 42.9055 67.4907 42.9573C66.405 49.4075 63.411 55.3843 58.895 60.1161C58.8215 60.1941 58.7294 60.2521 58.6273 60.2847C58.5252 60.3173 58.4165 60.3234 58.3114 60.3026C58.2063 60.2817 58.1082 60.2345 58.0263 60.1653C57.9445 60.0962 57.8815 60.0074 57.8433 59.9072L56.2892 56.2246L55.3753 56.5087V56.5055Z" fill="#FFFFFC"/>
<path d="M61.3656 50.9358C61.8452 50.9512 62.3184 50.8229 62.7247 50.5676C63.1309 50.3122 63.4516 49.9413 63.6456 49.5024C63.8397 49.0635 63.8982 48.5767 63.8136 48.1043C63.7291 47.632 63.5054 47.1956 63.1712 46.8513C62.8371 46.5069 62.4076 46.2702 61.938 46.1716C61.4684 46.0729 60.9801 46.1168 60.5356 46.2975C60.0911 46.4783 59.7107 46.7877 59.4432 47.1861C59.1758 47.5845 59.0334 48.0537 59.0344 48.5336C59.0257 49.161 59.2663 49.7663 59.7033 50.2167C60.1403 50.667 60.7381 50.9256 61.3656 50.9358Z" fill="#627CD4"/>
<path d="M85.3203 49.778C84.9693 49.4444 84.5539 49.1861 84.0995 49.0187C83.6452 48.8513 83.1614 48.7785 82.6779 48.8046C81.3839 48.7785 80.5379 49.2098 80.5379 50.0475C80.564 50.9122 81.4361 51.236 82.7312 51.3718C84.5808 51.5337 87.0133 51.9661 86.9841 54.6095C86.958 56.5281 85.3192 57.8472 82.7019 57.8472C81.8429 57.8998 80.9831 57.757 80.1872 57.4295C79.3913 57.1021 78.6799 56.5986 78.1064 55.9568L79.2156 54.4434C79.6713 54.9242 80.2206 55.3065 80.8298 55.5668C81.4389 55.8271 82.0949 55.9598 82.7573 55.9568C83.761 55.9568 84.8712 55.5787 84.8973 54.6325C84.9234 53.7144 84.0524 53.3625 82.5724 53.2006C80.6695 53.0115 78.4991 52.3901 78.4772 50.1216C78.4772 47.8521 80.775 46.9883 82.6549 46.9883C83.3616 46.9476 84.0692 47.0487 84.7363 47.2854C85.4033 47.5222 86.0163 47.8899 86.5391 48.367L85.3203 49.778ZM91.4239 44.2133C91.4363 44.3923 91.4118 44.572 91.3518 44.7412C91.2918 44.9104 91.1977 45.0654 91.0752 45.1966C90.9528 45.3278 90.8046 45.4325 90.64 45.504C90.4754 45.5755 90.2979 45.6125 90.1184 45.6125C89.9389 45.6125 89.7613 45.5755 89.5967 45.504C89.4321 45.4325 89.284 45.3278 89.1616 45.1966C89.0391 45.0654 88.945 44.9104 88.885 44.7412C88.825 44.572 88.8004 44.3923 88.8128 44.2133C88.836 43.8827 88.9838 43.5732 89.2263 43.3473C89.4688 43.1214 89.7879 42.9959 90.1194 42.9962C90.4508 42.9964 90.7697 43.1224 91.0119 43.3487C91.254 43.575 91.4013 43.8847 91.4239 44.2154V44.2133ZM89.075 47.2139V57.5318H91.1889V47.2129L89.075 47.2139ZM97.2664 44.2969V47.2714H100.199V49.1357H97.2382V54.0246C97.2382 55.1056 97.7134 55.727 98.691 55.727C99.1432 55.7087 99.5855 55.5887 99.9851 55.3761L100.593 57.2133C99.9685 57.5212 99.2807 57.6786 98.5845 57.6728C96.3912 57.7261 95.1504 56.4571 95.1504 54.0528V49.1587H93.2214V47.2944H95.1504V44.512L97.2643 44.2969H97.2664ZM103.899 53.1828C104.002 53.9555 104.401 54.6577 105.013 55.1416C105.624 55.6254 106.399 55.8529 107.175 55.7761C108.251 55.7984 109.293 55.401 110.082 54.668L111.456 56.0184C110.89 56.5887 110.213 57.0383 109.469 57.3403C108.724 57.6422 107.925 57.7901 107.122 57.7752C106.397 57.8232 105.67 57.7156 104.99 57.4595C104.31 57.2033 103.693 56.8046 103.18 56.2902C102.667 55.7757 102.269 55.1574 102.015 54.4768C101.761 53.7962 101.655 53.069 101.705 52.3441C101.667 51.6371 101.777 50.9298 102.028 50.2677C102.279 49.6056 102.666 49.0034 103.163 48.4997C103.661 47.996 104.259 47.6019 104.918 47.3429C105.577 47.0839 106.283 46.9656 106.99 46.9956C110.24 46.9956 112.434 49.0218 112.037 53.2089L103.899 53.1828ZM110.028 51.3728C110.007 51.0091 109.911 50.6536 109.746 50.3284C109.582 50.0033 109.353 49.7153 109.072 49.4824C108.792 49.2494 108.467 49.0765 108.117 48.9743C107.768 48.8721 107.401 48.8428 107.039 48.8881C106.305 48.8478 105.582 49.0786 105.007 49.5367C104.432 49.9948 104.045 50.6483 103.92 51.3728H110.028ZM116.295 47.2129V58.7475C116.295 61.3408 115.369 62.6913 113.125 62.6913C112.371 62.6939 111.634 62.4678 111.011 62.0427L111.777 60.3413C112.177 60.549 112.62 60.6599 113.071 60.6651C114.075 60.6379 114.233 59.934 114.233 58.7465V47.2129H116.295ZM113.932 44.1882C113.92 44.3673 113.944 44.547 114.004 44.7161C114.064 44.8853 114.159 45.0403 114.281 45.1715C114.403 45.3028 114.552 45.4074 114.716 45.4789C114.881 45.5505 115.058 45.5874 115.238 45.5874C115.417 45.5874 115.595 45.5505 115.76 45.4789C115.924 45.4074 116.072 45.3028 116.195 45.1715C116.317 45.0403 116.411 44.8853 116.471 44.7161C116.531 44.547 116.556 44.3673 116.543 44.1882C116.556 44.0092 116.531 43.8295 116.471 43.6603C116.411 43.4912 116.317 43.3362 116.195 43.2049C116.072 43.0737 115.924 42.9691 115.76 42.8975C115.595 42.826 115.417 42.7891 115.238 42.7891C115.058 42.7891 114.881 42.826 114.716 42.8975C114.552 42.9691 114.403 43.0737 114.281 43.2049C114.159 43.3362 114.064 43.4912 114.004 43.6603C113.944 43.8295 113.92 44.0092 113.932 44.1882ZM127.228 47.24H129.262V57.5329H127.254L127.15 55.8618C126.798 56.4648 126.292 56.9631 125.683 57.3052C125.075 57.6473 124.386 57.8207 123.688 57.8075C120.755 57.8336 118.536 55.8889 118.536 52.3765C118.484 51.673 118.581 50.9664 118.822 50.3033C119.063 49.6403 119.442 49.036 119.934 48.5304C120.426 48.0248 121.02 47.6294 121.676 47.3704C122.332 47.1114 123.036 46.9947 123.741 47.028C124.427 47.0032 125.109 47.163 125.713 47.4909C126.317 47.8188 126.822 48.3028 127.176 48.8923L127.228 47.2442V47.24ZM120.648 52.3723C120.619 52.8175 120.682 53.2638 120.835 53.683C120.987 54.1022 121.225 54.4852 121.533 54.8078C121.841 55.1303 122.213 55.3854 122.625 55.5567C123.036 55.7281 123.479 55.812 123.925 55.8033C128.259 55.8033 128.259 48.9957 123.925 48.9957C123.483 48.9808 123.042 49.0588 122.631 49.2245C122.22 49.3902 121.848 49.64 121.54 49.9579C121.231 50.2758 120.992 50.6548 120.839 51.0704C120.686 51.486 120.621 51.9292 120.649 52.3713L120.648 52.3723ZM134.226 42.9454V48.838C134.617 48.2617 135.145 47.7919 135.764 47.4711C136.382 47.1504 137.071 46.9887 137.767 47.0009C140.674 47.0009 142.867 48.8652 142.867 52.3494C142.925 53.0497 142.834 53.7545 142.598 54.4166C142.363 55.0788 141.989 55.6831 141.501 56.1892C141.013 56.6954 140.424 57.0918 139.771 57.3519C139.118 57.6121 138.417 57.73 137.715 57.6979C137.023 57.7303 136.334 57.5771 135.721 57.2541C135.107 56.9311 134.592 56.45 134.227 55.8607L134.095 57.4817H132.111V42.8911L134.226 42.9454ZM134.33 52.3723C134.308 52.8075 134.375 53.2425 134.528 53.6506C134.68 54.0587 134.915 54.4312 135.217 54.7451C135.519 55.059 135.882 55.3076 136.284 55.4756C136.686 55.6436 137.118 55.7274 137.554 55.7218C137.987 55.726 138.416 55.6409 138.814 55.4717C139.213 55.3025 139.572 55.0529 139.87 54.7385C140.167 54.4241 140.397 54.0517 140.544 53.6445C140.691 53.2374 140.752 52.8043 140.724 52.3723C140.757 51.9394 140.698 51.5043 140.553 51.0951C140.408 50.6859 140.179 50.3117 139.88 49.9963C139.582 49.6809 139.221 49.4314 138.82 49.2637C138.419 49.0961 137.988 49.0141 137.554 49.0229C137.122 49.0271 136.694 49.1176 136.297 49.2891C135.9 49.4606 135.541 49.7095 135.241 50.0215C134.941 50.3334 134.707 50.702 134.551 51.1056C134.396 51.5093 134.322 51.9399 134.335 52.3723H134.33ZM147.197 42.9454V48.838C147.588 48.2617 148.117 47.7919 148.735 47.4711C149.353 47.1504 150.042 46.9887 150.738 47.0009C153.645 47.0009 155.838 48.8652 155.838 52.3494C155.896 53.0498 155.804 53.7547 155.569 54.4169C155.333 55.0791 154.959 55.6835 154.471 56.1896C153.984 56.6958 153.394 57.0922 152.741 57.3522C152.088 57.6123 151.387 57.7302 150.685 57.6979C149.992 57.7301 149.304 57.5768 148.691 57.2538C148.078 56.9308 147.562 56.4499 147.197 55.8607L147.065 57.4817H145.08V42.8911L147.197 42.9454ZM147.302 52.3723C147.28 52.8074 147.347 53.2423 147.499 53.6504C147.652 54.0584 147.886 54.4308 148.188 54.7447C148.49 55.0586 148.853 55.3072 149.255 55.4753C149.657 55.6433 150.089 55.7272 150.525 55.7218C150.958 55.726 151.387 55.6409 151.785 55.4717C152.184 55.3025 152.543 55.0529 152.841 54.7385C153.138 54.4241 153.368 54.0517 153.515 53.6446C153.662 53.2375 153.724 52.8044 153.696 52.3723C153.728 51.9393 153.67 51.5041 153.525 51.0949C153.379 50.6856 153.15 50.3113 152.852 49.9959C152.553 49.6805 152.192 49.431 151.791 49.2634C151.39 49.0959 150.959 49.0139 150.525 49.0229C150.092 49.0275 149.665 49.1184 149.269 49.29C148.872 49.4617 148.513 49.7107 148.214 50.0226C147.914 50.3344 147.68 50.7029 147.525 51.1063C147.369 51.5098 147.296 51.9402 147.309 52.3723H147.302ZM159.641 53.1828C159.744 53.9554 160.144 54.6575 160.755 55.1412C161.366 55.625 162.141 55.8526 162.917 55.7761C163.993 55.7984 165.035 55.401 165.824 54.668L167.197 56.0184C166.631 56.5886 165.955 57.0381 165.21 57.34C164.465 57.642 163.667 57.79 162.864 57.7752C162.139 57.8234 161.412 57.7159 160.732 57.4598C160.052 57.2037 159.434 56.8051 158.921 56.2906C158.408 55.7761 158.011 55.1577 157.757 54.477C157.503 53.7963 157.397 53.069 157.447 52.3441C157.409 51.6371 157.519 50.9298 157.77 50.2677C158.021 49.6056 158.408 49.0034 158.905 48.4997C159.403 47.996 160.001 47.6019 160.66 47.3429C161.319 47.0839 162.025 46.9656 162.732 46.9956C165.982 46.9956 168.175 49.0218 167.778 53.2089L159.64 53.1818L159.641 53.1828ZM165.77 51.3728C165.749 51.0094 165.653 50.6543 165.489 50.3293C165.325 50.0044 165.096 49.7166 164.816 49.4837C164.536 49.2508 164.212 49.0778 163.863 48.9753C163.513 48.8729 163.147 48.8432 162.785 48.8881C162.051 48.8476 161.328 49.0784 160.753 49.5365C160.178 49.9947 159.792 50.6483 159.668 51.3728H165.77ZM171.901 47.24L172.033 48.5915C172.318 48.0668 172.749 47.6364 173.275 47.3532C173.801 47.0699 174.398 46.946 174.993 46.9967C175.897 46.9798 176.778 47.2865 177.476 47.8615L176.525 49.7258C176.118 49.3933 175.624 49.1843 175.102 49.1235C174.58 49.0628 174.052 49.1528 173.579 49.383C173.107 49.6132 172.71 49.9739 172.436 50.4224C172.162 50.8709 172.023 51.3884 172.034 51.9138V57.4785H169.92V47.1857L171.901 47.24Z" fill="#3155C4"/>
</g>
<path d="M188.886 66.768V63.242L202.662 43.48H208.32V62.709H212.133V66.768H208.32V73H203.728V66.768H188.886ZM203.933 48.236L194.257 62.709H203.933V48.236ZM218.507 73.287C217.66 73.287 216.949 73 216.375 72.426C215.801 71.852 215.514 71.1413 215.514 70.294C215.514 69.4467 215.801 68.736 216.375 68.162C216.949 67.588 217.66 67.301 218.507 67.301C219.327 67.301 220.024 67.588 220.598 68.162C221.172 68.736 221.459 69.4467 221.459 70.294C221.459 71.1413 221.172 71.852 220.598 72.426C220.024 73 219.327 73.287 218.507 73.287ZM244.838 46.719L233.44 73H228.725L240.246 47.211H225.076V43.234H244.838V46.719Z" fill="#222222"/>
<path d="M85.71 69.6508L87.47 73.2208L91.42 73.7908L88.56 76.5708L89.24 80.5008L85.71 78.6508L82.18 80.5008L82.86 76.5708L80 73.7908L83.95 73.2208L85.71 69.6508ZM101.24 69.6508L103 73.2208L106.94 73.7908L104.09 76.5708L104.77 80.5008L101.24 78.6508L97.71 80.5008L98.39 76.5708L95.53 73.7908L99.48 73.2208L101.24 69.6508ZM116.77 69.6508L118.53 73.2208L122.47 73.7908L119.62 76.5708L120.29 80.5008L116.77 78.6508L113.24 80.5008L113.91 76.5708L111.06 73.7908L115 73.2208L116.77 69.6508ZM132.29 69.6508L134.06 73.2208L138 73.7908L135.15 76.5708L135.82 80.5008L132.29 78.6508L128.77 80.5008L129.44 76.5708L126.59 73.7908L130.53 73.2208L132.29 69.6508Z" fill="#FED072"/>
<g clip-path="url(#clip1_471_510)">
<path d="M147.71 70.1508L149.47 73.7208L153.42 74.2908L150.56 77.0708L151.24 81.0008L147.71 79.1508L144.18 81.0008L144.86 77.0708L142 74.2908L145.95 73.7208L147.71 70.1508ZM163.24 70.1508L165 73.7208L168.94 74.2908L166.09 77.0708L166.77 81.0008L163.24 79.1508L159.71 81.0008L160.39 77.0708L157.53 74.2908L161.48 73.7208L163.24 70.1508ZM178.77 70.1508L180.53 73.7208L184.47 74.2908L181.62 77.0708L182.29 81.0008L178.77 79.1508L175.24 81.0008L175.91 77.0708L173.06 74.2908L177 73.7208L178.77 70.1508ZM194.29 70.1508L196.06 73.7208L200 74.2908L197.15 77.0708L197.82 81.0008L194.29 79.1508L190.77 81.0008L191.44 77.0708L188.59 74.2908L192.53 73.7208L194.29 70.1508Z" fill="#FED072"/>
</g>
<defs>
<filter id="filter0_d_471_510" x="0.1" y="0.1" width="287.8" height="117.8" filterUnits="userSpaceOnUse" color-interpolation-filters="sRGB">
<feFlood flood-opacity="0" result="BackgroundImageFix"/>
<feColorMatrix in="SourceAlpha" type="matrix" values="0 0 0 0 0 0 0 0 0 0 0 0 0 0 0 0 0 0 127 0" result="hardAlpha"/>
<feOffset/>
<feGaussianBlur stdDeviation="12.95"/>
<feComposite in2="hardAlpha" operator="out"/>
<feColorMatrix type="matrix" values="0 0 0 0 0.571667 0 0 0 0 0.562139 0 0 0 0 0.562139 0 0 0 0.25 0"/>
<feBlend mode="normal" in2="BackgroundImageFix" result="effect1_dropShadow_471_510"/>
<feBlend mode="normal" in="SourceGraphic" in2="effect1_dropShadow_471_510" result="shape"/>
</filter>
<linearGradient id="paint0_linear_471_510" x1="49.8312" y1="67.7715" x2="54.9529" y2="63.2562" gradientUnits="userSpaceOnUse">
<stop offset="0.188" stop-color="#25E2EA"/>
<stop offset="1" stop-color="#19A6D1"/>
</linearGradient>
<linearGradient id="paint1_linear_471_510" x1="43.2035" y1="61.7997" x2="49.3287" y2="56.0767" gradientUnits="userSpaceOnUse">
<stop offset="0.396" stop-color="#E55EC4"/>
<stop offset="1" stop-color="#8225D0"/>
</linearGradient>
<linearGradient id="paint2_linear_471_510" x1="48.9936" y1="62.5268" x2="92.4311" y2="10.4945" gradientUnits="userSpaceOnUse">
<stop offset="0.102" stop-color="white" stop-opacity="0.702"/>
<stop offset="0.481" stop-color="white" stop-opacity="0"/>
</linearGradient>
<linearGradient id="paint3_linear_471_510" x1="71.4375" y1="39.7176" x2="50.1203" y2="56.6812" gradientUnits="userSpaceOnUse">
<stop offset="0.174" stop-color="#52BFCA"/>
<stop offset="0.916" stop-color="#7238DF"/>
</linearGradient>
<clipPath id="clip0_471_510">
<rect width="135" height="32" fill="white" transform="translate(44 38)"/>
</clipPath>
<clipPath id="clip1_471_510">
<rect width="7" height="15" fill="white" transform="translate(142 67)"/>
</clipPath>
</defs>
</svg>
