<svg width="288" height="118" viewBox="0 0 288 118" fill="none" xmlns="http://www.w3.org/2000/svg">
<g filter="url(#filter0_d_471_590)">
<rect x="26" y="26" width="236" height="66" rx="6" fill="white"/>
</g>
<path d="M65.0576 60.0644L64.1676 57.3574L57.7676 61.9214L65.0576 60.0644Z" fill="#126849"/>
<path d="M70.523 44.9641H57.722L53.768 32.9951L49.8 44.9651L37 44.9521L47.367 52.3561L43.401 64.3121L53.768 56.9201L64.123 64.3121L60.169 52.3561L70.523 44.9641Z" fill="#04DA8D"/>
<path d="M78.0112 45.0009H90.2307V47.2641H85.4267V59.9895H82.7833V47.2641H78V45H78.0103L78.0112 45.0009ZM89.7091 49.136H91.968V51.2311H92.0102C92.0853 50.9348 92.2232 50.6489 92.4258 50.3735C92.859 49.7833 93.4454 49.3257 94.12 49.0515C94.4626 48.9143 94.8274 48.8425 95.196 48.8397C95.4719 48.8397 95.6753 48.8502 95.7822 48.8615C95.8883 48.872 95.9943 48.8929 96.1116 48.9034V51.2093C95.9386 51.1787 95.7646 51.154 95.59 51.1352C95.4166 51.1145 95.2421 51.104 95.0675 51.1038C94.6623 51.1038 94.2795 51.1884 93.9174 51.3479C93.5553 51.5056 93.2457 51.7487 92.9802 52.0564C92.6969 52.4003 92.4799 52.795 92.3405 53.2198C92.181 53.6852 92.106 54.2133 92.106 54.8172V59.979H89.6988V49.136H89.7091ZM107.181 59.9903H104.816V58.4774H104.773C104.475 59.0282 104.038 59.4622 103.452 59.7899C102.866 60.1176 102.269 60.2866 101.662 60.2866C100.224 60.2866 99.1792 59.938 98.5412 59.2286C97.9015 58.5201 97.5816 57.4517 97.5816 56.0233V49.1369H99.9896V55.7907C99.9896 56.7432 100.171 57.4203 100.544 57.8116C100.906 58.2029 101.428 58.4042 102.088 58.4042C102.599 58.4042 103.015 58.3302 103.356 58.1707C103.697 58.0121 103.974 57.8116 104.176 57.5467C104.389 57.2931 104.538 56.9759 104.635 56.616C104.73 56.256 104.773 55.8647 104.773 55.4421V49.1474H107.181V59.9903ZM111.282 56.5105C111.357 57.2077 111.623 57.6957 112.082 57.9807C112.55 58.2561 113.104 58.4042 113.754 58.4042C113.978 58.4042 114.234 58.3824 114.521 58.3511C114.809 58.3188 115.085 58.2447 115.331 58.1506C115.586 58.0548 115.788 57.9066 115.959 57.7166C116.119 57.5249 116.193 57.2826 116.183 56.9759C116.182 56.8335 116.15 56.693 116.092 56.5636C116.033 56.4342 115.948 56.3187 115.842 56.2247C115.629 56.0242 115.363 55.8761 115.032 55.7488C114.663 55.6197 114.286 55.5172 113.902 55.4421C113.477 55.3575 113.051 55.2617 112.614 55.1667C112.175 55.0706 111.741 54.9504 111.314 54.8068C110.914 54.6771 110.537 54.4845 110.196 54.2359C109.864 54.0017 109.593 53.6895 109.407 53.3261C109.205 52.9557 109.109 52.5008 109.109 51.9509C109.109 51.3583 109.258 50.872 109.546 50.4694C109.836 50.0701 110.211 49.7414 110.643 49.5073C111.108 49.2591 111.607 49.0843 112.124 48.9888C112.667 48.8938 113.189 48.8406 113.679 48.8406C114.244 48.8406 114.787 48.9042 115.299 49.021C115.795 49.1283 116.268 49.3252 116.694 49.6023C117.11 49.8672 117.45 50.2158 117.728 50.6393C118.005 51.062 118.175 51.5805 118.25 52.1836H115.735C115.618 51.6128 115.362 51.2215 114.947 51.0306C114.532 50.8302 114.052 50.7343 113.52 50.7343C113.349 50.7343 113.146 50.7448 112.913 50.777C112.688 50.8073 112.466 50.8604 112.251 50.9356C112.055 51.0087 111.877 51.1241 111.73 51.2738C111.658 51.3519 111.603 51.4435 111.566 51.5434C111.529 51.6433 111.513 51.7495 111.517 51.8559C111.517 52.1522 111.623 52.3849 111.825 52.5644C112.028 52.744 112.295 52.8921 112.625 53.0194C112.955 53.1361 113.328 53.2416 113.754 53.3261C114.18 53.4107 114.616 53.5056 115.065 53.6015C115.501 53.6965 115.927 53.8237 116.354 53.9606C116.78 54.0982 117.152 54.2891 117.483 54.5322C117.813 54.7754 118.08 55.0717 118.281 55.4316C118.484 55.7907 118.591 56.2456 118.591 56.7746C118.591 57.4195 118.442 57.9598 118.143 58.4147C117.845 58.8591 117.461 59.2286 116.992 59.504C116.501 59.7899 115.969 59.9969 115.416 60.1176C114.852 60.2429 114.277 60.3066 113.7 60.3075C113.054 60.3149 112.409 60.2367 111.783 60.0749C111.197 59.9162 110.686 59.6836 110.26 59.3777C109.839 59.0685 109.493 58.6668 109.248 58.2029C109.003 57.7375 108.874 57.1763 108.854 56.5314H111.282V56.5105ZM119.23 49.1378H121.052V45.8785H123.46V49.1378H125.632V50.9243H123.46V56.7223C123.46 56.975 123.471 57.1876 123.492 57.3776C123.513 57.558 123.567 57.7166 123.642 57.843C123.723 57.9758 123.847 58.0766 123.992 58.1288C124.153 58.1925 124.355 58.2247 124.632 58.2247C124.802 58.2247 124.973 58.2247 125.143 58.2134C125.314 58.2029 125.484 58.182 125.655 58.1393V59.9903C125.388 60.0226 125.122 60.0435 124.877 60.0749C124.619 60.1052 124.359 60.1194 124.099 60.1176C123.46 60.1176 122.949 60.0539 122.565 59.938C122.182 59.8213 121.872 59.6417 121.659 59.409C121.435 59.1764 121.297 58.8905 121.212 58.5411C121.129 58.148 121.083 57.748 121.074 57.3463V50.9444H119.252V49.1352H119.231L119.23 49.1378ZM127.337 49.1378H129.617V50.6071H129.66C130 49.9727 130.469 49.5282 131.076 49.2537C131.696 48.9749 132.369 48.834 133.048 48.8406C133.91 48.8406 134.656 48.9888 135.295 49.2955C135.934 49.5918 136.467 50.0049 136.893 50.533C137.319 51.062 137.628 51.6755 137.841 52.3745C138.058 53.1015 138.166 53.8574 138.161 54.6168C138.161 55.3462 138.066 56.0547 137.873 56.7327C137.697 57.3867 137.404 58.0029 137.01 58.5515C136.623 59.0803 136.12 59.5114 135.54 59.8108C134.944 60.128 134.251 60.2866 133.442 60.2866C133.088 60.2862 132.735 60.2542 132.386 60.1908C132.039 60.1275 131.7 60.0249 131.375 59.8849C131.053 59.7488 130.751 59.5669 130.479 59.3446C130.211 59.1284 129.978 58.8718 129.787 58.5838H129.744V64H127.337V49.136V49.1378ZM135.753 54.5741C135.754 54.0917 135.689 53.6115 135.562 53.1466C135.444 52.7061 135.249 52.2906 134.986 51.9195C134.737 51.5666 134.413 51.2737 134.038 51.062C133.636 50.8423 133.185 50.7295 132.728 50.7343C131.716 50.7343 130.948 51.0829 130.437 51.7819C129.926 52.4799 129.67 53.4115 129.67 54.5741C129.67 55.124 129.734 55.6321 129.872 56.0974C130.01 56.5628 130.203 56.9654 130.479 57.3036C130.747 57.6426 131.066 57.9066 131.439 58.0966C131.811 58.2979 132.249 58.3929 132.738 58.3929C133.293 58.3929 133.75 58.277 134.134 58.0548C134.506 57.8387 134.826 57.5427 135.071 57.1876C135.316 56.8277 135.498 56.4251 135.604 55.9711C135.702 55.512 135.752 55.0437 135.753 54.5741ZM140.004 45.0009H142.412V47.265H140.004V45.0009ZM140.004 49.1369H142.412V59.9903H140.004V49.1369ZM144.564 45.0009H146.972V59.9903H144.564V45.0009ZM154.355 60.2866C153.48 60.2866 152.703 60.1385 152.022 59.8535C151.369 59.5828 150.778 59.1794 150.285 58.6683C149.806 58.1469 149.44 57.5309 149.208 56.8591C148.955 56.1176 148.829 55.3377 148.836 54.5532C148.836 53.7279 148.963 52.9671 149.208 52.2681C149.44 51.5967 149.807 50.981 150.285 50.4598C150.753 49.9517 151.34 49.5605 152.022 49.2746C152.703 48.9888 153.48 48.8406 154.355 48.8406C155.228 48.8406 156.006 48.9888 156.688 49.2746C157.37 49.5605 157.945 49.9631 158.424 50.4598C158.903 50.9808 159.269 51.5966 159.5 52.2681C159.745 52.9662 159.872 53.7279 159.872 54.5532C159.872 55.3898 159.745 56.161 159.5 56.8591C159.269 57.531 158.903 58.1471 158.424 58.6683C157.955 59.1764 157.37 59.5677 156.688 59.8535C156.006 60.1385 155.228 60.2866 154.355 60.2866ZM154.355 58.3929C154.887 58.3929 155.356 58.277 155.75 58.0548C156.134 57.8387 156.465 57.5385 156.719 57.1763C156.975 56.8173 157.156 56.4042 157.284 55.9493C157.401 55.4944 157.465 55.029 157.465 54.5532C157.465 54.0878 157.401 53.6329 157.284 53.1675C157.174 52.7261 156.983 52.3097 156.719 51.9405C156.464 51.5817 156.133 51.2853 155.75 51.0733C155.356 50.8511 154.887 50.7343 154.355 50.7343C153.822 50.7343 153.353 50.8511 152.959 51.0733C152.578 51.2886 152.247 51.5844 151.99 51.9405C151.73 52.3119 151.539 52.7275 151.425 53.1675C151.307 53.6198 151.246 54.0854 151.243 54.5532C151.243 55.029 151.308 55.4944 151.425 55.9493C151.542 56.4042 151.734 56.8173 151.99 57.1763C152.245 57.5362 152.565 57.8325 152.959 58.0548C153.353 58.2875 153.822 58.3929 154.355 58.3929ZM160.576 49.1378H162.398V45.8785H164.806V49.1378H166.978V50.9243H164.806V56.7223C164.806 56.975 164.816 57.1876 164.837 57.3776C164.858 57.558 164.912 57.7166 164.987 57.843C165.068 57.9759 165.192 58.0768 165.338 58.1288C165.498 58.1925 165.7 58.2247 165.977 58.2247C166.147 58.2247 166.318 58.2247 166.489 58.2134C166.659 58.2029 166.829 58.182 167 58.1393V59.9903C166.734 60.0226 166.467 60.0435 166.222 60.0749C165.964 60.1052 165.704 60.1194 165.445 60.1176C164.806 60.1176 164.294 60.0539 163.91 59.938C163.527 59.8213 163.218 59.6417 163.005 59.409C162.781 59.1764 162.643 58.8905 162.557 58.5411C162.474 58.148 162.428 57.748 162.419 57.3463V50.9444H160.598V49.1352H160.576V49.1378Z" fill="#2C2C2C"/>
<path d="M188.886 66.768V63.242L202.662 43.48H208.32V62.709H212.133V66.768H208.32V73H203.728V66.768H188.886ZM203.933 48.236L194.257 62.709H203.933V48.236ZM218.507 73.287C217.66 73.287 216.949 73 216.375 72.426C215.801 71.852 215.514 71.1413 215.514 70.294C215.514 69.4467 215.801 68.736 216.375 68.162C216.949 67.588 217.66 67.301 218.507 67.301C219.327 67.301 220.024 67.588 220.598 68.162C221.172 68.736 221.459 69.4467 221.459 70.294C221.459 71.1413 221.172 71.852 220.598 72.426C220.024 73 219.327 73.287 218.507 73.287ZM245.166 47.129H231.431V55.288C232.005 54.5227 232.852 53.8803 233.973 53.361C235.121 52.8417 236.337 52.582 237.622 52.582C239.918 52.582 241.776 53.074 243.198 54.058C244.646 55.042 245.671 56.2857 246.273 57.789C246.901 59.2923 247.216 60.8777 247.216 62.545C247.216 64.5677 246.819 66.3717 246.027 67.957C245.261 69.515 244.1 70.745 242.542 71.647C241.011 72.549 239.125 73 236.884 73C233.904 73 231.513 72.262 229.709 70.786C227.905 69.31 226.825 67.3557 226.47 64.923H231.021C231.321 66.2077 231.991 67.2327 233.03 67.998C234.068 68.736 235.367 69.105 236.925 69.105C238.865 69.105 240.314 68.5173 241.271 67.342C242.255 66.1667 242.747 64.6087 242.747 62.668C242.747 60.7 242.255 59.1967 241.271 58.158C240.287 57.092 238.838 56.559 236.925 56.559C235.585 56.559 234.451 56.9007 233.522 57.584C232.62 58.24 231.964 59.142 231.554 60.29H227.126V43.029H245.166V47.129Z" fill="#222222"/>
<g clip-path="url(#clip0_471_590)">
<path d="M85.71 69.6508L87.47 73.2208L91.42 73.7908L88.56 76.5708L89.24 80.5008L85.71 78.6508L82.18 80.5008L82.86 76.5708L80 73.7908L83.95 73.2208L85.71 69.6508ZM101.24 69.6508L103 73.2208L106.94 73.7908L104.09 76.5708L104.77 80.5008L101.24 78.6508L97.71 80.5008L98.39 76.5708L95.53 73.7908L99.48 73.2208L101.24 69.6508ZM116.77 69.6508L118.53 73.2208L122.47 73.7908L119.62 76.5708L120.29 80.5008L116.77 78.6508L113.24 80.5008L113.91 76.5708L111.06 73.7908L115 73.2208L116.77 69.6508ZM132.29 69.6508L134.06 73.2208L138 73.7908L135.15 76.5708L135.82 80.5008L132.29 78.6508L128.77 80.5008L129.44 76.5708L126.59 73.7908L130.53 73.2208L132.29 69.6508Z" fill="#FED072"/>
<g clip-path="url(#clip1_471_590)">
<path d="M149.71 70.1508L151.47 73.7208L155.42 74.2908L152.56 77.0708L153.24 81.0008L149.71 79.1508L146.18 81.0008L146.86 77.0708L144 74.2908L147.95 73.7208L149.71 70.1508ZM165.24 70.1508L167 73.7208L170.94 74.2908L168.09 77.0708L168.77 81.0008L165.24 79.1508L161.71 81.0008L162.39 77.0708L159.53 74.2908L163.48 73.7208L165.24 70.1508ZM180.77 70.1508L182.53 73.7208L186.47 74.2908L183.62 77.0708L184.29 81.0008L180.77 79.1508L177.24 81.0008L177.91 77.0708L175.06 74.2908L179 73.7208L180.77 70.1508ZM196.29 70.1508L198.06 73.7208L202 74.2908L199.15 77.0708L199.82 81.0008L196.29 79.1508L192.77 81.0008L193.44 77.0708L190.59 74.2908L194.53 73.7208L196.29 70.1508Z" fill="#FED072"/>
</g>
</g>
<defs>
<filter id="filter0_d_471_590" x="0.1" y="0.1" width="287.8" height="117.8" filterUnits="userSpaceOnUse" color-interpolation-filters="sRGB">
<feFlood flood-opacity="0" result="BackgroundImageFix"/>
<feColorMatrix in="SourceAlpha" type="matrix" values="0 0 0 0 0 0 0 0 0 0 0 0 0 0 0 0 0 0 127 0" result="hardAlpha"/>
<feOffset/>
<feGaussianBlur stdDeviation="12.95"/>
<feComposite in2="hardAlpha" operator="out"/>
<feColorMatrix type="matrix" values="0 0 0 0 0.571667 0 0 0 0 0.562139 0 0 0 0 0.562139 0 0 0 0.25 0"/>
<feBlend mode="normal" in2="BackgroundImageFix" result="effect1_dropShadow_471_590"/>
<feBlend mode="normal" in="SourceGraphic" in2="effect1_dropShadow_471_590" result="shape"/>
</filter>
<clipPath id="clip0_471_590">
<rect width="70" height="23" fill="white" transform="translate(80 59)"/>
</clipPath>
<clipPath id="clip1_471_590">
<rect width="13" height="15" fill="white" transform="translate(144 66.5)"/>
</clipPath>
</defs>
</svg>
