<svg width="76" height="77" viewBox="0 0 76 77" fill="none" xmlns="http://www.w3.org/2000/svg">
<g clip-path="url(#clip0_266_10586)">
<g clip-path="url(#clip1_266_10586)">
<path d="M62.824 66.1011H44.7062C44.4297 66.1011 44.1646 65.9913 43.9691 65.7958C43.7736 65.6003 43.6637 65.3352 43.6637 65.0586C43.6637 64.7821 43.7736 64.517 43.9691 64.3215C44.1646 64.126 44.4297 64.0162 44.7062 64.0162H61.7802V30.7364C61.7733 24.5623 59.3179 18.6431 54.9522 14.2773C50.5864 9.91158 44.6668 7.45578 38.4927 7.44883C32.3186 7.45578 26.3994 9.91158 22.0337 14.2773C17.6679 18.6431 15.2121 24.5623 15.2052 30.7364V54.6756C15.2052 54.9521 15.0953 55.2172 14.8998 55.4127C14.7043 55.6083 14.4392 55.7181 14.1627 55.7181C13.8862 55.7181 13.6211 55.6083 13.4256 55.4127C13.23 55.2172 13.1202 54.9521 13.1202 54.6756V30.7364C13.1114 27.4027 13.7642 24.1005 15.0403 21.0208C16.3165 17.9411 18.1907 15.1453 20.5547 12.795C22.9051 10.4309 25.7009 8.55671 28.7806 7.28057C31.8603 6.00443 35.1629 5.35171 38.4966 5.36044C41.8302 5.35171 45.1324 6.00443 48.2121 7.28057C51.2918 8.55671 54.0875 10.4309 56.438 12.795C58.802 15.1453 60.6766 17.9411 61.9528 21.0208C63.2289 24.1005 63.8813 27.4027 63.8725 30.7364V65.0595C63.8724 65.1969 63.845 65.3329 63.7922 65.4597C63.7394 65.5865 63.662 65.7015 63.5646 65.7983C63.4671 65.8951 63.3517 65.9719 63.2246 66.0238C63.0975 66.0758 62.9614 66.1019 62.824 66.1011Z" fill="#2C2C2C"/>
<path d="M14.1631 55.9348C10.4081 55.9304 6.80846 54.4371 4.1533 51.782C1.49814 49.1268 0.0043988 45.5267 6.65306e-07 41.7718C-0.00105055 38.3412 1.24366 35.0269 3.50287 32.4453C3.68509 32.2373 3.94275 32.1103 4.21865 32.0921C4.49454 32.0739 4.76617 32.1662 4.97414 32.3484C5.07727 32.4385 5.16152 32.5481 5.22227 32.6708C5.28302 32.7935 5.31909 32.9271 5.32819 33.0637C5.33728 33.2003 5.31917 33.3372 5.27523 33.4669C5.23129 33.5966 5.16221 33.7166 5.07194 33.8196C3.14559 36.0209 2.08413 38.8466 2.08498 41.7718C2.08868 44.9739 3.36244 48.0439 5.62671 50.3081C7.89098 52.5724 10.9609 53.8462 14.1631 53.8499C14.4395 53.8501 14.7047 53.9602 14.9002 54.1556C15.0957 54.3511 15.2053 54.6159 15.2056 54.8923C15.2056 55.1689 15.0957 55.434 14.9002 55.6295C14.7047 55.825 14.4396 55.9348 14.1631 55.9348Z" fill="#2C2C2C"/>
<path d="M70.9699 53.1945C70.8303 53.1948 70.6916 53.1669 70.5629 53.1125C70.4343 53.0581 70.3179 52.978 70.2209 52.8776C70.1255 52.7793 70.0505 52.6632 70.0001 52.5359C69.9496 52.4086 69.9249 52.2727 69.927 52.1357C69.9291 51.9988 69.9581 51.8634 70.0124 51.7377C70.0668 51.612 70.1456 51.4982 70.2439 51.4029C72.3439 49.3669 73.6331 46.6379 73.8719 43.7228C74.0061 42.1417 73.8253 40.5498 73.3402 39.0391C72.8551 37.5283 72.0754 36.1287 71.046 34.9212C70.023 33.7083 68.7694 32.7104 67.3582 31.9851C65.9469 31.2598 64.4061 30.8215 62.8243 30.6957C62.6879 30.6845 62.5549 30.6465 62.4331 30.5838C62.3114 30.5212 62.2031 30.435 62.1145 30.3306C62.026 30.2261 61.9591 30.1056 61.9172 29.9753C61.8754 29.8449 61.8594 29.7073 61.8707 29.5708C61.8934 29.2952 62.0249 29.04 62.2358 28.861C62.4468 28.6821 62.7199 28.5942 62.9956 28.6167C64.8504 28.7642 66.6578 29.2781 68.3127 30.1286C69.9676 30.9791 71.4372 32.1493 72.6368 33.5717C73.8442 34.9874 74.759 36.6286 75.3278 38.4002C75.8967 40.1718 76.1084 42.0384 75.9509 43.8924C75.6714 47.3118 74.1591 50.5136 71.6955 52.9015C71.5011 53.0901 71.2409 53.1953 70.9699 53.1945Z" fill="#2C2C2C"/>
<path d="M38.5377 71.8367C36.7521 71.8348 35.0401 71.1249 33.7775 69.8623C32.5149 68.5997 31.8046 66.8878 31.8027 65.1022C31.8046 63.3165 32.5149 61.6046 33.7775 60.342C35.0401 59.0794 36.7521 58.369 38.5377 58.3672C40.3233 58.369 42.0353 59.0794 43.2979 60.342C44.5605 61.6046 45.2704 63.3165 45.2722 65.1022C45.2704 66.8878 44.5605 68.5997 43.2979 69.8623C42.0353 71.1249 40.3233 71.8348 38.5377 71.8367ZM38.5377 60.453C37.3052 60.4544 36.1233 60.9447 35.2518 61.8162C34.3803 62.6878 33.89 63.8697 33.8886 65.1022C33.89 66.3347 34.3803 67.5161 35.2518 68.3876C36.1233 69.2592 37.3052 69.7495 38.5377 69.7509C39.7701 69.7492 40.9513 69.2587 41.8228 68.3872C42.6942 67.5158 43.1848 66.3346 43.1864 65.1022C43.1853 63.8695 42.6952 62.6875 41.8236 61.8158C40.9521 60.9441 39.7704 60.4544 38.5377 60.453Z" fill="#2C2C2C"/>
<path d="M58.7393 57.6987L44.4737 49.4997H17.8994V23.8496H58.7393V57.6987ZM19.9844 47.4147H45.0302L56.6535 54.0942V25.9359H19.9844V47.4147Z" fill="#2C2C2C"/>
<path d="M29.1733 40.1041H23.5513C23.3392 40.1041 23.132 40.0394 22.9576 39.9187C22.7832 39.7981 22.6497 39.6273 22.575 39.4289C22.5002 39.2305 22.4877 39.014 22.5391 38.8083C22.5905 38.6027 22.7035 38.4177 22.8628 38.2779C23.9157 37.3246 24.8857 36.2834 25.7622 35.1658C27.2247 33.2591 27.7658 31.7204 27.2489 30.9446C27.1096 30.7001 26.9202 30.4882 26.6928 30.3223C26.4655 30.1565 26.2055 30.0408 25.9301 29.9828C25.0844 29.9384 24.2505 30.1943 23.5756 30.7059C23.4671 30.7892 23.3431 30.8506 23.2109 30.8861C23.0787 30.9215 22.9408 30.9304 22.8052 30.9126C22.6695 30.8947 22.5389 30.8504 22.4204 30.7819C22.3019 30.7134 22.1982 30.6223 22.115 30.5137C21.9467 30.294 21.8722 30.0163 21.9083 29.7419C21.9444 29.4676 22.0878 29.2187 22.3072 29.0501C23.436 28.1886 24.849 27.7864 26.2623 27.9239C26.8213 28.0274 27.3524 28.2467 27.8212 28.5683C28.2899 28.89 28.6861 29.3067 28.9837 29.7911C30.0761 31.4293 29.5434 33.6736 27.3988 36.4611C26.9615 37.0279 26.5055 37.5572 26.0796 38.0216H29.1724C29.4489 38.0216 29.714 38.1315 29.9096 38.327C30.1051 38.5225 30.2149 38.7876 30.2149 39.0641C30.2142 39.34 30.1044 39.6042 29.9091 39.7991C29.7139 39.9941 29.4492 40.1038 29.1733 40.1041Z" fill="#2C2C2C"/>
<path d="M36.5145 40.5346C36.238 40.5346 35.9729 40.4248 35.7774 40.2292C35.5819 40.0337 35.472 39.7682 35.472 39.4917V36.7033L31.2406 36.7601C31.0454 36.7626 30.8532 36.7105 30.6862 36.6094C30.5193 36.5082 30.3842 36.3624 30.2959 36.1883C30.2077 36.0141 30.1702 35.8185 30.1878 35.6241C30.2055 35.4297 30.2774 35.2444 30.3954 35.089L35.6839 28.1084C35.8158 27.9343 35.9987 27.8059 36.2075 27.7416C36.4162 27.6772 36.6398 27.6801 36.8468 27.7497C37.0538 27.8193 37.234 27.952 37.3614 28.1294C37.4888 28.3067 37.557 28.5196 37.557 28.7379V34.5901L39.0876 34.5701H39.1017C39.3758 34.5703 39.6387 34.6783 39.8337 34.8707C40.0288 35.0632 40.1403 35.3249 40.1442 35.5989C40.1461 35.7358 40.121 35.8714 40.0703 35.9986C40.0197 36.1258 39.9446 36.2422 39.8491 36.3403C39.7536 36.4384 39.6397 36.5164 39.5139 36.5705C39.3881 36.6246 39.2528 36.6537 39.1158 36.6555L37.5579 36.6764V39.4925C37.5578 39.6294 37.5309 39.765 37.4784 39.8914C37.4259 40.0179 37.349 40.1329 37.2521 40.2297C37.1552 40.3264 37.0404 40.4033 36.9138 40.4556C36.7873 40.5079 36.6514 40.5347 36.5145 40.5346ZM35.472 31.8402L33.3456 34.6461L35.472 34.6175V31.8402Z" fill="#2C2C2C"/>
<path d="M48.3728 46.2604C48.1881 46.2597 48.0068 46.2095 47.848 46.1152C47.73 46.0456 47.6267 45.9535 47.5443 45.844C47.4619 45.7346 47.4021 45.6102 47.3679 45.4776C47.3337 45.3449 47.3257 45.2066 47.3449 45.071C47.3641 44.9354 47.4102 44.805 47.4798 44.6871L51.0963 38.5547H47.9692C47.6927 38.5547 47.4276 38.4449 47.2321 38.2493C47.0366 38.0538 46.9268 37.7887 46.9268 37.5122C46.9268 37.2357 47.0366 36.9706 47.2321 36.7751C47.4276 36.5796 47.6927 36.4697 47.9692 36.4697H52.9225C53.1062 36.4698 53.2867 36.5181 53.4456 36.6102C53.6046 36.7024 53.7365 36.8352 53.8279 36.9946C53.9195 37.1546 53.967 37.336 53.9658 37.5203C53.9646 37.7047 53.9148 37.8852 53.821 38.0439L49.2727 45.7488C49.1803 45.9051 49.0487 46.0349 48.8909 46.1246C48.733 46.2144 48.5544 46.261 48.3728 46.2604Z" fill="#2C2C2C"/>
<path d="M52.3913 42.1694H48.3726C48.0961 42.1694 47.831 42.0596 47.6354 41.864C47.4399 41.6685 47.3301 41.403 47.3301 41.1265C47.3303 40.85 47.44 40.5852 47.6354 40.3898C47.8309 40.1943 48.0961 40.0842 48.3726 40.084H52.3913C52.6679 40.084 52.9334 40.1938 53.1289 40.3893C53.3244 40.5849 53.4343 40.85 53.4343 41.1265C53.4343 41.403 53.3244 41.6685 53.1289 41.864C52.9334 42.0596 52.6679 42.1694 52.3913 42.1694Z" fill="#2C2C2C"/>
<path d="M39.8535 45.102C39.6999 45.102 39.5483 45.0677 39.4094 45.0021C39.1594 44.8839 38.9665 44.6713 38.8734 44.411C38.7802 44.1507 38.7945 43.864 38.9127 43.6141L45.921 28.7861C46.0392 28.5361 46.2522 28.3437 46.5125 28.2505C46.7728 28.1573 47.059 28.1712 47.309 28.2894C47.5589 28.4076 47.7518 28.6201 47.8449 28.8804C47.9381 29.1407 47.9242 29.4274 47.8061 29.6774L40.7973 44.5054C40.7127 44.684 40.5792 44.835 40.4121 44.9406C40.245 45.0462 40.0512 45.1022 39.8535 45.102Z" fill="#2C2C2C"/>
</g>
</g>
<defs>
<clipPath id="clip0_266_10586">
<rect width="76" height="76" fill="white" transform="translate(0 0.599609)"/>
</clipPath>
<clipPath id="clip1_266_10586">
<rect width="76" height="66.4733" fill="white" transform="translate(0 5.36328)"/>
</clipPath>
</defs>
</svg>
