<svg width="100" height="100" viewBox="0 0 100 100" fill="none" xmlns="http://www.w3.org/2000/svg">
<g clip-path="url(#clip0_266_10421)">
<path d="M98.4415 48.4357L79.6909 29.685C78.7534 28.7475 77.5033 28.7475 76.5658 29.685C75.6283 30.6226 75.6283 31.8726 76.5658 32.8101L91.5663 47.8107L34.6894 47.8107C33.4393 47.8107 32.5018 48.7482 32.5018 49.9982C31.8768 50.6233 32.5018 51.2483 32.8143 51.5608C33.1268 51.8733 33.7518 52.4983 34.3769 52.4983L91.5663 52.1858L76.5658 67.1863C75.6283 68.1238 75.6283 69.3739 76.5658 70.3114C77.5033 71.2489 78.7534 71.2489 79.6909 70.3114L98.4415 51.5608C99.3791 50.6233 99.3791 49.3732 98.4415 48.4357Z" fill="#FF6200"/>
<path d="M25.0012 47.4977L3.12543 47.4977C1.87538 47.4977 0.937851 48.4352 0.937852 49.6852C0.625341 50.6228 1.25036 51.2478 1.56287 51.5603C1.87538 51.8728 2.50041 52.4978 3.12543 52.4978L25.0012 52.4978C26.2512 52.4978 27.1887 51.5603 27.1887 50.3102C27.1887 49.0602 25.9387 47.8102 25.0012 47.4977Z" fill="#3E5959"/>
</g>
<defs>
<clipPath id="clip0_266_10421">
<rect width="70.7131" height="70.7131" fill="white" transform="translate(50.002 -0.00390625) rotate(45)"/>
</clipPath>
</defs>
</svg>
