<svg width="101" height="101" viewBox="0 0 101 101" fill="none" xmlns="http://www.w3.org/2000/svg">
<path d="M7.32518 54.0083C2.80857 54.2679 1.85674 51.2824 1.60512 47.2732L1.47875 41.9269C1.47822 39.9002 1.44011 37.8632 1.64326 35.8442C1.71152 35.1658 1.90548 34.2637 2.79714 34.4079L2.86003 34.4198C3.1686 34.4736 3.48714 34.5843 3.59763 34.9127L3.6139 34.9652C3.73593 35.3434 3.67476 35.8018 3.66432 36.195L3.67957 45.9878C3.70088 46.3847 3.78659 46.7751 3.8159 47.1698C3.94255 48.8754 3.94943 51.4389 5.83285 52.1409L5.8999 52.165L6.68131 52.8103L6.70912 52.8509C6.89793 53.1235 7.17812 53.3387 7.28575 53.6565L7.30773 53.7145C7.33071 53.7893 7.34568 53.9361 7.32518 54.0083Z" fill="#0D0C0D"/>
<path d="M4.89571 30.3361C4.0727 29.6449 2.33526 29.0454 2.20944 27.9167C1.88525 25.0078 7.23948 24.4261 7.9527 25.8917C8.60979 25.7982 9.20344 25.4441 9.88584 25.3785C11.2093 25.251 12.5985 25.3487 13.9302 25.3497L30.3106 25.3483C31.8112 25.3473 33.3603 25.2506 34.8528 25.3854C37.1032 25.5883 38.7786 27.0807 37.6818 29.426C37.2338 30.3835 37.5972 31.7785 37.7037 32.7903L37.999 36.1513C38.1128 38.077 38.028 40.0564 38.031 41.9869C38.0343 44.2185 38.1373 46.5029 37.9053 48.7235C37.6623 51.0479 36.7736 52.4102 34.4916 53.2809L34.0497 53.436C33.2924 53.7214 32.2092 53.6255 31.3999 53.6281L19.8673 53.8043L14.4609 53.8169C13.9928 53.8321 13.5319 53.9305 13.0594 53.9445L7.32599 53.9702C7.34648 53.936 7.33151 53.7893 7.30853 53.7145L7.28655 53.6565C7.17892 53.3387 6.89873 53.1235 6.70992 52.8509L6.68211 52.8102L6.37396 52.0571C6.65051 51.7718 9.96491 51.8243 10.4802 51.8089L17.3008 51.5972C17.7632 51.5868 18.2112 51.4899 18.6668 51.4734L32.5657 51.4534C33.095 51.4455 33.6844 51.4479 34.2042 51.3509C36.3487 50.9506 35.9999 43.6066 36.0009 41.9273C36.0033 37.9354 35.8981 34.5539 35.0895 30.5855L26.5499 37.3996C25.3424 38.323 23.1494 40.3235 21.6897 40.6849L21.6056 40.7048C19.8101 41.1374 18.2572 40.1517 16.8605 39.1583L5.72458 30.893C5.45786 30.7001 5.19116 30.4819 4.89571 30.3361ZM7.67388 29.523C9.37538 28.3505 11.9586 28.7631 13.9051 28.7144C14.2951 28.7047 14.679 28.6341 15.0696 28.6233L20.2352 28.6034C22.5718 28.6004 24.8816 28.5807 27.2135 28.7554C28.7512 28.8706 30.9095 28.7253 32.0108 30.0185C31.9398 30.1209 31.8784 30.1967 31.8459 30.319L31.9177 30.3835C32.792 29.5652 33.9318 28.9705 34.5658 27.9129C33.601 27.4864 32.2738 27.6938 31.2413 27.6918L11.665 27.6908C10.3505 27.6886 8.94526 27.7961 7.64615 27.5405C6.84499 27.3829 6.1088 27.1065 5.27464 27.2562L5.20337 27.2698C5.00788 27.3044 4.84294 27.3578 4.65789 27.4314L7.67388 29.523Z" fill="#0D1B10"/>
<path d="M7.67383 29.5224C9.37532 28.3498 11.9585 28.7625 13.905 28.7138C14.2951 28.7041 14.6789 28.6335 15.0695 28.6226L20.2352 28.6027C22.5718 28.5998 24.8816 28.58 27.2134 28.7548C28.7511 28.87 30.9094 28.7246 32.0107 30.0179C31.9397 30.1203 31.8784 30.196 31.8458 30.3183L31.9176 30.3829L31.9186 30.3921C31.4473 30.8338 30.9197 31.2195 30.4149 31.6223L24.7393 36.1272C23.8307 36.8502 21.8188 38.6404 20.6358 38.6828C19.5668 38.7211 17.3783 36.9007 16.5432 36.2914L11.9726 32.8274C10.5514 31.727 9.03688 30.6912 7.67383 29.5224Z" fill="#6BB359"/>
<path d="M4.89541 30.3359C5.19085 30.4817 5.45756 30.6999 5.72428 30.8928L16.8602 39.1581C18.2569 40.1515 19.8098 41.1372 21.6053 40.7046L21.6894 40.6847C23.1491 40.3233 25.3421 38.3228 26.5496 37.3994L35.0892 30.5853C35.8978 34.5537 36.003 37.9352 36.0006 41.9271C35.9996 43.6064 36.3484 50.9504 34.2039 51.3507C33.6841 51.4477 33.0947 51.4454 32.5654 51.4532L18.6665 51.4732C18.2109 51.4897 17.7629 51.5866 17.3005 51.597L10.4799 51.8087C9.96461 51.8241 6.65021 51.7716 6.37366 52.0569L6.68181 52.81L5.9004 52.1648L6.28802 52.0776C6.3695 51.7578 5.96293 51.0802 5.83692 50.7618C4.33352 46.9635 4.52366 41.5205 4.53094 37.5103L4.64632 32.8448C4.6898 32.0042 4.63908 31.1471 4.89541 30.3359Z" fill="#6BB359"/>
<path d="M56.1894 100.812L52.2902 100.793C51.9608 100.779 51.6408 100.714 51.3137 100.682L32.6228 99.422C30.6198 99.2251 27.9689 99.0898 26.7486 97.2319L26.7048 97.1639C25.4926 95.3427 25.7197 91.3765 25.7205 89.194L25.8501 84.1737C26.0156 81.0978 26.3004 78.0461 26.7881 75.0027L27.7529 70.1061C28.3161 67.7267 29.0616 64.7263 30.9563 63.0318C33.5131 60.7449 40.0248 59.536 43.2844 58.8817L46.3574 58.2433C48.5796 57.7681 48.369 57.9289 50.0576 56.3311C51.1212 55.3246 52.1687 54.3272 53.1093 53.202C50.2469 52.0902 47.4369 47.7196 46.3776 45.0265C45.9917 44.0457 45.7086 43.0196 45.4027 42.0117L44.6596 39.6102C39.3478 37.5807 38.5327 29.8694 42.7496 26.3214L41.3149 25.1562C39.4573 23.3366 40.2284 21.1189 42.9518 21.156C42.8299 13.792 47.5509 7.08128 54.5424 4.66874C55.0874 4.48064 55.6721 4.27525 56.247 4.20593L57.2116 3.92029C57.571 2.21806 60.3152 1.39561 61.7824 1.75976L61.8428 1.77542C62.8558 2.02575 63.6176 2.59318 64.1506 3.49039C64.5635 4.18514 64.0956 4.03914 65.007 4.22741C72.4782 5.7708 78.295 11.659 79.3334 19.2534C79.4683 20.2407 79.4486 21.2519 79.458 22.2463L79.6368 22.3646C79.9806 22.568 80.2678 22.8789 80.4767 23.2212L80.5091 23.275C81.6704 25.0926 80.5316 26.6366 78.8063 27.4375C81.2459 28.5842 81.6974 31.8515 81.3589 34.2286C81.0095 36.683 79.2375 38.9435 76.9319 39.872C76.8571 39.9022 76.5162 39.9937 76.478 40.0324C76.4714 40.0389 76.0201 41.952 75.9775 42.0993C74.742 46.3713 72.4687 50.3284 68.8688 53.0197C69.015 53.3523 69.2574 54.0331 69.5618 54.2235L69.6101 54.2519C70.7636 54.9451 71.5374 55.0151 72.7648 56.0533C73.1396 56.3703 74.626 58.0417 74.631 58.0433C74.7761 58.0897 75.0204 58.039 75.1853 58.0701L83.4097 59.597C85.1285 59.9211 86.8547 60.257 88.5419 60.7226C93.1668 61.9987 94.4623 63.2766 95.8396 67.9405C95.9777 68.4079 96.4695 69.7106 96.1876 70.174L96.1532 70.2257C96.0294 70.4204 95.9025 70.5734 95.7372 70.7346C95.5603 71.1765 96.0365 73.9236 96.2006 74.3434L96.4665 74.3714C96.7342 74.402 96.9459 74.4665 97.194 74.5724C97.7485 75.4583 97.8316 76.749 97.9959 77.7563L99.3987 88.6383C99.5312 89.9406 99.9508 93.7737 99.6732 95.0078L99.5981 95.2889C98.8473 99.2748 94.8199 99.4618 91.6272 99.7321L82.753 100.171C82.2697 100.182 81.7897 100.272 81.3033 100.283L73.802 100.38C73.3927 100.394 72.9893 100.472 72.5762 100.484L65.9732 100.778L62.7167 100.812C62.5204 101.034 62.0874 100.834 61.8396 101H56.2529C56.7129 100.898 56.4722 100.895 56.1894 100.812ZM33.4355 64.0157C31.3218 64.9705 30.7746 67.1994 30.2296 69.2892L29.3427 73.4811L28.3307 80.3742L28.0748 85.0202C28.0618 85.4025 27.9898 85.7807 27.9762 86.1649L27.9612 89.6177C27.9626 97.239 27.9162 97.2773 35.7629 97.37L35.6325 97.2187C32.7832 96.3796 32.5684 91.583 32.349 89.2208L31.9981 82.5678L32.1468 76.5137C32.0926 76.3922 32.1219 76.2267 32.1249 76.0945L32.1486 75.1301C32.2149 72.513 32.4309 69.8761 32.8262 67.2872L33.2446 64.8709C33.2939 64.6101 33.39 64.3527 33.4261 64.0919L33.4355 64.0157ZM49.5326 46.512C52.8025 52.0705 58.1713 54.9944 64.5998 52.6858L64.5333 52.6173C64.4564 52.5816 64.4288 52.5856 64.3426 52.5992C62.8921 52.8262 61.2344 52.9545 59.7701 52.782C56.5139 52.3984 52.8145 50.3513 50.6998 47.795C50.3811 47.4099 49.9994 46.7858 49.5739 46.5344L49.5326 46.512Z" fill="#0D0C0D"/>
<path d="M56.1895 100.812L62.7168 100.815C62.5205 101.034 62.0875 100.834 61.8397 101H56.253C56.713 100.898 56.4723 100.895 56.1895 100.812Z" fill="#E5E3E1"/>
<path d="M50.3786 60.8455L49.6182 59.8227L51.7252 58.0664L52.426 58.6191C52.2546 58.8787 52.0449 58.8778 51.8003 59.0267C51.0357 59.4918 51.0182 60.4614 50.3786 60.8455Z" fill="#FF8C19"/>
<path d="M60.6024 4.01092C63.3059 3.65824 61.6209 5.60591 61.1942 6.57411C61.0321 6.94183 60.9403 7.34372 60.8381 7.73111L60.7569 7.6685L59.0771 4.63368C59.45 4.26249 60.1053 4.09138 60.6024 4.01092Z" fill="#008040"/>
<path d="M43.8315 28.3818L43.9165 28.3911C43.9015 31.7436 43.9252 34.0601 44.404 37.3955L43.6068 36.6199L43.3427 36.2798C41.7819 34.1777 41.5363 30.0941 43.8315 28.3818ZM77.5783 28.846C80.3095 30.3223 79.639 34.8454 77.8989 36.9388C77.6004 37.2771 77.259 37.5825 76.8804 37.8281L77.3183 34.5093C77.5537 32.5505 77.3266 30.6005 77.5783 28.846Z" fill="#FFCC00"/>
<path d="M52.4263 58.6191L59.6731 63.8601C58.5481 65.4942 57.0027 66.8891 55.4806 68.1417C54.6211 67.5866 53.9922 66.5238 53.4198 65.6897L50.3789 60.8455C51.0184 60.4614 51.036 59.4918 51.8006 59.0267C52.0452 58.8778 52.2549 58.8787 52.4263 58.6191Z" fill="#FF400D"/>
<path d="M67.3061 53.8984C67.6379 54.736 67.9731 55.5456 68.4264 56.3262C68.1906 56.6189 67.8675 56.8622 67.5809 57.1044L61.4412 62.6018C61.2384 62.5247 61.0474 62.3329 60.876 62.1986L56.6894 59.0475C55.5619 58.2351 54.2871 57.4471 53.2773 56.4966C53.9445 55.8103 54.5142 55.0994 55.0326 54.2918L56.4405 54.8641C60.2602 56.2234 63.719 55.5953 67.3061 53.8984Z" fill="#FF8C19"/>
<path d="M43.1784 23.3965L77.6163 24.5252C80.3723 24.3814 77.2259 25.7664 76.509 26.0813C73.7341 27.3045 71.8506 27.9072 68.8315 27.802C68.3973 27.787 67.9718 27.72 67.5354 27.7121L56.1295 27.2408C55.7719 27.2252 55.4174 27.1564 55.0619 27.1435L51.752 27.1276C51.2034 27.1207 50.5956 27.1426 50.0563 27.0341L48.7987 26.8248C47.2971 26.5074 43.5605 24.9097 42.6543 23.4991L43.1784 23.3965Z" fill="white"/>
<path d="M46.5435 14.4117C47.9177 10.8813 51.9044 8.2176 55.2942 6.68796C55.8117 6.45446 57.5792 5.44035 57.6472 6.60761C57.7946 6.9435 57.9942 7.29439 58.0627 7.65472L58.093 7.74024C58.1737 7.9836 58.0049 8.24129 58.3402 8.21918C58.7207 8.1941 59.1648 8.35849 59.5471 8.42416C60.5178 9.58611 60.7222 10.9134 61.283 12.2756C61.4089 12.5813 61.4884 12.8242 61.8417 12.8541C64.4381 13.0736 63.2549 9.94271 63.2117 8.22077C63.16 6.17065 64.3744 6.11899 65.612 7.60314C68.1203 10.611 68.1187 12.5848 69.1297 15.8798C69.3248 16.5153 70.1466 16.2739 70.705 16.1755C71.2132 13.7825 69.7968 8.81533 67.8309 7.07934C71.344 8.79535 74.3531 11.5549 75.9253 15.1714C76.9185 17.758 77.303 19.4522 77.2805 22.156C76.8885 22.036 76.3685 22.0536 75.9527 22.0033L68.8701 21.5188C68.5158 21.506 68.1633 21.4428 67.8098 21.4356L64.7839 21.4131C64.4681 21.403 64.156 21.348 63.8398 21.3393L60.4492 21.3276C59.9617 21.3188 59.4857 21.2298 58.9997 21.2199L47.1977 21.2223C46.4561 21.2339 45.7316 21.3357 44.9883 21.3243C45.0439 19.5971 45.3055 17.7686 45.8598 16.1263C46.0511 15.5589 46.3394 15.0289 46.5268 14.4633L46.5435 14.4117Z" fill="#008040"/>
<path d="M57.6481 6.60742C57.7955 6.94331 57.9951 7.2942 58.0635 7.65453C57.7988 8.13453 57.2719 8.54161 56.8902 8.93419C55.2926 10.5774 54.1565 12.4873 53.8466 14.7771C53.7941 15.1646 53.7894 15.5725 53.7034 15.9531C53.5468 16.6466 52.4279 16.0566 52.0996 15.2631L52.2841 15.1896L52.4874 15.1645C53.0435 14.7706 53.3749 12.7581 53.6846 11.999C54.6613 9.60578 56.7328 8.40637 57.6481 6.60742Z" fill="white"/>
<path d="M49.5324 46.5123C46.6347 42.4688 45.5827 33.4066 46.124 28.2246C49.5399 29.3378 50.9401 29.2052 54.4966 29.2167L65.5166 29.6863C68.6125 29.913 71.6244 30.0493 74.6483 29.2693C74.8368 29.2206 75.0765 29.1954 75.2493 29.1078L75.3418 29.0464C75.3414 30.4243 75.3967 31.832 75.3176 33.2062C74.9025 40.4054 72.836 48.4408 66.0289 52.0567C65.5941 52.2877 65.0793 52.5686 64.5995 52.6862L64.5331 52.6177C64.4561 52.582 64.4285 52.586 64.3423 52.5996C62.8918 52.8266 61.2342 52.9548 59.7699 52.7824C56.5136 52.3987 52.8143 50.3517 50.6996 47.7954C50.3808 47.4103 49.9991 46.7861 49.5736 46.5348L49.5324 46.5123Z" fill="#FFCC00"/>
<path d="M57.8426 35.125C59.5977 35.2716 59.7849 38.0284 58.1525 38.5403C56.2959 38.4874 55.9625 35.4185 57.8426 35.125Z" fill="#200000"/>
<path d="M53.3345 30.6316C56.0741 30.5709 56.341 34.1727 54.2762 34.8069C51.757 35.1249 51.0788 31.3946 53.3345 30.6316Z" fill="url(#paint0_linear_266_10368)"/>
<path d="M66.0733 30.7402C68.594 30.8955 68.6792 34.6897 66.2514 34.8874C63.8172 34.8033 63.3414 31.0886 66.0733 30.7402ZM65.1497 43.8945L65.4423 43.9022C66.012 43.9807 66.5032 44.5287 66.3767 45.115C66.1702 46.0713 65.26 46.8975 64.4646 47.3922C61.8929 48.9923 58.1513 48.6522 55.922 46.6326C54.6929 45.4221 54.9286 42.8218 56.879 44.7619C58.7048 46.5781 61.6916 46.9563 63.7294 45.1702C64.1904 44.7662 64.5382 44.1959 65.0965 43.92L65.1497 43.8945Z" fill="#0D0C0D"/>
<path d="M33.4357 64.0161C36.5793 62.197 40.9768 61.4984 44.5057 60.821C45.5737 60.6161 46.6324 60.3513 47.7091 60.1973L48.205 61.0489C48.4342 61.3773 48.6119 61.7509 48.8072 62.1011L51.5851 66.6266C52.1828 67.5438 52.8153 68.4225 53.1662 69.4717L53.1958 69.5315C53.8659 70.8536 55.5026 68.9829 56.0609 68.4055C56.3686 68.5152 57.323 69.119 57.5631 69.0046C58.056 68.7695 59.4426 67.1566 59.9238 66.5646L60.1155 70.7437L60.8077 78.1834L62.3708 98.1003C62.3923 98.337 62.3716 98.6063 62.4282 98.8347L53.9229 98.8128L45.0651 98.0267C44.5848 97.9928 44.0486 98.0088 43.5767 97.9192L41.3748 97.7553L35.763 97.3742L35.6326 97.2191C32.7833 96.38 32.5685 91.5834 32.3492 89.2212L32.001 82.5682L32.0568 76.5141C32.0927 76.3926 32.1221 76.2271 32.1251 76.0949L32.1487 75.1305C32.215 72.5134 32.431 69.8765 32.8263 67.2876L33.2447 64.8713C33.2941 64.6105 33.3901 64.3531 33.4262 64.0923L33.4357 64.0161Z" fill="url(#paint1_linear_266_10368)"/>
<path d="M40.1787 97.2598L41.9202 97.2923C42.4147 97.3006 42.8874 97.2943 43.3511 97.4906L43.3231 97.52C43.0347 97.4138 42.711 97.3961 42.4088 97.413L42.4354 97.6188C42.6942 97.9163 43.1835 97.7233 43.5557 97.864L43.5766 97.9011L41.3747 97.7549L41.6231 97.6853C41.7016 97.6829 41.7401 97.6892 41.8204 97.6713L41.7663 97.4628C41.5905 97.2537 40.4971 97.2978 40.1787 97.2598Z" fill="#FFCC00"/>
<path d="M35.6328 97.2194C36.1384 97.1837 39.8377 97.1342 40.179 97.2989C40.4974 97.2985 41.5908 97.2544 41.7666 97.4635L41.8206 97.672C41.7404 97.6899 41.7019 97.6836 41.6234 97.686L41.375 97.7556L35.7632 97.3745L35.6328 97.2194Z" fill="url(#paint2_linear_266_10368)"/>
<path d="M32.0563 76.5139L41.2528 76.1918C42.6096 76.1529 43.2533 75.7095 43.0738 77.2541L42.395 82.6008L42.0715 86.7475C42.0253 87.3645 42.119 88.2049 41.8318 88.7626L41.3025 88.758C42.2865 88.7448 41.6704 88.18 41.9679 87.7338L41.9618 87.6904C41.945 87.5654 41.9519 87.4882 41.9679 87.3639L41.9732 87.2799C41.9932 87.0223 41.9579 87.4113 42.0172 87.1174L42.0052 86.9448C41.9991 86.8035 42.0198 86.7187 42.0543 86.5873C42.1417 86.2535 42.1311 83.9877 42.2638 83.7885L42.2571 83.7068C42.2423 83.5088 42.2713 82.6923 42.3625 82.5556L42.3557 82.4986C42.3449 82.3666 42.4745 80.7108 42.5597 80.5829L42.5522 80.5206C42.5424 80.4009 42.6071 79.8215 42.6583 79.7446L42.6509 79.6791C42.6402 79.5504 42.7102 79.0892 42.757 78.9802L42.7449 78.9062C42.743 78.801 42.7974 78.4895 42.831 78.388L42.8079 78.3183C42.7704 78.1996 42.7694 78.0757 42.7639 77.9524L42.73 77.9145C42.4165 77.5557 42.0492 76.8187 41.4799 76.7964L41.4534 76.7388C41.1037 76.1516 40.4466 76.3246 39.8755 76.3293L32.1808 76.5905C32.137 77.737 32.0095 78.9044 32.0204 80.0487C32.0285 80.8895 32.0437 81.7289 31.9922 82.568L32.0563 76.5139Z" fill="#FFCC00"/>
<path d="M53.1662 69.4713L52.9736 69.4642C51.5876 68.5051 48.2714 63.0588 47.8216 61.6122C47.9487 61.4566 48.0994 61.3299 48.013 61.1214C47.9303 61.176 47.9088 61.3327 47.8248 61.4356L47.7861 61.3204C47.72 61.1348 47.7348 60.7596 47.8104 60.5771L48.2049 61.0484C48.4341 61.3769 48.6119 61.7505 48.8072 62.1006L51.5851 66.6261C52.1828 67.5434 52.8152 68.422 53.1662 69.4713Z" fill="#FF400D"/>
<path d="M50.7602 88.7716L52.1817 88.7511C52.923 88.7397 53.6643 88.7983 53.7379 89.7286C53.8364 90.9702 52.5918 90.9601 51.7152 90.9572L42.0367 90.9493C41.425 90.9574 40.718 91.0331 40.1163 90.9536C39.0538 90.813 38.4934 89.4276 39.5851 88.93L39.647 88.903C40.1368 88.6831 40.9452 88.7789 41.4873 88.778L50.7602 88.7716Z" fill="#0D0C0D"/>
<path d="M96.2012 74.3441L95.7866 74.4467C95.0786 75.477 95.6029 76.5549 95.7911 77.6923L96.7242 83.5622L97.5083 93.4225C97.4975 97.2151 95.3502 97.2737 92.0224 97.5118L81.7419 98.0137C81.2872 98.0328 80.8348 98.1224 80.3864 98.1413L75.7545 98.1664C75.3889 98.1766 75.0307 98.247 74.6657 98.2585L70.329 98.2754C69.7921 98.2912 69.2717 98.3567 68.7403 98.4175L64.4259 98.7272C64.3659 98.5623 64.3815 98.3611 64.373 98.1847L62.1165 69.7248C61.9981 68.4094 61.8448 67.124 61.8973 65.7988C62.1739 66.1324 62.5266 66.3999 62.8375 66.7054C63.5976 67.4525 64.8981 68.9779 66.0448 68.1585C66.307 66.9321 65.4747 66.4792 64.6052 65.6398L62.9462 63.9502C63.9077 63.0219 65.0092 62.2172 66.0056 61.323C67.5145 59.9686 68.9417 58.3776 70.6557 57.2822C71.7188 58.0583 72.5814 58.8329 73.3374 59.9205L70.7461 63.5782C69.7761 64.8959 68.8107 66.5154 67.3744 67.3799C66.8952 67.6681 66.5469 67.7574 66.1882 68.2297L66.2015 68.3029C66.4147 69.3719 68.6405 69.1495 69.3749 68.9322C69.9392 67.9689 70.6559 67.0871 71.3282 66.1984L73.423 63.3864C74.1978 62.3549 74.933 61.5542 75.2096 60.2659C76.4104 60.5675 77.6356 60.7364 78.8555 60.9413L83.6167 61.7868C85.3465 62.1052 87.0803 62.4413 88.7517 62.9988C91.8046 64.0173 92.3642 64.198 93.291 67.3507L93.9688 69.5845C94.3106 70.6444 94.3156 71.4262 95.6891 70.7604L95.7379 70.7354C95.5609 71.1772 96.0371 73.9244 96.2012 74.3441Z" fill="#FF400D"/>
<path d="M82.9435 75.4296C83.7556 75.1741 84.6646 76.3812 85.1089 76.9174C84.3817 78.2351 83.8777 77.9473 83.7473 79.6611C83.6396 81.0779 83.9391 82.6099 82.4951 83.2133C81.7934 81.9729 81.9583 80.4048 80.5238 79.595L80.1642 79.7471C79.1214 80.3127 79.0845 81.9689 78.7683 82.9716L78.7494 83.0306L78.7259 83.075C78.3943 83.6877 77.7646 83.3068 77.5778 82.8154C77.278 82.0259 77.2685 81.073 77.1202 80.2423C76.9586 79.3376 77.2912 78.3124 76.5258 77.8887C74.5831 76.8126 76.4682 75.194 77.6122 75.4584C79.1015 75.8026 78.6813 77.2531 80.1581 77.5829C81.489 77.8804 82.0345 75.9805 82.9435 75.4296ZM71.6885 82.2126C73.0652 82.17 73.7382 82.6213 73.9988 83.9595C74.6117 84.0467 75.4201 83.9996 75.9798 84.2604L76.0463 84.2927C76.5232 84.5216 77.0421 84.8829 77.1048 85.4554C77.2166 86.4753 76.311 90.5979 75.6935 91.3793C75.5245 91.5933 73.6611 91.8218 73.2962 91.8664C73.2553 91.8796 70.8805 92.0429 70.2102 91.7847C68.6145 91.1696 68.3939 88.5716 68.1414 87.1422C67.7467 84.9082 68.055 84.9735 70.0415 84.1651C70.7737 83.867 70.1673 82.7089 71.6885 82.2126Z" fill="white"/>
<defs>
<linearGradient id="paint0_linear_266_10368" x1="53.6286" y1="30.6652" x2="53.9421" y2="34.7306" gradientUnits="userSpaceOnUse">
<stop stop-color="#0C0000"/>
<stop offset="1" stop-color="#1F0000"/>
</linearGradient>
<linearGradient id="paint1_linear_266_10368" x1="31.2324" y1="91.1149" x2="63.1236" y2="72.4741" gradientUnits="userSpaceOnUse">
<stop stop-color="#FFCB01"/>
<stop offset="1" stop-color="#FF6927"/>
</linearGradient>
<linearGradient id="paint2_linear_266_10368" x1="40.9243" y1="96.1797" x2="37.0908" y2="98.6901" gradientUnits="userSpaceOnUse">
<stop stop-color="#FFDC34"/>
<stop offset="1" stop-color="#FFF78A"/>
</linearGradient>
</defs>
</svg>
