<svg width="76" height="77" viewBox="0 0 76 77" fill="none" xmlns="http://www.w3.org/2000/svg">
<g clip-path="url(#clip0_266_10494)">
<g clip-path="url(#clip1_266_10494)">
<g clip-path="url(#clip2_266_10494)">
<path d="M42.6109 76.5996C41.806 76.6004 41.0253 76.3238 40.4003 75.8165C39.7712 76.3245 38.9867 76.601 38.1781 76.5996H24.3907C23.582 76.6005 22.7974 76.3235 22.1686 75.8148C21.5429 76.3233 20.7609 76.6005 19.9547 76.5996H6.16561C5.23269 76.5983 4.33834 76.2271 3.67866 75.5674C3.01898 74.9078 2.6478 74.0134 2.64648 73.0805L2.64648 22.904C2.6478 21.971 3.01898 21.0767 3.67866 20.417C4.33834 19.7573 5.23269 19.3862 6.16561 19.3848H19.9547C20.2637 19.3846 20.5715 19.4252 20.87 19.5055V4.08572C20.8761 3.15702 21.2501 2.26862 21.91 1.61518C22.57 0.961738 23.462 0.596548 24.3907 0.599629H38.1798C39.1085 0.596548 40.0006 0.961738 40.6605 1.61518C41.3204 2.26862 41.6945 3.15702 41.7006 4.08572V19.5121C41.998 19.4326 42.3047 19.3926 42.6126 19.3931H44.1772C44.4883 19.3931 44.7867 19.5167 45.0066 19.7367C45.2266 19.9567 45.3502 20.255 45.3502 20.5661C45.3502 20.8773 45.2266 21.1756 45.0066 21.3956C44.7867 21.6156 44.4883 21.7392 44.1772 21.7392H42.6126C42.4376 21.7391 42.2649 21.7782 42.107 21.8537C41.9492 21.9292 41.8103 22.0391 41.7006 22.1754V51.7988H57.5747V48.8547C57.5747 48.5436 57.6982 48.2452 57.9182 48.0252C58.1382 47.8052 58.4366 47.6816 58.7477 47.6816C59.0588 47.6816 59.3572 47.8052 59.5772 48.0252C59.7972 48.2452 59.9207 48.5436 59.9207 48.8547V73.0805C59.9194 74.0137 59.548 74.9083 58.888 75.568C58.2279 76.2278 57.3332 76.5988 56.4 76.5996H42.6109ZM24.3907 74.275H38.1798C38.3732 74.2754 38.5638 74.2279 38.7344 74.1368C38.9051 74.0457 39.0505 73.9139 39.1579 73.7529C39.1148 73.5308 39.0932 73.3051 39.0934 73.0788V22.904C39.0936 22.4508 39.1817 22.0019 39.3528 21.5822V4.08572C39.3502 3.77722 39.2255 3.48232 39.0059 3.26557C38.7864 3.04882 38.4899 2.92787 38.1814 2.92919H24.3907C24.0821 2.92787 23.7854 3.04877 23.5656 3.26547C23.3458 3.48218 23.2208 3.77707 23.2177 4.08572V21.5822C23.3889 22.0019 23.477 22.4508 23.4771 22.904V73.0805C23.4773 73.3067 23.4557 73.5325 23.4127 73.7546C23.5203 73.9151 23.6659 74.0466 23.8365 74.1374C24.0071 74.2281 24.1975 74.2754 24.3907 74.275ZM42.6126 74.2519H56.4016C56.7127 74.2514 57.011 74.1278 57.2312 73.9079C57.4513 73.6881 57.5754 73.39 57.5763 73.0788V67.2103H41.7006V73.1135C41.7009 73.3235 41.6821 73.5331 41.6444 73.7397C41.7515 73.8976 41.8955 74.0269 42.0639 74.1165C42.2324 74.206 42.4202 74.2531 42.6109 74.2535L42.6126 74.2519ZM4.99257 73.0788C4.99344 73.39 5.11754 73.6881 5.3377 73.9079C5.55785 74.1278 5.85614 74.2514 6.16727 74.2519H19.9563C20.1479 74.2522 20.3367 74.2056 20.506 74.116C20.6754 74.0264 20.8202 73.8966 20.9278 73.7381C20.8902 73.532 20.8714 73.323 20.8716 73.1135V67.2103H4.99092L4.99257 73.0788ZM57.5747 64.8692V54.1449H41.7006V64.8692H57.5747ZM20.8683 64.8692V54.1449H4.99092V64.8692H20.8683ZM20.8683 51.8038V22.177C20.7584 22.04 20.6191 21.9295 20.4606 21.8537C20.3021 21.7779 20.1287 21.7388 19.953 21.7392H6.16561C5.85449 21.7396 5.5562 21.8633 5.33604 22.0832C5.11589 22.303 4.99179 22.6011 4.99092 22.9122V51.7988L20.8683 51.8038ZM33.7553 63.6796V10.896C33.7493 10.7383 33.7753 10.5811 33.8315 10.4337C33.8878 10.2864 33.9732 10.1518 34.0826 10.0382C34.192 9.92458 34.3233 9.8342 34.4684 9.77247C34.6136 9.71074 34.7697 9.67892 34.9275 9.67892C35.0852 9.67892 35.2414 9.71074 35.3865 9.77247C35.5317 9.8342 35.6629 9.92458 35.7724 10.0382C35.8818 10.1518 35.9672 10.2864 36.0234 10.4337C36.0797 10.5811 36.1056 10.7383 36.0997 10.896V63.6747C36.1056 63.8323 36.0797 63.9895 36.0234 64.1369C35.9672 64.2843 35.8818 64.4188 35.7724 64.5324C35.6629 64.6461 35.5317 64.7364 35.3865 64.7982C35.2414 64.8599 35.0852 64.8917 34.9275 64.8917C34.7697 64.8917 34.6136 64.8599 34.4684 64.7982C34.3233 64.7364 34.192 64.6461 34.0826 64.5324C33.9732 64.4188 33.8878 64.2843 33.8315 64.1369C33.7753 63.9895 33.7493 63.8323 33.7553 63.6747V63.6796ZM26.5931 63.6796V10.896C26.6045 10.5923 26.7332 10.3048 26.952 10.094C27.1709 9.88312 27.463 9.76533 27.767 9.76533C28.0709 9.76533 28.363 9.88312 28.5819 10.094C28.8008 10.3048 28.9294 10.5923 28.9408 10.896V63.6747C28.9468 63.8325 28.9208 63.99 28.8645 64.1376C28.8081 64.2851 28.7226 64.4198 28.613 64.5336C28.5034 64.6474 28.372 64.7379 28.2267 64.7997C28.0813 64.8615 27.9249 64.8934 27.767 64.8934C27.609 64.8934 27.4526 64.8615 27.3073 64.7997C27.1619 64.7379 27.0305 64.6474 26.9209 64.5336C26.8113 64.4198 26.7258 64.2851 26.6695 64.1376C26.6131 63.99 26.5872 63.8325 26.5931 63.6747V63.6796ZM9.4204 62.3645C9.16481 62.1872 8.98997 61.9158 8.93422 61.6098C8.87847 61.3038 8.94636 60.9882 9.12301 60.7321L11.7665 56.9189C11.8742 56.7607 12.0195 56.6317 12.1893 56.5435C12.3592 56.4552 12.5482 56.4105 12.7396 56.4134C12.9306 56.4154 13.1183 56.4636 13.2866 56.554C13.455 56.6443 13.5989 56.7741 13.7061 56.9322L16.2571 60.7388C16.3439 60.8666 16.4046 61.0102 16.4359 61.1615C16.4672 61.3127 16.4684 61.4687 16.4394 61.6204C16.4104 61.7722 16.3518 61.9167 16.2669 62.0458C16.1821 62.1749 16.0726 62.286 15.9448 62.3728C15.817 62.4595 15.6734 62.5203 15.5221 62.5516C15.3708 62.5829 15.2149 62.584 15.0632 62.555C14.9114 62.526 14.7669 62.4674 14.6378 62.3826C14.5087 62.2977 14.3976 62.1883 14.3108 62.0605L12.7049 59.6748L11.0527 62.0737C10.9651 62.2004 10.8534 62.3087 10.7239 62.3922C10.5944 62.4757 10.4498 62.5329 10.2982 62.5606C10.1466 62.5882 9.99105 62.5857 9.84044 62.5532C9.68983 62.5206 9.5471 62.4588 9.4204 62.3711V62.3645ZM46.862 62.5727C46.6154 62.5726 46.3752 62.4949 46.1752 62.3506C45.9753 62.2064 45.8258 62.0029 45.7479 61.7689C45.6701 61.535 45.6678 61.2825 45.7414 61.0472C45.815 60.8119 45.9608 60.6057 46.1581 60.4579L48.4348 58.7561H46.8537C46.5426 58.7561 46.2442 58.6326 46.0242 58.4126C45.8042 58.1926 45.6807 57.8942 45.6807 57.5831C45.6807 57.272 45.8042 56.9736 46.0242 56.7536C46.2442 56.5336 46.5426 56.4101 46.8537 56.4101H51.9754C52.2216 56.4112 52.4611 56.4896 52.6603 56.6343C52.8594 56.7789 53.0081 56.9825 53.0853 57.2161C53.1625 57.4498 53.1644 57.7019 53.0907 57.9367C53.0169 58.1715 52.8713 58.3773 52.6743 58.5248L50.3943 60.2266H51.9787C52.2899 60.2266 52.5882 60.3502 52.8082 60.5702C53.0282 60.7901 53.1518 61.0885 53.1518 61.3996C53.1518 61.7107 53.0282 62.0091 52.8082 62.2291C52.5882 62.4491 52.2899 62.5727 51.9787 62.5727H46.862ZM56.4115 45.0745C56.2576 45.0747 56.1051 45.0446 55.9627 44.9858C55.8204 44.927 55.6911 44.8408 55.5822 44.732C55.4732 44.6232 55.3868 44.494 55.3278 44.3518C55.2688 44.2095 55.2385 44.0571 55.2385 43.9031V41.2035C54.8073 41.2927 54.3149 41.3802 53.8044 41.4529C51.3724 41.8032 49.9532 41.5983 49.1981 40.7921C48.7621 40.2211 48.4434 39.5695 48.2605 38.8747C48.0776 38.18 48.0341 37.4559 48.1325 36.7442C48.1457 36.4402 48.1705 36.1478 48.2002 35.8785H44.9719C44.7709 35.8784 44.5733 35.8267 44.398 35.7284C44.2227 35.6301 44.0756 35.4885 43.9707 35.3171C43.8657 35.1457 43.8065 34.9503 43.7987 34.7495C43.7909 34.5486 43.8348 34.3492 43.926 34.1702L48.1986 25.8135C48.2607 22.2778 49.6012 18.8842 51.9721 16.2606C53.2518 15.0471 54.7697 14.1129 56.4296 13.5174C58.0894 12.9218 59.855 12.6778 61.6142 12.8009C63.2724 12.7272 64.9264 13.0214 66.4575 13.6624C67.9885 14.3034 69.3588 15.2753 70.4699 16.5084C74.2269 20.9428 73.2654 27.654 73.2207 27.9382C73.2207 27.9778 73.2075 28.0191 73.1976 28.0604C72.8075 29.5042 72.2345 30.8923 71.4926 32.1908L71.4645 32.2355C70.0607 34.1784 69.3724 36.5473 69.5166 38.94C69.5166 38.9515 69.5166 38.9648 69.5166 38.9763L69.6124 43.8668C69.617 44.0225 69.5901 44.1775 69.5334 44.3226C69.4766 44.4677 69.3911 44.5998 69.282 44.711C69.1725 44.822 69.0421 44.9101 68.8983 44.9702C68.7545 45.0303 68.6002 45.0613 68.4443 45.0613L56.4115 45.0745ZM57.1253 38.7962C57.2684 38.9054 57.3845 39.0462 57.4644 39.2075C57.5444 39.3688 57.586 39.5464 57.5862 39.7264V42.7301H67.2448L67.1705 39.0556C67.0031 36.1886 67.8108 33.3493 69.4621 30.9996L69.4934 30.955C70.102 29.8761 70.5737 28.7256 70.8978 27.5301C70.9771 26.9072 71.5587 21.4352 68.6607 18.0152C67.7605 17.0472 66.6586 16.2888 65.433 15.7935C64.2074 15.2981 62.888 15.078 61.568 15.1487C60.1277 15.0371 58.6799 15.2242 57.3153 15.6981C55.9507 16.172 54.6986 16.9226 53.6375 17.9028C51.6552 20.1667 50.5518 23.0672 50.5281 26.0761C50.5317 26.2701 50.4875 26.4619 50.3993 26.6346L46.8752 33.5291H49.56C49.7368 33.5288 49.9114 33.5686 50.0706 33.6455C50.2299 33.7223 50.3696 33.8343 50.4793 33.973C50.5891 34.1117 50.6659 34.2734 50.7041 34.4461C50.7423 34.6187 50.7409 34.7978 50.7 34.9698C50.2914 36.3448 50.3495 37.8163 50.8652 39.1548C51.7903 39.3558 52.7499 39.3354 53.6656 39.0953C54.9477 38.897 56.0894 38.5996 56.0993 38.5996C56.199 38.5732 56.3017 38.5599 56.4049 38.56C56.6625 38.5588 56.9131 38.6437 57.117 38.8012L57.1253 38.7962ZM58.3578 32.3214V29.3871C57.2562 28.7014 56.406 27.6778 55.9341 26.4691C55.4621 25.2604 55.3937 23.9315 55.7391 22.6808C56.0845 21.4301 56.8252 20.3246 57.8505 19.5294C58.8758 18.7342 60.1308 18.292 61.4282 18.2687C62.7255 18.2454 63.9956 18.6424 65.0488 19.4002C66.102 20.1581 66.8818 21.2363 67.2718 22.4739C67.6619 23.7114 67.6412 25.0419 67.2129 26.2667C66.7846 27.4915 65.9717 28.545 64.8954 29.2698V32.556L64.874 32.6617C64.6965 33.3985 64.2637 34.0485 63.6524 34.4965C63.0411 34.9444 62.2909 35.1613 61.5349 35.1086C60.746 35.1519 59.9715 34.8844 59.3776 34.3633C58.7836 33.8423 58.4175 33.1092 58.3578 32.3214ZM57.8621 24.2835C57.8632 24.9873 58.0661 25.6759 58.4468 26.2678C58.8275 26.8596 59.37 27.3298 60.01 27.6226L60.6956 27.9348V32.1892C60.7306 32.374 60.8368 32.5377 60.9913 32.6449C61.1459 32.7522 61.3363 32.7944 61.5217 32.7625C62.2156 32.7625 62.4519 32.4668 62.5328 32.2784V27.8836L63.1739 27.5532C63.7568 27.2595 64.2507 26.8155 64.6048 26.2672C64.9588 25.7188 65.1601 25.0859 65.1879 24.4338C65.2156 23.7817 65.0689 23.134 64.7628 22.5575C64.4566 21.981 64.0022 21.4967 63.4464 21.1545C62.8906 20.8122 62.2535 20.6245 61.601 20.6107C60.9484 20.5969 60.304 20.7575 59.7342 21.0759C59.1644 21.3943 58.6899 21.8589 58.3596 22.4219C58.0294 22.9849 57.8554 23.6259 57.8555 24.2786L57.8621 24.2835Z" fill="#2C2C2C"/>
</g>
</g>
</g>
<defs>
<clipPath id="clip0_266_10494">
<rect width="76" height="76" fill="white" transform="translate(0 0.599609)"/>
</clipPath>
<clipPath id="clip1_266_10494">
<rect width="76" height="76" fill="white" transform="translate(0 0.599609)"/>
</clipPath>
<clipPath id="clip2_266_10494">
<rect width="70.7064" height="76" fill="white" transform="translate(2.64648 0.599609)"/>
</clipPath>
</defs>
</svg>
