<svg width="70" height="71" viewBox="0 0 70 71" fill="none" xmlns="http://www.w3.org/2000/svg">
<g clip-path="url(#clip0_266_10555)">
<g clip-path="url(#clip1_266_10555)">
<g clip-path="url(#clip2_266_10555)">
<mask id="mask0_266_10555" style="mask-type:luminance" maskUnits="userSpaceOnUse" x="1" y="0" width="68" height="71">
<path d="M68.8781 0.599609H1.12109V70.5996H68.8781V0.599609Z" fill="white"/>
</mask>
<g mask="url(#mask0_266_10555)">
<path d="M67.8037 70.5992H2.19544C1.91051 70.5992 1.63724 70.486 1.43576 70.2845C1.23428 70.083 1.12109 69.8097 1.12109 69.5248V17.88C1.12109 17.5951 1.23428 17.3218 1.43576 17.1203C1.63724 16.9189 1.91051 16.8057 2.19544 16.8057H9.89392C10.1789 16.8057 10.4521 16.9189 10.6536 17.1203C10.8551 17.3218 10.9683 17.5951 10.9683 17.88C10.9683 18.165 10.8551 18.4382 10.6536 18.6397C10.4521 18.8412 10.1789 18.9544 9.89392 18.9544H3.26827V68.452H66.7248V18.9544H59.9226C59.6377 18.9544 59.3644 18.8412 59.1629 18.6397C58.9615 18.4382 58.8483 18.165 58.8483 17.88C58.8483 17.5951 58.9615 17.3218 59.1629 17.1203C59.3644 16.9189 59.6377 16.8057 59.9226 16.8057H67.8037C68.0886 16.8057 68.3619 16.9189 68.5634 17.1203C68.7649 17.3218 68.8781 17.5951 68.8781 17.88V69.5248C68.8781 69.8097 68.7649 70.083 68.5634 70.2845C68.3619 70.486 68.0886 70.5992 67.8037 70.5992Z" fill="#2C2C2C"/>
<path d="M35.0876 69.3454C34.9846 69.3459 34.8821 69.3315 34.7832 69.3028L9.90585 62.0396C9.68272 61.9744 9.48676 61.8386 9.34738 61.6525C9.20799 61.4665 9.1327 61.2403 9.13281 61.0078V1.67368C9.13301 1.50749 9.17175 1.34361 9.246 1.19493C9.32025 1.04625 9.42798 0.916827 9.56072 0.81683C9.69346 0.716834 9.84758 0.648995 10.011 0.618649C10.1744 0.588303 10.3426 0.596276 10.5024 0.641943L35.3889 7.90368C35.612 7.96888 35.808 8.10468 35.9474 8.29071C36.0868 8.47674 36.1621 8.70296 36.1619 8.93542V68.2726C36.1619 68.5575 36.0487 68.8308 35.8473 69.0323C35.6458 69.2337 35.3725 69.3454 35.0876 69.3454ZM11.28 60.2028L34.0132 66.8406V9.74346L11.2815 3.10564L11.28 60.2028Z" fill="#2C2C2C"/>
<path d="M35.047 69.3454C34.7621 69.3454 34.4888 69.2322 34.2873 69.0308C34.0859 68.8293 33.9727 68.556 33.9727 68.2711V8.93694C33.9725 8.70449 34.0479 8.47826 34.1873 8.29223C34.3266 8.1062 34.5226 7.9704 34.7457 7.9052L59.6261 0.641943C59.7859 0.596276 59.9542 0.588303 60.1176 0.618649C60.281 0.648995 60.4351 0.716834 60.5678 0.81683C60.7005 0.916827 60.8083 1.04625 60.8825 1.19493C60.9568 1.34361 60.9955 1.50749 60.9957 1.67368V61.0124C60.9958 61.2448 60.9205 61.4711 60.7811 61.6571C60.6418 61.8431 60.4458 61.9789 60.2227 62.0441L35.3407 69.3089C35.245 69.3346 35.1462 69.3469 35.047 69.3454ZM36.1198 9.74194V66.8391L58.8531 60.2013V3.10564L36.1198 9.74194Z" fill="#2C2C2C"/>
</g>
<path d="M16.6076 10.8984C16.6796 10.8983 16.7515 10.9055 16.8221 10.9197L29.4389 13.4854C29.6816 13.5349 29.8998 13.6667 30.0565 13.8586C30.2132 14.0505 30.2987 14.2907 30.2986 14.5384V19.5602C30.2985 19.7209 30.2624 19.8795 30.1929 20.0243C30.1234 20.1692 30.0223 20.2966 29.897 20.3972C29.7717 20.4978 29.6255 20.569 29.469 20.6056C29.3126 20.6422 29.1499 20.6432 28.993 20.6087L16.3762 17.8315C16.1374 17.7788 15.9236 17.6462 15.7703 17.4555C15.617 17.2649 15.5334 17.0276 15.5332 16.783V11.9743C15.5332 11.6894 15.6464 11.4161 15.8479 11.2146C16.0494 11.0131 16.3226 10.8984 16.6076 10.8984ZM28.1499 15.4165L17.6819 13.286V15.9171L28.1499 18.2226V15.4165Z" fill="#2C2C2C"/>
<path d="M29.2231 27.7515C29.1417 27.7516 29.0605 27.7424 28.9811 27.7241L15.6492 24.6563C15.3715 24.5925 15.1306 24.421 14.9793 24.1796C14.8281 23.9382 14.7789 23.6466 14.8427 23.3689C14.9065 23.0913 15.0779 22.8503 15.3193 22.6991C15.5608 22.5478 15.8524 22.4987 16.1301 22.5624L29.462 25.6302C29.7397 25.694 29.9806 25.8655 30.1318 26.1069C30.2831 26.3483 30.3323 26.6399 30.2685 26.9176C30.2142 27.1543 30.0812 27.3656 29.8914 27.517C29.7015 27.6685 29.466 27.7511 29.2231 27.7515Z" fill="#2C2C2C"/>
<path d="M29.2231 34.107C29.1417 34.107 29.0605 34.0978 28.9811 34.0796L15.6492 31.0118C15.3715 30.948 15.1306 30.7765 14.9793 30.5351C14.8281 30.2937 14.7789 30.002 14.8427 29.7244C14.9065 29.4467 15.0779 29.2058 15.3193 29.0545C15.5608 28.9033 15.8524 28.8541 16.1301 28.9179L29.462 31.9857C29.7397 32.0495 29.9806 32.2209 30.1318 32.4624C30.2831 32.7038 30.3323 32.9954 30.2685 33.2731C30.2142 33.5098 30.0812 33.7211 29.8914 33.8725C29.7015 34.024 29.466 34.1066 29.2231 34.107Z" fill="#2C2C2C"/>
<path d="M22.5579 38.9276C22.4764 38.9276 22.3953 38.9184 22.3159 38.9002L15.6492 37.3663C15.3715 37.3025 15.1306 37.131 14.9793 36.8896C14.8281 36.6481 14.7789 36.3565 14.8427 36.0789C14.9065 35.8012 15.0779 35.5603 15.3193 35.409C15.5608 35.2578 15.8524 35.2086 16.1301 35.2723L22.7968 36.8063C23.0744 36.8701 23.3154 37.0415 23.4666 37.283C23.6179 37.5244 23.667 37.816 23.6033 38.0937C23.549 38.3304 23.416 38.5417 23.2262 38.6931C23.0363 38.8445 22.8007 38.9272 22.5579 38.9276Z" fill="#2C2C2C"/>
<path d="M40.8578 28.3785C40.615 28.3781 40.3794 28.2954 40.1895 28.144C39.9997 27.9926 39.8667 27.7813 39.8124 27.5446C39.7487 27.2669 39.7978 26.9753 39.9491 26.7339C40.1003 26.4924 40.3413 26.321 40.6189 26.2572L53.9509 23.1893C54.2285 23.1256 54.5201 23.1748 54.7616 23.326C55.003 23.4773 55.1745 23.7182 55.2383 23.9959C55.302 24.2735 55.2528 24.5651 55.1016 24.8066C54.9503 25.048 54.7094 25.2195 54.4317 25.2833L41.0998 28.3511C41.0204 28.3693 40.9392 28.3785 40.8578 28.3785Z" fill="#2C2C2C"/>
<path d="M40.8578 21.8443C40.615 21.8439 40.3794 21.7613 40.1895 21.6098C39.9997 21.4584 39.8667 21.2471 39.8124 21.0104C39.7487 20.7327 39.7978 20.4411 39.9491 20.1997C40.1003 19.9583 40.3413 19.7868 40.6189 19.723L53.9509 16.6552C54.2285 16.5914 54.5201 16.6406 54.7616 16.7918C55.003 16.9431 55.1745 17.184 55.2383 17.4617C55.302 17.7393 55.2528 18.031 55.1016 18.2724C54.9503 18.5138 54.7094 18.6853 54.4317 18.7491L41.0998 21.8169C41.0204 21.8351 40.9392 21.8443 40.8578 21.8443Z" fill="#2C2C2C"/>
<path d="M40.8578 15.5796C40.615 15.5793 40.3794 15.4966 40.1895 15.3452C39.9997 15.1937 39.8667 14.9824 39.8124 14.7457C39.7487 14.4681 39.7978 14.1764 39.9491 13.935C40.1003 13.6936 40.3413 13.5221 40.6189 13.4583L53.9509 10.3905C54.2285 10.3268 54.5201 10.3759 54.7616 10.5272C55.003 10.6784 55.1745 10.9194 55.2383 11.197C55.302 11.4747 55.2528 11.7663 55.1016 12.0077C54.9503 12.2492 54.7094 12.4206 54.4317 12.4844L41.0998 15.5522C41.0204 15.5705 40.9392 15.5797 40.8578 15.5796Z" fill="#2C2C2C"/>
<path d="M40.8578 34.9117C40.615 34.9113 40.3794 34.8286 40.1895 34.6772C39.9997 34.5258 39.8667 34.3145 39.8124 34.0778C39.7487 33.8001 39.7978 33.5085 39.9491 33.2671C40.1003 33.0256 40.3413 32.8542 40.6189 32.7904L53.9509 29.7225C54.2285 29.6588 54.5201 29.708 54.7616 29.8592C55.003 30.0105 55.1745 30.2514 55.2383 30.5291C55.302 30.8067 55.2528 31.0983 55.1016 31.3398C54.9503 31.5812 54.7094 31.7527 54.4317 31.8165L41.0998 34.8843C41.0204 34.9025 40.9392 34.9117 40.8578 34.9117Z" fill="#2C2C2C"/>
<path d="M40.8578 41.2669C40.615 41.2665 40.3794 41.1838 40.1895 41.0324C39.9997 40.881 39.8667 40.6696 39.8124 40.4329C39.7487 40.1553 39.7978 39.8637 39.9491 39.6222C40.1003 39.3808 40.3413 39.2094 40.6189 39.1456L47.2765 37.6132C47.5542 37.5494 47.8458 37.5986 48.0872 37.7498C48.3286 37.9011 48.5001 38.142 48.5639 38.4197C48.6276 38.6974 48.5785 38.989 48.4272 39.2304C48.276 39.4718 48.035 39.6433 47.7574 39.7071L41.1043 41.2425C41.0234 41.2601 40.9407 41.2683 40.8578 41.2669Z" fill="#2C2C2C"/>
<path d="M22.5145 55.0259C22.4114 55.0253 22.3089 55.01 22.2102 54.9802L15.7124 53.0324C15.4396 52.9504 15.2105 52.7634 15.0755 52.5126C14.9406 52.2618 14.9107 51.9676 14.9926 51.6948C15.0746 51.422 15.2615 51.1929 15.5124 51.058C15.7632 50.923 16.0574 50.8932 16.3302 50.975L22.828 52.9228C23.1008 53.0048 23.3299 53.1918 23.4648 53.4426C23.5998 53.6934 23.6297 53.9876 23.5478 54.2604C23.4812 54.4824 23.3445 54.6769 23.1583 54.8148C22.9721 54.9528 22.7463 55.0268 22.5145 55.0259Z" fill="#2C2C2C"/>
<path d="M18.5773 58.3377C18.4706 58.3377 18.3644 58.3218 18.2623 58.2905L15.7028 57.5068C15.5679 57.4655 15.4424 57.398 15.3336 57.3081C15.2249 57.2183 15.1348 57.1079 15.0687 56.9833C15.0026 56.8586 14.9616 56.7222 14.9482 56.5817C14.9348 56.4413 14.9492 56.2996 14.9906 56.1647C15.0319 56.0298 15.0995 55.9044 15.1893 55.7956C15.2791 55.6868 15.3895 55.5967 15.5142 55.5306C15.6388 55.4645 15.7752 55.4235 15.9157 55.4101C16.0562 55.3967 16.1979 55.4111 16.3328 55.4525L18.8923 56.2362C19.0272 56.2776 19.1526 56.3451 19.2614 56.4349C19.3702 56.5248 19.4603 56.6351 19.5264 56.7598C19.5925 56.8844 19.6335 57.0209 19.6469 57.1613C19.6603 57.3018 19.6459 57.4435 19.6045 57.5784C19.5371 57.7982 19.4009 57.9906 19.216 58.1273C19.0311 58.264 18.8073 58.3377 18.5773 58.3377Z" fill="#2C2C2C"/>
<path d="M24.6642 60.3065C24.5575 60.3065 24.4513 60.2906 24.3492 60.2593L21.7897 59.4756C21.6548 59.4342 21.5294 59.3667 21.4206 59.2769C21.3118 59.187 21.2217 59.0766 21.1556 58.952C21.0895 58.8274 21.0485 58.6909 21.0351 58.5505C21.0217 58.41 21.0361 58.2683 21.0775 58.1334C21.1189 57.9985 21.1864 57.8731 21.2762 57.7643C21.3661 57.6555 21.4764 57.5655 21.6011 57.4993C21.7257 57.4332 21.8622 57.3923 22.0026 57.3789C22.1431 57.3655 22.2848 57.3799 22.4197 57.4212L24.9792 58.2049C25.1141 58.2463 25.2396 58.3138 25.3484 58.4037C25.4571 58.4935 25.5472 58.6039 25.6133 58.7285C25.6794 58.8532 25.7204 58.9896 25.7338 59.1301C25.7472 59.2705 25.7328 59.4122 25.6914 59.5471C25.624 59.7669 25.4878 59.9593 25.3029 60.096C25.118 60.2327 24.8942 60.3065 24.6642 60.3065Z" fill="#2C2C2C"/>
<path d="M30.8395 62.1863C30.7327 62.1864 30.6265 62.1705 30.5245 62.1392L27.9664 61.3555C27.8315 61.3141 27.7061 61.2466 27.5973 61.1568C27.4885 61.0669 27.3985 60.9565 27.3324 60.8319C27.2662 60.7073 27.2253 60.5708 27.2119 60.4304C27.1985 60.2899 27.2129 60.1482 27.2543 60.0133C27.2956 59.8784 27.3631 59.753 27.453 59.6442C27.5428 59.5354 27.6532 59.4454 27.7778 59.3792C27.9025 59.3131 28.0389 59.2722 28.1794 59.2588C28.3198 59.2454 28.4615 59.2598 28.5964 59.3011L31.156 60.0848C31.2909 60.1262 31.4163 60.1937 31.5251 60.2836C31.6339 60.3734 31.7239 60.4838 31.7901 60.6084C31.8562 60.733 31.8971 60.8695 31.9105 61.0099C31.9239 61.1504 31.9095 61.2921 31.8682 61.427C31.8007 61.6471 31.6643 61.8397 31.4791 61.9764C31.2939 62.1131 31.0697 62.1867 30.8395 62.1863Z" fill="#2C2C2C"/>
<path d="M40.8943 56.9949C40.6639 56.9952 40.4396 56.9213 40.2544 56.7843C40.0691 56.6473 39.9329 56.4544 39.8656 56.2341C39.7838 55.9612 39.8136 55.6671 39.9486 55.4162C40.0836 55.1654 40.3126 54.9785 40.5854 54.8965L47.0832 52.9486C47.3561 52.8668 47.6502 52.8966 47.9011 53.0316C48.1519 53.1666 48.3389 53.3956 48.4208 53.6684C48.5027 53.9412 48.4729 54.2354 48.3379 54.4862C48.2029 54.7371 47.9738 54.924 47.7011 55.006L41.2032 56.9539C41.1028 56.9825 40.9987 56.9963 40.8943 56.9949Z" fill="#2C2C2C"/>
<path d="M53.1584 58.3373C52.9283 58.3372 52.7042 58.2632 52.5193 58.1262C52.3344 57.9893 52.1984 57.7965 52.1312 57.5764C52.0898 57.4415 52.0754 57.2998 52.0888 57.1594C52.1022 57.0189 52.1432 56.8825 52.2093 56.7578C52.2754 56.6332 52.3655 56.5228 52.4743 56.433C52.5831 56.3431 52.7085 56.2756 52.8434 56.2342L55.4029 55.4505C55.5378 55.4092 55.6796 55.3948 55.82 55.4082C55.9605 55.4216 56.0969 55.4625 56.2215 55.5286C56.3462 55.5948 56.4566 55.6848 56.5464 55.7936C56.6362 55.9024 56.7038 56.0278 56.7451 56.1627C56.7865 56.2976 56.8009 56.4393 56.7875 56.5798C56.7741 56.7202 56.7332 56.8567 56.667 56.9813C56.6009 57.1059 56.5109 57.2163 56.4021 57.3062C56.2933 57.396 56.1678 57.4635 56.0329 57.5049L53.4734 58.2886C53.3714 58.3204 53.2652 58.3368 53.1584 58.3373Z" fill="#2C2C2C"/>
<path d="M47.0715 60.307C46.8413 60.3069 46.6173 60.2329 46.4324 60.096C46.2475 59.959 46.1114 59.7663 46.0443 59.5461C46.0029 59.4113 45.9885 59.2695 46.0019 59.1291C46.0153 58.9886 46.0563 58.8522 46.1224 58.7275C46.1885 58.6029 46.2786 58.4925 46.3874 58.4027C46.4962 58.3129 46.6216 58.2453 46.7565 58.204L49.316 57.4203C49.4509 57.3789 49.5926 57.3645 49.7331 57.3779C49.8736 57.3913 50.01 57.4322 50.1346 57.4984C50.2593 57.5645 50.3696 57.6545 50.4595 57.7633C50.5493 57.8721 50.6168 57.9976 50.6582 58.1324C50.6996 58.2673 50.714 58.4091 50.7006 58.5495C50.6872 58.69 50.6462 58.8264 50.5801 58.951C50.514 59.0757 50.4239 59.1861 50.3151 59.2759C50.2064 59.3657 50.0809 59.4333 49.946 59.4746L47.3865 60.2583C47.2845 60.2901 47.1783 60.3065 47.0715 60.307Z" fill="#2C2C2C"/>
<path d="M40.8947 62.1859C40.6646 62.1858 40.4406 62.1118 40.2557 61.9749C40.0707 61.8379 39.9347 61.6452 39.8675 61.425C39.8262 61.2902 39.8118 61.1484 39.8252 61.008C39.8386 60.8675 39.8795 60.7311 39.9456 60.6065C40.0118 60.4818 40.1018 60.3714 40.2106 60.2816C40.3194 60.1918 40.4448 60.1242 40.5797 60.0829L43.1393 59.2992C43.2742 59.2578 43.4159 59.2434 43.5563 59.2568C43.6968 59.2702 43.8332 59.3111 43.9579 59.3773C44.0825 59.4434 44.1929 59.5334 44.2827 59.6422C44.3726 59.751 44.4401 59.8765 44.4815 60.0114C44.5228 60.1462 44.5372 60.288 44.5238 60.4284C44.5104 60.5689 44.4695 60.7053 44.4034 60.8299C44.3372 60.9546 44.2472 61.065 44.1384 61.1548C44.0296 61.2446 43.9042 61.3122 43.7693 61.3535L41.2097 62.1372C41.1077 62.169 41.0015 62.1854 40.8947 62.1859Z" fill="#2C2C2C"/>
</g>
</g>
</g>
<defs>
<clipPath id="clip0_266_10555">
<rect width="70" height="70" fill="white" transform="translate(0 0.599609)"/>
</clipPath>
<clipPath id="clip1_266_10555">
<rect width="70" height="70" fill="white" transform="translate(0 0.599609)"/>
</clipPath>
<clipPath id="clip2_266_10555">
<rect width="67.757" height="70" fill="white" transform="translate(1.12109 0.599609)"/>
</clipPath>
</defs>
</svg>
