<svg width="76" height="83" viewBox="0 0 76 83" fill="none" xmlns="http://www.w3.org/2000/svg">
<path d="M18.24 30.5996H6.08C4.46748 30.5996 2.92101 31.2402 1.78079 32.3804C0.640569 33.5206 0 35.0671 0 36.6796C0 38.2921 0.640569 39.8386 1.78079 40.9788C2.92101 42.119 4.46748 42.7596 6.08 42.7596H18.24" fill="#B5B5B5"/>
<path d="M76.0002 15.1418V76.2002C76.0002 77.8127 75.3597 79.3592 74.2194 80.4994C73.0792 81.6396 71.5328 82.2802 69.9202 82.2802H24.3202C22.7077 82.2802 21.1612 81.6396 20.021 80.4994C18.8808 79.3592 18.2402 77.8127 18.2402 76.2002V6.2802C18.2402 4.66768 18.8808 3.12121 20.021 1.98099C21.1612 0.840766 22.7077 0.200196 24.3202 0.200196H61.0586C61.4598 0.199878 61.857 0.278956 62.2275 0.432873C62.5979 0.586789 62.9342 0.812501 63.217 1.097L75.1034 12.9834C75.3879 13.2662 75.6136 13.6025 75.7676 13.973C75.9215 14.3434 76.0006 14.7407 76.0002 15.1418Z" fill="white"/>
<g opacity="0.3">
<path d="M22.8002 76.2002V6.2802C22.8002 4.66768 23.4408 3.12121 24.581 1.98099C25.7212 0.840765 27.2677 0.200195 28.8802 0.200195H24.3202C22.7077 0.200195 21.1612 0.840765 20.021 1.98099C18.8808 3.12121 18.2402 4.66768 18.2402 6.2802V76.2002C18.2402 77.8127 18.8808 79.3592 20.021 80.4994C21.1612 81.6396 22.7077 82.2802 24.3202 82.2802H28.8802C27.2677 82.2802 25.7212 81.6396 24.581 80.4994C23.4408 79.3592 22.8002 77.8127 22.8002 76.2002Z" fill="#62BCDB"/>
</g>
<g opacity="0.3">
<path d="M76.0004 15.4004V76.2004C76.0004 77.8129 75.3598 79.3594 74.2196 80.4996C73.0793 81.6398 71.5329 82.2804 69.9204 82.2804H65.3604C66.9729 82.2804 68.5193 81.6398 69.6596 80.4996C70.7998 79.3594 71.4404 77.8129 71.4404 76.2004V15.4004H76.0004Z" fill="#FFBC00"/>
</g>
<path d="M75.9998 15.1418V15.4002H63.0798C62.4751 15.4002 61.8952 15.16 61.4676 14.7324C61.04 14.3048 60.7998 13.7249 60.7998 13.1202V0.200196H61.0582C61.4593 0.199878 61.8566 0.278956 62.227 0.432873C62.5975 0.586789 62.9338 0.812501 63.2166 1.097L75.103 12.9834C75.3875 13.2662 75.6132 13.6025 75.7671 13.973C75.921 14.3434 76.0001 14.7407 75.9998 15.1418Z" fill="#F26A69"/>
<path d="M36.48 16.9204V26.0404C36.48 27.2497 35.9996 28.4096 35.1444 29.2648C34.2892 30.1199 33.1294 30.6004 31.92 30.6004H6.08C4.46748 30.6004 2.92101 31.2409 1.78079 32.3811C0.640569 33.5214 0 35.0678 0 36.6804V16.9204C0 15.711 0.480427 14.5511 1.33559 13.6959C2.19076 12.8408 3.35061 12.3604 4.56 12.3604H31.92C33.1294 12.3604 34.2892 12.8408 35.1444 13.6959C35.9996 14.5511 36.48 15.711 36.48 16.9204Z" fill="#62BCDB"/>
<path d="M29.9292 17.8018C29.9292 18.3642 29.458 18.653 28.8804 18.653H26.95V25.0522C26.9567 25.189 26.9345 25.3257 26.8847 25.4533C26.8349 25.5809 26.7587 25.6966 26.6611 25.7927C26.5636 25.8889 26.4468 25.9633 26.3185 26.0112C26.1901 26.0591 26.0531 26.0793 25.9164 26.0706C25.7804 26.0796 25.644 26.0594 25.5164 26.0113C25.3887 25.9633 25.2728 25.8886 25.1764 25.7922C25.08 25.6958 25.0053 25.5799 24.9573 25.4523C24.9093 25.3247 24.8891 25.1883 24.898 25.0522V18.653H22.9676C22.39 18.653 21.9188 18.3642 21.9188 17.8018C21.9188 17.2394 22.39 16.9354 22.9676 16.9354H28.8804C29.458 16.9202 29.9292 17.2394 29.9292 17.8018ZM21.2804 24.3378L19.2436 21.2978L21.326 18.2578C21.4445 18.0989 21.5133 17.9085 21.5236 17.7106C21.5264 17.5835 21.5022 17.4572 21.4525 17.3402C21.4028 17.2232 21.3288 17.118 21.2353 17.0318C21.1419 16.9455 21.0312 16.8801 20.9106 16.8399C20.7899 16.7997 20.6621 16.7857 20.5356 16.7986C20.363 16.7831 20.1899 16.8215 20.0401 16.9086C19.8904 16.9958 19.7714 17.1273 19.6996 17.285L18.1796 19.8386L16.6596 17.285C16.5813 17.1325 16.461 17.0057 16.3128 16.9195C16.1646 16.8333 15.9949 16.7913 15.8236 16.7986C15.6921 16.7904 15.5603 16.8089 15.4362 16.8531C15.3121 16.8974 15.1982 16.9664 15.1016 17.0559C15.0049 17.1454 14.9275 17.2537 14.8739 17.3741C14.8204 17.4945 14.7918 17.6245 14.79 17.7562C14.8007 17.9799 14.8745 18.1959 15.0028 18.3794L16.9636 21.2978L14.8204 24.429C14.6442 24.649 14.5477 24.9223 14.5468 25.2042C14.5483 25.3288 14.5757 25.4517 14.6273 25.5651C14.6789 25.6785 14.7535 25.7799 14.8465 25.8628C14.9394 25.9458 15.0486 26.0084 15.1672 26.0468C15.2857 26.0852 15.4109 26.0985 15.5348 26.0858C15.6893 26.0923 15.8428 26.0595 15.9811 25.9903C16.1193 25.9212 16.2378 25.8181 16.3252 25.6906L18.0884 22.8482L19.7604 25.5994C19.8388 25.7541 19.9619 25.8818 20.1136 25.9658C20.2654 26.0498 20.4389 26.0863 20.6116 26.0706C20.7495 26.0816 20.8882 26.063 21.0184 26.0162C21.1486 25.9693 21.2673 25.8952 21.3665 25.7988C21.4658 25.7024 21.5433 25.586 21.594 25.4572C21.6447 25.3285 21.6673 25.1904 21.6604 25.0522C21.63 24.8242 21.5084 24.657 21.2804 24.3378ZM13.194 16.9202H7.28122C6.70362 16.9202 6.23242 17.2242 6.23242 17.7866C6.23242 18.349 6.70362 18.6378 7.28122 18.6378H9.21162V25.037C9.20492 25.1738 9.22719 25.3105 9.27697 25.4381C9.32675 25.5657 9.40293 25.6814 9.5005 25.7775C9.59807 25.8737 9.71485 25.9481 9.84318 25.996C9.97152 26.0439 10.1085 26.0641 10.2452 26.0554C10.3813 26.0644 10.5177 26.0442 10.6453 25.9961C10.7729 25.9481 10.8888 25.8734 10.9852 25.777C11.0816 25.6806 11.1563 25.5647 11.2044 25.4371C11.2524 25.3095 11.2726 25.1731 11.2636 25.037V18.653H13.194C13.7716 18.653 14.258 18.3642 14.258 17.8018C14.258 17.2394 13.7716 16.9202 13.194 16.9202Z" fill="white"/>
<path d="M53.1999 18.4404H44.0799C43.6768 18.4404 43.2901 18.2802 43.0051 17.9952C42.72 17.7101 42.5599 17.3235 42.5599 16.9204C42.5599 16.5173 42.72 16.1306 43.0051 15.8456C43.2901 15.5605 43.6768 15.4004 44.0799 15.4004H53.1999C53.603 15.4004 53.9896 15.5605 54.2747 15.8456C54.5597 16.1306 54.7199 16.5173 54.7199 16.9204C54.7199 17.3235 54.5597 17.7101 54.2747 17.9952C53.9896 18.2802 53.603 18.4404 53.1999 18.4404ZM60.7999 27.5604H44.0799C43.6768 27.5604 43.2901 27.4003 43.0051 27.1152C42.72 26.8301 42.5599 26.4435 42.5599 26.0404C42.5599 25.6373 42.72 25.2506 43.0051 24.9656C43.2901 24.6805 43.6768 24.5204 44.0799 24.5204H60.7999C61.203 24.5204 61.5896 24.6805 61.8747 24.9656C62.1597 25.2506 62.3199 25.6373 62.3199 26.0404C62.3199 26.4435 62.1597 26.8301 61.8747 27.1152C61.5896 27.4003 61.203 27.5604 60.7999 27.5604ZM63.8399 45.8004H30.3999C29.9968 45.8004 29.6101 45.6403 29.3251 45.3552C29.04 45.0701 28.8799 44.6835 28.8799 44.2804C28.8799 43.8773 29.04 43.4906 29.3251 43.2056C29.6101 42.9205 29.9968 42.7604 30.3999 42.7604H63.8399C64.243 42.7604 64.6296 42.9205 64.9147 43.2056C65.1997 43.4906 65.3599 43.8773 65.3599 44.2804C65.3599 44.6835 65.1997 45.0701 64.9147 45.3552C64.6296 45.6403 64.243 45.8004 63.8399 45.8004ZM63.8399 36.6804H42.5599C42.1568 36.6804 41.7701 36.5203 41.4851 36.2352C41.2 35.9501 41.0399 35.5635 41.0399 35.1604C41.0399 34.7573 41.2 34.3706 41.4851 34.0856C41.7701 33.8005 42.1568 33.6404 42.5599 33.6404H63.8399C64.243 33.6404 64.6296 33.8005 64.9147 34.0856C65.1997 34.3706 65.3599 34.7573 65.3599 35.1604C65.3599 35.5635 65.1997 35.9501 64.9147 36.2352C64.6296 36.5203 64.243 36.6804 63.8399 36.6804ZM63.8399 54.9204H30.3999C29.9968 54.9204 29.6101 54.7603 29.3251 54.4752C29.04 54.1901 28.8799 53.8035 28.8799 53.4004C28.8799 52.9973 29.04 52.6106 29.3251 52.3256C29.6101 52.0405 29.9968 51.8804 30.3999 51.8804H63.8399C64.243 51.8804 64.6296 52.0405 64.9147 52.3256C65.1997 52.6106 65.3599 52.9973 65.3599 53.4004C65.3599 53.8035 65.1997 54.1901 64.9147 54.4752C64.6296 54.7603 64.243 54.9204 63.8399 54.9204ZM63.8399 64.0404H30.3999C29.9968 64.0404 29.6101 63.8803 29.3251 63.5952C29.04 63.3101 28.8799 62.9235 28.8799 62.5204C28.8799 62.1173 29.04 61.7306 29.3251 61.4456C29.6101 61.1605 29.9968 61.0004 30.3999 61.0004H63.8399C64.243 61.0004 64.6296 61.1605 64.9147 61.4456C65.1997 61.7306 65.3599 62.1173 65.3599 62.5204C65.3599 62.9235 65.1997 63.3101 64.9147 63.5952C64.6296 63.8803 64.243 64.0404 63.8399 64.0404ZM63.8399 73.1604H30.3999C29.9968 73.1604 29.6101 73.0003 29.3251 72.7152C29.04 72.4301 28.8799 72.0435 28.8799 71.6404C28.8799 71.2373 29.04 70.8506 29.3251 70.5656C29.6101 70.2805 29.9968 70.1204 30.3999 70.1204H63.8399C64.243 70.1204 64.6296 70.2805 64.9147 70.5656C65.1997 70.8506 65.3599 71.2373 65.3599 71.6404C65.3599 72.0435 65.1997 72.4301 64.9147 72.7152C64.6296 73.0003 64.243 73.1604 63.8399 73.1604Z" fill="black"/>
<g opacity="0.3">
<path d="M3.04 36.6796C3.04 35.0671 3.68057 33.5206 4.82079 32.3804C5.96101 31.2402 7.50748 30.5996 9.12 30.5996H6.08C4.46748 30.5996 2.92101 31.2402 1.78079 32.3804C0.640569 33.5206 0 35.0671 0 36.6796C0 38.2921 0.640569 39.8386 1.78079 40.9788C2.92101 42.119 4.46748 42.7596 6.08 42.7596H9.12C7.50748 42.7596 5.96101 42.119 4.82079 40.9788C3.68057 39.8386 3.04 38.2921 3.04 36.6796Z" fill="black"/>
</g>
<g opacity="0.3">
<path d="M31.9199 12.3604H28.8799C30.0893 12.3604 31.2491 12.8408 32.1043 13.6959C32.9595 14.5511 33.4399 15.711 33.4399 16.9204V26.0404C33.4399 27.2497 32.9595 28.4096 32.1043 29.2648C31.2491 30.1199 30.0893 30.6004 28.8799 30.6004H31.9199C33.1293 30.6004 34.2891 30.1199 35.1443 29.2648C35.9995 28.4096 36.4799 27.2497 36.4799 26.0404V16.9204C36.4799 15.711 35.9995 14.5511 35.1443 13.6959C34.2891 12.8408 33.1293 12.3604 31.9199 12.3604Z" fill="black"/>
</g>
</svg>
