<svg width="32" height="32" viewBox="0 0 32 32" fill="none" xmlns="http://www.w3.org/2000/svg">
<g clip-path="url(#clip0_214_9984)">
<path d="M16.0244 32C24.8744 32 32.0487 24.8366 32.0487 16C32.0487 7.16344 24.8744 0 16.0244 0C7.17436 0 0 7.16344 0 16C0 24.8366 7.17436 32 16.0244 32Z" fill="#E0E0E0"/>
<path d="M16.0245 31.5137C24.74 31.5137 31.8053 24.4591 31.8053 15.7568C31.8053 7.05457 24.74 0 16.0245 0C7.30898 0 0.243652 7.05457 0.243652 15.7568C0.243652 24.4591 7.30898 31.5137 16.0245 31.5137Z" fill="white"/>
<mask id="mask0_214_9984" style="mask-type:luminance" maskUnits="userSpaceOnUse" x="5" y="5" width="22" height="22">
<path d="M26.2529 13.9091H16.2681V18.0428H22.0154C21.4797 20.669 19.2392 22.1765 16.2681 22.1765C12.7613 22.1765 9.9363 19.3559 9.9363 15.8544C9.9363 12.3528 12.7613 9.53217 16.2681 9.53217C17.778 9.53217 19.1418 10.0671 20.2133 10.9425L23.3305 7.83005C21.431 6.17655 18.9957 5.15527 16.2681 5.15527C10.3259 5.15527 5.55273 9.92123 5.55273 15.8544C5.55273 21.7875 10.3259 26.5534 16.2681 26.5534C21.6258 26.5534 26.4964 22.6629 26.4964 15.8544C26.4964 15.2221 26.399 14.5413 26.2529 13.9091Z" fill="white"/>
</mask>
<g mask="url(#mask0_214_9984)">
<path d="M4.57861 22.1766V9.53223L12.8587 15.8544L4.57861 22.1766Z" fill="#FBBC05"/>
</g>
<mask id="mask1_214_9984" style="mask-type:luminance" maskUnits="userSpaceOnUse" x="5" y="5" width="22" height="22">
<path d="M26.2529 13.9091H16.2681V18.0428H22.0154C21.4797 20.669 19.2392 22.1765 16.2681 22.1765C12.7613 22.1765 9.9363 19.3559 9.9363 15.8544C9.9363 12.3528 12.7613 9.53217 16.2681 9.53217C17.778 9.53217 19.1418 10.0671 20.2133 10.9425L23.3305 7.83005C21.431 6.17655 18.9957 5.15527 16.2681 5.15527C10.3259 5.15527 5.55273 9.92123 5.55273 15.8544C5.55273 21.7875 10.3259 26.5534 16.2681 26.5534C21.6258 26.5534 26.4964 22.6629 26.4964 15.8544C26.4964 15.2221 26.399 14.5413 26.2529 13.9091Z" fill="white"/>
</mask>
<g mask="url(#mask1_214_9984)">
<path d="M4.57861 9.53216L12.8587 15.8543L16.2681 12.8878L27.9576 10.9911V4.18262H4.57861V9.53216Z" fill="#EA4335"/>
</g>
<mask id="mask2_214_9984" style="mask-type:luminance" maskUnits="userSpaceOnUse" x="5" y="5" width="22" height="22">
<path d="M26.2529 13.9091H16.2681V18.0428H22.0154C21.4797 20.669 19.2392 22.1765 16.2681 22.1765C12.7613 22.1765 9.9363 19.3559 9.9363 15.8544C9.9363 12.3528 12.7613 9.53217 16.2681 9.53217C17.778 9.53217 19.1418 10.0671 20.2133 10.9425L23.3305 7.83005C21.431 6.17655 18.9957 5.15527 16.2681 5.15527C10.3259 5.15527 5.55273 9.92123 5.55273 15.8544C5.55273 21.7875 10.3259 26.5534 16.2681 26.5534C21.6258 26.5534 26.4964 22.6629 26.4964 15.8544C26.4964 15.2221 26.399 14.5413 26.2529 13.9091Z" fill="white"/>
</mask>
<g mask="url(#mask2_214_9984)">
<path d="M4.57861 22.1765L19.1905 10.9911L23.0383 11.4774L27.9576 4.18262V27.5261H4.57861V22.1765Z" fill="#34A853"/>
</g>
<mask id="mask3_214_9984" style="mask-type:luminance" maskUnits="userSpaceOnUse" x="5" y="5" width="22" height="22">
<path d="M26.2529 13.9091H16.2681V18.0428H22.0154C21.4797 20.669 19.2392 22.1765 16.2681 22.1765C12.7613 22.1765 9.9363 19.3559 9.9363 15.8544C9.9363 12.3528 12.7613 9.53217 16.2681 9.53217C17.778 9.53217 19.1418 10.0671 20.2133 10.9425L23.3305 7.83005C21.431 6.17655 18.9957 5.15527 16.2681 5.15527C10.3259 5.15527 5.55273 9.92123 5.55273 15.8544C5.55273 21.7875 10.3259 26.5534 16.2681 26.5534C21.6258 26.5534 26.4964 22.6629 26.4964 15.8544C26.4964 15.2221 26.399 14.5413 26.2529 13.9091Z" fill="white"/>
</mask>
<g mask="url(#mask3_214_9984)">
<path d="M27.9578 27.5261L12.8589 15.8544L10.9106 14.3954L27.9578 9.53223V27.5261Z" fill="#4285F4"/>
</g>
</g>
<defs>
<clipPath id="clip0_214_9984">
<rect width="32" height="32" fill="white"/>
</clipPath>
</defs>
</svg>
