<svg width="33" height="33" viewBox="0 0 33 33" fill="none" xmlns="http://www.w3.org/2000/svg">
<g clip-path="url(#clip0_266_10646)">
<g clip-path="url(#clip1_266_10646)">
<g clip-path="url(#clip2_266_10646)">
<path d="M1.44965 26.4598C1.32637 26.4598 1.20433 26.4352 1.09067 26.3874C0.977009 26.3397 0.873995 26.2698 0.787647 26.1818C0.612063 26.0032 0.513672 25.7628 0.513672 25.5123C0.513672 25.2619 0.612063 25.0214 0.787647 24.8428L21.9726 3.41982C22.0591 3.33201 22.1621 3.26228 22.2758 3.21469C22.3894 3.16709 22.5114 3.14258 22.6346 3.14258C22.7579 3.14258 22.8798 3.16709 22.9935 3.21469C23.1072 3.26228 23.2102 3.33201 23.2966 3.41982L29.7056 9.89182C29.8812 10.0704 29.9796 10.3109 29.9796 10.5613C29.9796 10.8118 29.8812 11.0522 29.7056 11.2308C29.6192 11.3186 29.5162 11.3883 29.4025 11.4359C29.2888 11.4835 29.1669 11.508 29.0436 11.508C28.9204 11.508 28.7984 11.4835 28.6848 11.4359C28.5711 11.3883 28.4681 11.3186 28.3816 11.2308L22.6346 5.43081L2.10865 26.1828C2.02257 26.2703 1.92001 26.3398 1.80689 26.3873C1.69377 26.4349 1.57235 26.4595 1.44965 26.4598Z" fill="white"/>
<path d="M7.84495 32.5878C7.72174 32.5879 7.59975 32.5634 7.48609 32.5159C7.37243 32.4683 7.26938 32.3986 7.18295 32.3108L0.774952 25.8388C0.599368 25.6602 0.500977 25.4197 0.500977 25.1693C0.500977 24.9188 0.599368 24.6784 0.774952 24.4998C0.861397 24.412 0.964446 24.3423 1.0781 24.2947C1.19175 24.2471 1.31374 24.2225 1.43695 24.2225C1.56017 24.2225 1.68215 24.2471 1.79581 24.2947C1.90946 24.3423 2.01251 24.412 2.09895 24.4998L7.84595 30.2998L28.373 9.54579C28.4594 9.45799 28.5624 9.38825 28.6761 9.34065C28.7898 9.29306 28.9117 9.26855 29.035 9.26855C29.1582 9.26855 29.2802 9.29306 29.3938 9.34065C29.5075 9.38825 29.6105 9.45799 29.697 9.54579C29.8725 9.7244 29.9709 9.96483 29.9709 10.2153C29.9709 10.4657 29.8725 10.7062 29.697 10.8848L8.50695 32.3108C8.42052 32.3986 8.31747 32.4683 8.20381 32.5159C8.09015 32.5634 7.96816 32.5879 7.84495 32.5878Z" fill="white"/>
<path d="M29.0331 11.5089C28.7822 11.5089 28.5416 11.4092 28.3641 11.2319L21.887 4.75993C21.7702 4.64323 21.686 4.49803 21.6426 4.33872C21.5993 4.17941 21.5983 4.01154 21.6398 3.85175C21.6814 3.69195 21.764 3.5458 21.8794 3.42778C21.9949 3.30975 22.1392 3.22397 22.298 3.17893L31.298 0.626929C31.46 0.580888 31.6312 0.578839 31.7942 0.620994C31.9572 0.663148 32.106 0.747982 32.2253 0.866759C32.3445 0.985536 32.43 1.13396 32.4728 1.29675C32.5157 1.45954 32.5144 1.63082 32.469 1.79293L29.949 10.8169C29.8934 11.016 29.7741 11.1914 29.6094 11.3163C29.4448 11.4413 29.2438 11.5089 29.0371 11.5089H29.0331ZM24.363 4.55993L28.556 8.74693L30.1871 2.90993L24.363 4.55993Z" fill="white"/>
<path d="M30.1002 7.68872C29.976 7.68885 29.8529 7.66444 29.7381 7.61691C29.6233 7.56938 29.519 7.49964 29.4312 7.41172L25.6942 3.67972C25.5167 3.50213 25.417 3.26131 25.417 3.01022C25.417 2.75912 25.5167 2.5183 25.6942 2.34072C25.8718 2.1632 26.1126 2.06348 26.3637 2.06348C26.6148 2.06348 26.8556 2.1632 27.0332 2.34072L30.7702 6.07272C30.9477 6.2503 31.0475 6.49112 31.0475 6.74222C31.0475 6.99331 30.9477 7.23413 30.7702 7.41172C30.6823 7.49976 30.5779 7.56956 30.4629 7.6171C30.3479 7.66464 30.2247 7.68898 30.1002 7.68872Z" fill="white"/>
<path d="M20.5508 29.9275C20.4263 29.9278 20.3031 29.9034 20.1881 29.8559C20.0731 29.8084 19.9687 29.7386 19.8808 29.6505C19.7032 29.4729 19.6035 29.2321 19.6035 28.981C19.6035 28.7299 19.7032 28.4891 19.8808 28.3115L22.7178 25.4745C22.8953 25.297 23.1362 25.1973 23.3873 25.1973C23.6384 25.1973 23.8792 25.297 24.0568 25.4745C24.2343 25.6521 24.334 25.8929 24.334 26.144C24.334 26.3951 24.2343 26.6359 24.0568 26.8135L21.2198 29.6505C21.132 29.7384 21.0277 29.8082 20.9129 29.8557C20.7981 29.9032 20.675 29.9276 20.5508 29.9275Z" fill="white"/>
<path d="M23.1122 32.5939C22.9878 32.594 22.8646 32.5695 22.7496 32.522C22.6347 32.4745 22.5302 32.4048 22.4422 32.3168L14.6852 24.5598C14.5134 24.3811 14.4185 24.1421 14.4209 23.8942C14.4234 23.6463 14.523 23.4092 14.6983 23.2339C14.8736 23.0586 15.1107 22.959 15.3586 22.9566C15.6065 22.9542 15.8455 23.049 16.0242 23.2209L23.1112 30.3078L30.2112 23.2079L23.1252 16.1219C22.9534 15.9431 22.8585 15.7041 22.8609 15.4562C22.8634 15.2083 22.963 14.9712 23.1383 14.7959C23.3136 14.6206 23.5507 14.521 23.7986 14.5186C24.0465 14.5162 24.2855 14.611 24.4642 14.7829L32.2202 22.5388C32.3977 22.7164 32.4974 22.9572 32.4974 23.2083C32.4974 23.4594 32.3977 23.7003 32.2202 23.8779L23.7762 32.3219C23.5991 32.4961 23.3606 32.5938 23.1122 32.5939Z" fill="white"/>
<path d="M9.21919 18.7001C9.09477 18.7003 8.97152 18.676 8.85654 18.6284C8.74156 18.5809 8.6371 18.5111 8.54919 18.4231L0.779193 10.6521C0.601676 10.4745 0.501953 10.2337 0.501953 9.98256C0.501953 9.73146 0.601676 9.49065 0.779193 9.31306L9.22319 0.86806C9.40078 0.690543 9.6416 0.59082 9.89269 0.59082C10.1438 0.59082 10.3846 0.690543 10.5622 0.86806L18.3342 8.64006C18.4222 8.72805 18.492 8.8325 18.5396 8.94746C18.5872 9.06242 18.6117 9.18563 18.6117 9.31006C18.6117 9.43449 18.5872 9.5577 18.5396 9.67266C18.492 9.78762 18.4222 9.89207 18.3342 9.98006C18.2462 10.068 18.1418 10.1378 18.0268 10.1855C17.9118 10.2331 17.7886 10.2576 17.6642 10.2576C17.5398 10.2576 17.4166 10.2331 17.3016 10.1855C17.1866 10.1378 17.0822 10.068 16.9942 9.98006L9.89419 2.88006L2.79419 9.98006L9.89419 17.0801C10.0268 17.2125 10.1171 17.3813 10.1537 17.5651C10.1903 17.7489 10.1715 17.9394 10.0998 18.1126C10.0281 18.2857 9.90657 18.4337 9.7507 18.5377C9.59484 18.6417 9.4116 18.6972 9.22419 18.6971L9.21919 18.7001Z" fill="white"/>
<path d="M18.0156 27.4236C17.8912 27.4239 17.7679 27.3995 17.6529 27.352C17.538 27.3044 17.4335 27.2346 17.3456 27.1466C17.1681 26.969 17.0684 26.7282 17.0684 26.4771C17.0684 26.226 17.1681 25.9852 17.3456 25.8076L20.1826 22.9706C20.3602 22.7931 20.601 22.6934 20.8521 22.6934C21.1032 22.6934 21.344 22.7931 21.5216 22.9706C21.6991 23.1482 21.7988 23.389 21.7988 23.6401C21.7988 23.8912 21.6991 24.132 21.5216 24.3096L18.6846 27.1466C18.5968 27.2345 18.4925 27.3043 18.3777 27.3518C18.2629 27.3993 18.1399 27.4237 18.0156 27.4236Z" fill="white"/>
<path d="M9.41816 6.88574C9.78587 6.88574 10.15 6.95817 10.4897 7.09888C10.8294 7.23959 11.1381 7.44584 11.3981 7.70584C11.6581 7.96585 11.8643 8.27452 12.005 8.61423C12.1457 8.95394 12.2182 9.31804 12.2182 9.68574C12.2168 10.4279 11.9214 11.1394 11.3966 11.6642C10.8718 12.189 10.1604 12.4844 9.41816 12.4857C9.05046 12.4857 8.68636 12.4133 8.34665 12.2726C8.00694 12.1319 7.69827 11.9256 7.43826 11.6656C7.17826 11.4056 6.97201 11.097 6.8313 10.7573C6.69059 10.4175 6.61816 10.0534 6.61816 9.68574C6.61816 9.31804 6.69059 8.95394 6.8313 8.61423C6.97201 8.27452 7.17826 7.96585 7.43826 7.70584C7.69827 7.44584 8.00694 7.23959 8.34665 7.09888C8.68636 6.95817 9.05046 6.88574 9.41816 6.88574ZM9.41816 10.5947C9.6589 10.5945 9.8897 10.4987 10.0599 10.3285C10.2302 10.1583 10.3259 9.92748 10.3262 9.68674C10.3259 9.44601 10.2302 9.21521 10.0599 9.04498C9.8897 8.87476 9.6589 8.77901 9.41816 8.77874C9.17743 8.77901 8.94663 8.87476 8.7764 9.04498C8.60618 9.21521 8.51043 9.44601 8.51016 9.68674C8.51043 9.92748 8.60618 10.1583 8.7764 10.3285C8.94663 10.4987 9.17743 10.5945 9.41816 10.5947Z" fill="white"/>
<path d="M10.8683 29.6491C10.744 29.6492 10.621 29.6248 10.5062 29.5773C10.3914 29.5297 10.2871 29.46 10.1993 29.3721L3.73329 22.9151C3.55578 22.7375 3.45605 22.4967 3.45605 22.2456C3.45605 21.9945 3.55578 21.7537 3.73329 21.5761C3.91088 21.3986 4.1517 21.2988 4.40279 21.2988C4.65389 21.2988 4.89471 21.3986 5.07229 21.5761L11.5383 28.0331C11.7158 28.2107 11.8155 28.4515 11.8155 28.7026C11.8155 28.9537 11.7158 29.1945 11.5383 29.3721C11.4504 29.4601 11.3459 29.5299 11.2309 29.5775C11.116 29.625 10.9927 29.6493 10.8683 29.6491Z" fill="white"/>
</g>
</g>
</g>
<defs>
<clipPath id="clip0_266_10646">
<rect width="32" height="32" fill="white" transform="translate(0.5 0.589844)"/>
</clipPath>
<clipPath id="clip1_266_10646">
<rect width="32" height="32" fill="white" transform="translate(0.5 0.589844)"/>
</clipPath>
<clipPath id="clip2_266_10646">
<rect width="32" height="31.999" fill="white" transform="translate(0.5 0.59082)"/>
</clipPath>
</defs>
</svg>
