<svg width="37" height="37" viewBox="0 0 37 37" fill="none" xmlns="http://www.w3.org/2000/svg">
<path d="M16.958 6.16699H6.16634C5.34859 6.16699 4.56433 6.49184 3.9861 7.07008C3.40786 7.64832 3.08301 8.43257 3.08301 9.25033V30.8337C3.08301 31.6514 3.40786 32.4357 3.9861 33.0139C4.56433 33.5921 5.34859 33.917 6.16634 33.917H27.7497C28.5674 33.917 29.3517 33.5921 29.9299 33.0139C30.5082 32.4357 30.833 31.6514 30.833 30.8337V20.042" stroke="#4182FF" stroke-width="3" stroke-linecap="round" stroke-linejoin="round"/>
<path d="M28.5205 3.85435C29.1338 3.24104 29.9657 2.89648 30.833 2.89648C31.7004 2.89648 32.5322 3.24104 33.1455 3.85435C33.7588 4.46767 34.1034 5.2995 34.1034 6.16685C34.1034 7.03421 33.7588 7.86604 33.1455 8.47935L18.4997 23.1252L12.333 24.6669L13.8747 18.5002L28.5205 3.85435Z" stroke="#4182FF" stroke-width="4" stroke-linecap="round" stroke-linejoin="round"/>
</svg>
