<svg width="76" height="77" viewBox="0 0 76 77" fill="none" xmlns="http://www.w3.org/2000/svg">
<g clip-path="url(#clip0_266_10530)">
<g clip-path="url(#clip1_266_10530)">
<path d="M45.9227 74.8519C42.9689 74.8542 40.0308 74.4213 37.2031 73.5676L37.8385 71.4691C40.4602 72.2602 43.1842 72.6607 45.9227 72.6583C53.3152 72.65 60.4025 69.7096 65.6299 64.4823C70.8572 59.255 73.7976 52.1675 73.8059 44.7749C73.7976 37.3824 70.8572 30.2954 65.6299 25.0681C60.4025 19.8407 53.3152 16.9004 45.9227 16.892C43.2109 16.8898 40.5132 17.2825 37.9148 18.0584L37.2862 15.9599C40.0886 15.1232 42.998 14.6989 45.9227 14.7013C49.874 14.6906 53.7882 15.4638 57.4387 16.9759C61.0893 18.488 64.4036 20.7093 67.19 23.5108C69.9916 26.2972 72.2128 29.6112 73.7249 33.2618C75.237 36.9123 76.01 40.8269 75.9992 44.7782C76.01 48.7295 75.237 52.6436 73.7249 56.2942C72.2128 59.9447 69.9916 63.2592 67.19 66.0456C64.4034 68.8466 61.0889 71.0671 57.4384 72.5787C53.7878 74.0903 49.8738 74.863 45.9227 74.8519Z" fill="#2C2C2C"/>
<path d="M30.0805 74.8517C26.1291 74.8626 22.2147 74.0897 18.564 72.5776C14.9133 71.0655 11.5988 68.8443 8.81224 66.0427C6.01063 63.2563 3.78949 59.9418 2.2774 56.2912C0.765298 52.6407 -0.00774094 48.7261 0.00304093 44.7748C-0.00774094 40.8235 0.765298 36.9094 2.2774 33.2589C3.78949 29.6083 6.01063 26.2938 8.81224 23.5074C11.5988 20.7058 14.9133 18.4846 18.564 16.9725C22.2147 15.4604 26.1291 14.6875 30.0805 14.6984C34.0318 14.6876 37.9461 15.4608 41.5966 16.9729C45.2472 18.485 48.5615 20.7059 51.3479 23.5074C54.1495 26.2938 56.3707 29.6083 57.8828 33.2589C59.3949 36.9094 60.1679 40.8235 60.1571 44.7748C60.1679 48.7261 59.3949 52.6407 57.8828 56.2912C56.3707 59.9418 54.1495 63.2563 51.3479 66.0427C48.5615 68.8442 45.2472 71.0651 41.5966 72.5771C37.9461 74.0892 34.0318 74.8625 30.0805 74.8517ZM30.0805 16.8919C22.688 16.9002 15.6005 19.8406 10.3732 25.0679C5.14585 30.2953 2.20549 37.3822 2.19716 44.7748C2.206 52.1671 5.14661 59.2543 10.3739 64.4812C15.6012 69.7082 22.6883 72.648 30.0805 72.6563C37.4731 72.648 44.5606 69.7076 49.7879 64.4803C55.0152 59.253 57.9556 52.1655 57.9639 44.7729C57.9553 37.3805 55.0149 30.2937 49.7876 25.0665C44.5602 19.8394 37.4729 16.8988 30.0805 16.8905V16.8919Z" fill="#2C2C2C"/>
<path d="M38.1157 10.6694C37.8322 10.6692 37.5599 10.5592 37.3558 10.3625C37.1516 10.1658 37.0315 9.89767 37.0206 9.61437L36.786 3.48747C36.7749 3.19677 36.8796 2.91367 37.0773 2.70024C37.275 2.48681 37.5494 2.36065 37.8401 2.34948C38.1301 2.33811 38.4127 2.44203 38.6261 2.63875C38.8394 2.83547 38.9661 3.10902 38.9782 3.39896L39.2129 9.52633C39.224 9.81703 39.1192 10.1001 38.9215 10.3136C38.7238 10.527 38.4494 10.6532 38.1587 10.6643L38.1157 10.6694Z" fill="#2C2C2C"/>
<path d="M49.2368 10.0778C49.0025 10.0778 48.7745 10.0025 48.5862 9.8631C48.3522 9.69025 48.1964 9.43195 48.1529 9.14435C48.1095 8.85674 48.182 8.56342 48.3544 8.32917L51.9948 3.39522C52.1675 3.16107 52.4261 3.00502 52.7138 2.96155C53.0015 2.91807 53.2947 2.99058 53.5288 3.16325C53.763 3.33594 53.9189 3.59479 53.9624 3.88247C54.0059 4.17015 53.9334 4.46301 53.7607 4.69718L50.1202 9.63159C50.0182 9.77003 49.8852 9.88244 49.7317 9.95999C49.5783 10.0375 49.4087 10.0779 49.2368 10.0778Z" fill="#2C2C2C"/>
<path d="M26.7633 10.0765C26.5914 10.0767 26.422 10.0365 26.2685 9.95908C26.115 9.88168 25.9818 9.76952 25.8799 9.63114L22.2395 4.69674C22.0669 4.46256 21.9942 4.1697 22.0377 3.88202C22.0812 3.59434 22.2371 3.33549 22.4713 3.1628C22.7055 2.99038 22.9986 2.9181 23.2862 2.96156C23.5738 3.00503 23.8325 3.16084 24.0053 3.39478L27.6458 8.32872C27.8185 8.56289 27.891 8.85622 27.8475 9.1439C27.804 9.43158 27.6481 9.68996 27.4139 9.86266C27.2255 10.0017 26.9975 10.0767 26.7633 10.0765Z" fill="#2C2C2C"/>
<path d="M30.1771 57.4603C28.5738 57.452 27.0145 56.935 25.7239 55.9836C24.4538 55.073 23.4865 53.8015 22.9478 52.3344C22.8506 52.06 22.8663 51.7583 22.9916 51.4955C23.1168 51.2327 23.3413 51.0306 23.6156 50.9332C23.89 50.836 24.1918 50.8518 24.4546 50.977C24.7174 51.1022 24.9197 51.3269 25.017 51.6012C25.4124 52.6584 26.1155 53.5724 27.0357 54.2261C27.9558 54.8798 29.0507 55.2428 30.1791 55.2681C30.8324 55.3061 31.4862 55.2056 32.0977 54.9728C32.7093 54.7401 33.2647 54.3804 33.7274 53.9177C34.1901 53.455 34.5496 52.8999 34.7823 52.2883C35.0151 51.6767 35.1158 51.0228 35.0778 50.3696C35.0778 48.2174 33.354 46.7623 29.953 46.0468C25.7812 45.1682 23.0843 42.4725 23.0843 39.1783C23.0843 36.1255 24.3148 32.485 30.1771 32.485C31.7648 32.4645 33.3159 32.9613 34.596 33.9006C35.8373 34.8388 36.7389 36.1561 37.1642 37.6528C37.205 37.791 37.2183 37.9357 37.2032 38.079C37.1881 38.2223 37.1449 38.3614 37.076 38.488C37.0072 38.6146 36.9141 38.7262 36.802 38.8168C36.69 38.9075 36.5611 38.9749 36.4229 39.0157C36.2848 39.0566 36.1399 39.07 35.9966 39.0549C35.8533 39.0397 35.7143 38.9965 35.5877 38.9277C35.4611 38.8589 35.3494 38.7659 35.2588 38.6538C35.1681 38.5418 35.1006 38.4128 35.0597 38.2746C34.7661 37.2151 34.1252 36.2849 33.2399 35.633C32.3546 34.981 31.2761 34.645 30.1771 34.679C26.7428 34.679 25.2784 36.0254 25.2784 39.1783C25.2784 41.3916 27.2904 43.2449 30.4033 43.9003C32.2031 44.2014 33.8964 44.9568 35.323 46.0948C35.9404 46.621 36.4347 47.2763 36.7711 48.0144C37.1076 48.7526 37.2779 49.5552 37.2702 50.3663C37.2906 51.3057 37.1248 52.2401 36.7824 53.1151C36.4401 53.9901 35.9278 54.7887 35.2753 55.4647C34.5993 56.1174 33.8008 56.63 32.9258 56.9726C32.0508 57.3151 31.1166 57.4806 30.1771 57.4603Z" fill="#2C2C2C"/>
<path d="M29.977 34.0791C29.686 34.0791 29.4069 33.9634 29.2012 33.7577C28.9954 33.5519 28.8799 33.273 28.8799 32.9821V30.1839C28.8799 29.8929 28.9954 29.6141 29.2012 29.4083C29.4069 29.2026 29.686 29.0869 29.977 29.0869C30.268 29.0869 30.547 29.2026 30.7527 29.4083C30.9584 29.6141 31.0741 29.8929 31.0741 30.1839V32.9821C31.0741 33.273 30.9584 33.5519 30.7527 33.7577C30.547 33.9634 30.268 34.0791 29.977 34.0791Z" fill="#2C2C2C"/>
<path d="M29.977 60.4609C29.686 60.4609 29.4069 60.3457 29.2012 60.14C28.9954 59.9342 28.8799 59.6549 28.8799 59.3639V56.5658C28.8799 56.2748 28.9954 55.9959 29.2012 55.7902C29.4069 55.5844 29.686 55.4688 29.977 55.4688C30.268 55.4688 30.547 55.5844 30.7527 55.7902C30.9584 55.9959 31.0741 56.2748 31.0741 56.5658V59.3639C31.0741 59.6549 30.9584 59.9342 30.7527 60.14C30.547 60.3457 30.268 60.4609 29.977 60.4609Z" fill="#2C2C2C"/>
</g>
</g>
<defs>
<clipPath id="clip0_266_10530">
<rect width="76" height="76" fill="white" transform="translate(0 0.599609)"/>
</clipPath>
<clipPath id="clip1_266_10530">
<rect width="76" height="72.5036" fill="white" transform="translate(0 2.34766)"/>
</clipPath>
</defs>
</svg>
