<svg width="76" height="77" viewBox="0 0 76 77" fill="none" xmlns="http://www.w3.org/2000/svg">
<g clip-path="url(#clip0_266_10503)">
<path d="M56.8141 75.6063C51.7277 75.6001 46.8515 73.577 43.2549 69.9803C39.6583 66.3837 37.6351 61.5075 37.6289 56.4211C37.6351 51.3346 39.6583 46.458 43.2549 42.8613C46.8515 39.2647 51.7277 37.2415 56.8141 37.2354C61.9006 37.2415 66.7772 39.2647 70.3739 42.8613C73.9705 46.458 75.9937 51.3346 75.9999 56.4211C75.9937 61.5075 73.9705 66.3837 70.3739 69.9803C66.7772 73.577 61.9006 75.6001 56.8141 75.6063ZM56.8141 39.4751C52.3213 39.4797 48.0139 41.267 44.837 44.4439C41.6601 47.6208 39.8733 51.9282 39.8687 56.4211C39.8733 60.9139 41.6601 65.2213 44.837 68.3982C48.0139 71.5751 52.3213 73.3619 56.8141 73.3666C61.307 73.3619 65.6144 71.5751 68.7913 68.3982C71.9682 65.2213 73.7555 60.9139 73.7601 56.4211C73.7555 51.9282 71.9682 47.6208 68.7913 44.4439C65.6144 41.267 61.307 39.4797 56.8141 39.4751Z" fill="#2C2C2C"/>
<path d="M18.9878 33.7773H9.94629V42.8189H18.9878V33.7773Z" fill="#2C2C2C"/>
<path d="M33.9878 33.7773H24.9463V42.8189H33.9878V33.7773Z" fill="#2C2C2C"/>
<path d="M18.9878 48.7773H9.94629V57.8189H18.9878V48.7773Z" fill="#2C2C2C"/>
<path d="M67.07 57.5031H56.7976C56.5003 57.5031 56.2151 57.3852 56.0049 57.175C55.7947 56.9648 55.6768 56.6796 55.6768 56.3823V48.779C55.6768 48.4817 55.7947 48.1965 56.0049 47.9863C56.2151 47.7761 56.5003 47.6582 56.7976 47.6582C57.0948 47.6585 57.3797 47.7766 57.5898 47.9868C57.8 48.197 57.9181 48.4818 57.9184 48.779V55.26H67.0728C67.3701 55.26 67.6553 55.3784 67.8655 55.5886C68.0757 55.7988 68.1941 56.084 68.1941 56.3813C68.1943 56.5288 68.165 56.6749 68.1085 56.8112C68.0521 56.9475 67.9695 57.0712 67.8651 57.1755C67.7606 57.2797 67.6367 57.3622 67.5003 57.4184C67.3639 57.4747 67.2175 57.5035 67.07 57.5031Z" fill="#2C2C2C"/>
<path d="M33.8337 66.6931H3.58692C2.63595 66.692 1.72407 66.3141 1.05163 65.6417C0.379198 64.9692 0.00103114 64.0571 0 63.1061V16.5166C0.00103114 15.5656 0.379198 14.654 1.05163 13.9816C1.72407 13.3091 2.63595 12.9307 3.58692 12.9297H53.0601C54.011 12.9307 54.9229 13.3091 55.5953 13.9816C56.2678 14.654 56.6459 15.5656 56.647 16.5166V32.7046C56.647 33.0019 56.5288 33.2871 56.3186 33.4973C56.1084 33.7075 55.8232 33.8254 55.5259 33.8254C55.2287 33.8251 54.9438 33.707 54.7337 33.4968C54.5235 33.2867 54.4054 33.0018 54.4051 32.7046V16.5166C54.4046 16.1603 54.2628 15.8189 54.0109 15.567C53.7589 15.315 53.4173 15.1733 53.061 15.1728H3.58787C3.23159 15.1733 2.88993 15.315 2.638 15.567C2.38607 15.8189 2.2443 16.1603 2.24379 16.5166V63.1061C2.2443 63.4624 2.38607 63.8043 2.638 64.0562C2.88993 64.3082 3.23159 64.4499 3.58787 64.4505H33.8346C34.132 64.4505 34.4172 64.5684 34.6276 64.7786C34.838 64.9888 34.9564 65.2739 34.9566 65.5713C34.9566 65.7187 34.9275 65.8645 34.8711 66.0007C34.8146 66.1369 34.7319 66.2607 34.6276 66.3649C34.5233 66.4691 34.3996 66.5516 34.2633 66.6079C34.1271 66.6643 33.9811 66.6932 33.8337 66.6931Z" fill="#2C2C2C"/>
<path d="M55.4865 27.0903H1.62497C1.32768 27.0903 1.04248 26.9724 0.832259 26.7621C0.622042 26.5519 0.503906 26.2667 0.503906 25.9694C0.503906 25.672 0.62207 25.3871 0.832259 25.1767C1.04245 24.9664 1.32759 24.8479 1.62497 24.8477H55.4865C55.6338 24.8477 55.7796 24.8764 55.9157 24.9328C56.0518 24.9892 56.1754 25.0721 56.2795 25.1762C56.3836 25.2804 56.4662 25.4039 56.5225 25.54C56.5788 25.6761 56.6075 25.8221 56.6074 25.9694C56.6074 26.2667 56.4895 26.5519 56.2792 26.7621C56.069 26.9724 55.7838 27.0903 55.4865 27.0903Z" fill="#2C2C2C"/>
<path d="M19.489 17.8069C19.1917 17.8069 18.9067 17.689 18.6965 17.4788C18.4863 17.2685 18.3682 16.9833 18.3682 16.6861V2.71262C18.3682 2.41533 18.4863 2.13013 18.6965 1.91991C18.9067 1.7097 19.1917 1.5918 19.489 1.5918C19.7864 1.5918 20.0716 1.70972 20.2819 1.91991C20.4923 2.1301 20.6107 2.41524 20.611 2.71262V16.6861C20.6107 16.9834 20.4923 17.2686 20.2819 17.4788C20.0716 17.689 19.7864 17.8069 19.489 17.8069Z" fill="#2C2C2C"/>
<path d="M37.156 17.8069C36.8587 17.8069 36.574 17.689 36.3637 17.4788C36.1535 17.2685 36.0352 16.9833 36.0352 16.6861V2.71262C36.0352 2.41533 36.1535 2.13013 36.3637 1.91991C36.574 1.7097 36.8587 1.5918 37.156 1.5918C37.4534 1.5918 37.7388 1.70972 37.9492 1.91991C38.1595 2.1301 38.278 2.41524 38.2782 2.71262V16.6861C38.278 16.9834 38.1595 17.2686 37.9492 17.4788C37.7388 17.689 37.4534 17.8069 37.156 17.8069Z" fill="#2C2C2C"/>
<path d="M30.3842 40.9324C30.2979 40.9326 30.212 40.9226 30.1281 40.903C29.9827 40.8689 29.8456 40.8063 29.7248 40.7184C29.6041 40.6306 29.502 40.5195 29.4248 40.3918L27.3622 36.9832C27.2859 36.8572 27.2353 36.7174 27.2131 36.5718C27.1909 36.4263 27.1974 36.2778 27.2326 36.1348C27.2678 35.9918 27.3308 35.8573 27.418 35.7387C27.5053 35.6201 27.6149 35.5196 27.7409 35.4434C27.8669 35.3671 28.0067 35.3163 28.1523 35.2941C28.2978 35.2719 28.4463 35.2789 28.5893 35.3141C28.7323 35.3492 28.867 35.4118 28.9856 35.499C29.1042 35.5863 29.2045 35.6964 29.2807 35.8224L30.7503 38.249L38.1762 33.5432C38.3005 33.4643 38.4391 33.4111 38.5842 33.3858C38.7293 33.3605 38.878 33.364 39.0217 33.3962C39.1654 33.4284 39.3016 33.4884 39.4221 33.5731C39.5425 33.6579 39.6447 33.7654 39.7236 33.8898C39.8826 34.1409 39.9355 34.4453 39.8705 34.7353C39.8055 35.0253 39.6279 35.2776 39.3769 35.4367L30.984 40.7541C30.805 40.8692 30.597 40.9311 30.3842 40.9324Z" fill="#AAAAAA"/>
</g>
<defs>
<clipPath id="clip0_266_10503">
<rect width="76" height="74.0152" fill="white" transform="translate(0 1.5918)"/>
</clipPath>
</defs>
</svg>
