<svg width="33" height="33" viewBox="0 0 33 33" fill="none" xmlns="http://www.w3.org/2000/svg">
<g clip-path="url(#clip0_266_10667)">
<g clip-path="url(#clip1_266_10667)">
<g clip-path="url(#clip2_266_10667)">
<mask id="mask0_266_10667" style="mask-type:luminance" maskUnits="userSpaceOnUse" x="0" y="0" width="33" height="33">
<path d="M0.5 0.589844H32.5V32.5898H0.5V0.589844Z" fill="white"/>
</mask>
<g mask="url(#mask0_266_10667)">
<path d="M27.171 32.5898H20.831C20.5847 32.5898 20.3483 32.4928 20.173 32.3198L15.78 27.9908C15.6915 27.9036 15.6213 27.7996 15.5734 27.6849C15.5255 27.5702 15.5009 27.4471 15.501 27.3228V20.9828C15.5009 20.8586 15.5255 20.7355 15.5734 20.6208C15.6213 20.5061 15.6915 20.4021 15.78 20.3148L20.172 15.9848C20.3474 15.8119 20.5837 15.715 20.83 15.7148H27.17C27.4162 15.715 27.6526 15.8119 27.828 15.9848L32.216 20.3138C32.3045 20.4011 32.3747 20.5051 32.4226 20.6198C32.4705 20.7345 32.4951 20.8576 32.495 20.9818V27.3218C32.495 27.4461 32.4704 27.5692 32.4225 27.6838C32.3746 27.7985 32.3044 27.9025 32.216 27.9898L27.824 32.3198C27.6498 32.4915 27.4155 32.5884 27.171 32.5898ZM21.216 30.7138H26.787L30.626 26.9288V21.3738L26.786 17.5898H21.216L17.377 21.3748V26.9308L21.216 30.7138Z" fill="white"/>
<path d="M24.0015 28.8398C22.7587 28.8385 21.5672 28.3443 20.6884 27.4657C19.8095 26.587 19.3151 25.3956 19.3135 24.1528C19.3148 22.9099 19.8091 21.7183 20.688 20.8394C21.5669 19.9605 22.7586 19.4662 24.0015 19.4648C25.2441 19.4664 26.4353 19.9607 27.3139 20.8394C28.1926 21.718 28.6869 22.9093 28.6885 24.1518C28.6872 25.3946 28.193 26.5861 27.3143 27.465C26.4356 28.3438 25.2442 28.8383 24.0015 28.8398ZM24.0015 21.3398C23.256 21.3409 22.5414 21.6375 22.0143 22.1646C21.4871 22.6918 21.1905 23.4064 21.1895 24.1518C21.1903 24.8977 21.4869 25.6127 22.0143 26.1401C22.5416 26.6674 23.2567 26.964 24.0025 26.9648C24.7481 26.9641 25.463 26.6676 25.9903 26.1404C26.5177 25.6133 26.8144 24.8985 26.8155 24.1528C26.8147 23.4069 26.5179 22.6917 25.9903 22.1643C25.4627 21.6369 24.7475 21.3404 24.0015 21.3398Z" fill="white"/>
<path d="M12.688 32.5898H5.188C5.06487 32.59 4.94291 32.5658 4.82912 32.5188C4.71532 32.4718 4.61191 32.4028 4.5248 32.3157C4.43768 32.2287 4.36858 32.1254 4.32143 32.0116C4.27428 31.8979 4.25 31.776 4.25 31.6528V9.15282C4.25 9.02969 4.27428 8.90776 4.32143 8.79402C4.36858 8.68027 4.43768 8.57693 4.5248 8.48991C4.61191 8.40289 4.71532 8.33389 4.82912 8.28686C4.94291 8.23983 5.06487 8.21569 5.188 8.21582C5.4366 8.21582 5.67503 8.31451 5.85091 8.4902C6.02679 8.6659 6.12574 8.90422 6.12601 9.15282V30.7148H11.751V9.15282C11.751 9.02969 11.7753 8.90776 11.8224 8.79402C11.8696 8.68027 11.9387 8.57693 12.0258 8.48991C12.1129 8.40289 12.2163 8.33389 12.3301 8.28686C12.4439 8.23983 12.5659 8.21569 12.689 8.21582C12.9376 8.21582 13.176 8.31451 13.3519 8.4902C13.5278 8.6659 13.6267 8.90422 13.627 9.15282V31.6528C13.6269 31.776 13.6025 31.8979 13.5552 32.0117C13.508 32.1255 13.4388 32.2288 13.3516 32.3158C13.2644 32.4028 13.1609 32.4718 13.047 32.5188C12.9332 32.5658 12.8112 32.59 12.688 32.5898Z" fill="white"/>
<path d="M7.06204 0.589844C7.31064 0.589844 7.54907 0.688531 7.72495 0.864223C7.90083 1.03992 7.99978 1.27824 8.00005 1.52684V2.46384H9.87505V1.52684C9.87505 1.4038 9.89928 1.28195 9.94637 1.16827C9.99346 1.05459 10.0625 0.951293 10.1495 0.864285C10.2365 0.777276 10.3398 0.708258 10.4535 0.661169C10.5671 0.61408 10.689 0.589844 10.812 0.589844C12.5602 0.599897 14.233 1.30312 15.4632 2.54518C16.6935 3.78724 17.3807 5.46665 17.374 7.21484V9.15184C17.374 9.40035 17.2753 9.63868 17.0996 9.8144C16.9239 9.99012 16.6856 10.0888 16.437 10.0888H1.43704C1.314 10.0888 1.19214 10.0646 1.07846 10.0175C0.964781 9.97043 0.861486 9.90141 0.774477 9.8144C0.687469 9.72739 0.618456 9.6241 0.571367 9.51042C0.524279 9.39674 0.500048 9.27489 0.500048 9.15184V7.21484C0.493397 5.46665 1.1806 3.78724 2.41084 2.54518C3.64109 1.30312 5.31387 0.599897 7.06204 0.589844ZM10.812 4.33984H7.06204C6.81362 4.33958 6.57543 4.24078 6.39977 4.06511C6.2241 3.88945 6.12531 3.65127 6.12505 3.40284V2.56084C5.06077 2.78871 4.10724 3.37567 3.42444 4.22325C2.74164 5.07083 2.37112 6.12745 2.37505 7.21584V8.21584H15.499V7.21584C15.503 6.12745 15.1324 5.07083 14.4496 4.22325C13.7668 3.37567 12.8133 2.78871 11.749 2.56084V3.40284C11.749 3.65135 11.6503 3.88968 11.4746 4.0654C11.2989 4.24112 11.0606 4.33984 10.812 4.33984Z" fill="white"/>
<path d="M12.688 13.8398H5.188C4.9394 13.8398 4.70097 13.7412 4.52509 13.5655C4.34921 13.3898 4.25027 13.1514 4.25 12.9028C4.25 12.6541 4.34883 12.4155 4.52473 12.2396C4.70064 12.0637 4.93923 11.9648 5.188 11.9648H12.688C12.9368 11.9648 13.1754 12.0637 13.3513 12.2396C13.5272 12.4155 13.626 12.6541 13.626 12.9028C13.6257 13.1514 13.5268 13.3898 13.3509 13.5655C13.175 13.7412 12.9366 13.8398 12.688 13.8398Z" fill="white"/>
<path d="M12.688 17.5898H5.188C4.9394 17.5898 4.70097 17.4912 4.52509 17.3155C4.34921 17.1398 4.25027 16.9014 4.25 16.6528C4.25 16.4041 4.34883 16.1655 4.52473 15.9896C4.70064 15.8137 4.93923 15.7148 5.188 15.7148H12.688C12.9368 15.7148 13.1754 15.8137 13.3513 15.9896C13.5272 16.1655 13.626 16.4041 13.626 16.6528C13.6257 16.9014 13.5268 17.1398 13.3509 17.3155C13.175 17.4912 12.9366 17.5898 12.688 17.5898Z" fill="white"/>
<path d="M12.688 21.3398H5.188C4.9394 21.3398 4.70097 21.2412 4.52509 21.0655C4.34921 20.8898 4.25027 20.6514 4.25 20.4028C4.25 20.1541 4.34883 19.9155 4.52473 19.7396C4.70064 19.5637 4.93923 19.4648 5.188 19.4648H12.688C12.9368 19.4648 13.1754 19.5637 13.3513 19.7396C13.5272 19.9155 13.626 20.1541 13.626 20.4028C13.6257 20.6514 13.5268 20.8898 13.3509 21.0655C13.175 21.2412 12.9366 21.3398 12.688 21.3398Z" fill="white"/>
<path d="M12.688 25.0898H5.188C4.9394 25.0898 4.70097 24.9912 4.52509 24.8155C4.34921 24.6398 4.25027 24.4014 4.25 24.1528C4.25 23.9041 4.34883 23.6655 4.52473 23.4896C4.70064 23.3137 4.93923 23.2148 5.188 23.2148H12.688C12.9368 23.2148 13.1754 23.3137 13.3513 23.4896C13.5272 23.6655 13.626 23.9041 13.626 24.1528C13.6257 24.4014 13.5268 24.6398 13.3509 24.8155C13.175 24.9912 12.9366 25.0898 12.688 25.0898Z" fill="white"/>
<path d="M8.938 28.8398H5.188C4.9394 28.8398 4.70097 28.7412 4.52509 28.5655C4.34921 28.3898 4.25027 28.1514 4.25 27.9028C4.24987 27.7796 4.27404 27.6576 4.32113 27.5437C4.36823 27.4299 4.43731 27.3264 4.52444 27.2393C4.61157 27.1522 4.71503 27.0831 4.82889 27.036C4.94275 26.9889 5.06478 26.9647 5.188 26.9648H8.938C9.06122 26.9647 9.18325 26.9889 9.29711 27.036C9.41098 27.0831 9.51443 27.1522 9.60156 27.2393C9.68869 27.3264 9.75777 27.4299 9.80487 27.5437C9.85196 27.6576 9.87613 27.7796 9.876 27.9028C9.87574 28.1514 9.77679 28.3898 9.60091 28.5655C9.42503 28.7412 9.1866 28.8398 8.938 28.8398Z" fill="white"/>
</g>
</g>
</g>
</g>
<defs>
<clipPath id="clip0_266_10667">
<rect width="32" height="32" fill="white" transform="translate(0.5 0.589844)"/>
</clipPath>
<clipPath id="clip1_266_10667">
<rect width="32" height="32" fill="white" transform="translate(0.5 0.589844)"/>
</clipPath>
<clipPath id="clip2_266_10667">
<rect width="32" height="32" fill="white" transform="translate(0.5 0.589844)"/>
</clipPath>
</defs>
</svg>
