<svg width="33" height="33" viewBox="0 0 33 33" fill="none" xmlns="http://www.w3.org/2000/svg">
<g clip-path="url(#clip0_266_10628)">
<g clip-path="url(#clip1_266_10628)">
<g clip-path="url(#clip2_266_10628)">
<path d="M5.4512 30.5809C5.20249 30.5807 4.96407 30.4819 4.78829 30.3059C4.61251 30.13 4.51373 29.8911 4.51373 29.6424V22.547H1.43649C1.31331 22.547 1.19129 22.5229 1.07749 22.4757C0.963701 22.4285 0.860322 22.3592 0.773261 22.272C0.686199 22.1849 0.617178 22.0814 0.570118 21.9676C0.523059 21.8537 0.498909 21.7321 0.499024 21.6089V7.55054C0.50018 6.2374 1.02207 4.97848 1.95027 4.04962C2.87847 3.12076 4.1372 2.59779 5.45034 2.5957H23.0118C23.9258 2.59686 24.802 2.9606 25.448 3.60725C26.094 4.25391 26.4569 5.13049 26.4572 6.04454C26.4564 6.88296 26.1503 7.69245 25.5963 8.3217C25.0422 8.95094 24.2779 9.35703 23.4463 9.46391V29.6415C23.4466 29.89 23.3482 30.1287 23.1727 30.3046C22.9973 30.4806 22.7592 30.5796 22.5107 30.5801L5.4512 30.5809ZM6.38781 28.7051H21.5741V9.49251H6.38781V28.7051ZM2.37385 7.55054V20.6678H4.51458V8.55185C4.51458 8.30322 4.61344 8.06453 4.78925 7.88872C4.96505 7.71292 5.20342 7.61417 5.45205 7.61417H5.95313C6.15984 7.61417 6.36454 7.57371 6.55551 7.49461C6.74649 7.4155 6.92003 7.29961 7.0662 7.15344C7.21236 7.00727 7.32826 6.83373 7.40736 6.64275C7.48647 6.45178 7.52724 6.24698 7.52724 6.04027C7.52724 5.6228 7.36139 5.22229 7.0662 4.92709C6.771 4.6319 6.3706 4.46636 5.95313 4.46636H5.45205C5.04728 4.46671 4.64661 4.5464 4.2728 4.70164C3.89899 4.85688 3.55935 5.08424 3.27342 5.37074C2.98749 5.65724 2.76085 5.99749 2.60635 6.37161C2.45185 6.74573 2.37254 7.14663 2.37299 7.5514L2.37385 7.55054ZM9.39865 6.04454C9.39911 6.59204 9.26863 7.13199 9.0182 7.61886H23.0099C23.4274 7.61886 23.8278 7.45291 24.123 7.15771C24.4182 6.86251 24.5841 6.46201 24.5841 6.04454C24.5841 5.62707 24.4182 5.22698 24.123 4.93179C23.8278 4.63659 23.4274 4.47063 23.0099 4.47063H9.0182C9.26847 4.95785 9.39867 5.49766 9.3978 6.04539L9.39865 6.04454ZM28.7055 29.557L26.6942 25.5291C26.629 25.3985 26.5952 25.2545 26.5953 25.1085V11.0109C26.596 10.2278 26.9074 9.47671 27.461 8.9229C28.0147 8.3691 28.7654 8.05789 29.5485 8.05696C30.3317 8.05789 31.0825 8.36912 31.6363 8.9229C32.1901 9.47669 32.5015 10.2277 32.5025 11.0109V25.1085C32.5026 25.2545 32.4688 25.3985 32.4037 25.5291L30.3924 29.557C30.3141 29.7131 30.194 29.8444 30.0454 29.9361C29.8969 30.0279 29.7257 30.0762 29.5511 30.0762C29.3759 30.0774 29.2038 30.0298 29.0544 29.9383C28.9049 29.8468 28.7841 29.7153 28.7055 29.5587V29.557ZM28.4729 24.8861L29.5458 27.0339L30.6197 24.8861V14.9721H28.4721L28.4729 24.8861ZM28.4729 11.0109V13.0921H30.6206V11.0109C30.6201 10.7263 30.5069 10.4533 30.3056 10.2521C30.1043 10.051 29.8313 9.9381 29.5467 9.93787C29.2618 9.9381 28.9888 10.0515 28.7874 10.253C28.586 10.4545 28.4729 10.7277 28.4729 11.0126V11.0109ZM9.46249 25.5595C9.21332 25.5595 8.97436 25.4606 8.79808 25.2845C8.62181 25.1084 8.52258 24.8697 8.52235 24.6205C8.52224 24.497 8.54647 24.3747 8.59366 24.2605C8.64085 24.1464 8.71014 24.0426 8.79744 23.9552C8.88475 23.8679 8.98842 23.7984 9.10253 23.7511C9.21664 23.7038 9.33896 23.6794 9.46249 23.6794H18.5248C18.6483 23.6794 18.7705 23.7038 18.8846 23.7511C18.9988 23.7984 19.1024 23.8679 19.1897 23.9552C19.277 24.0426 19.3463 24.1464 19.3935 24.2605C19.4407 24.3747 19.4649 24.497 19.4648 24.6205C19.4646 24.8697 19.3655 25.1084 19.1892 25.2845C19.0129 25.4606 18.774 25.5595 18.5248 25.5595H9.46249ZM9.46249 21.544C9.21316 21.544 8.97406 21.4449 8.79776 21.2686C8.62147 21.0923 8.52235 20.8531 8.52235 20.6038C8.52235 20.3544 8.62138 20.1154 8.79766 19.9389C8.97393 19.7625 9.21308 19.6633 9.46249 19.6631H18.5248C18.7742 19.6633 19.0133 19.7625 19.1895 19.9389C19.3658 20.1154 19.4648 20.3544 19.4648 20.6038C19.4648 20.8531 19.3658 21.0923 19.1895 21.2686C19.0132 21.4449 18.7741 21.544 18.5248 21.544H9.46249ZM9.46249 17.5277C9.21316 17.5277 8.97406 17.4286 8.79776 17.2523C8.62147 17.076 8.52235 16.8368 8.52235 16.5875C8.52258 16.3383 8.62181 16.0992 8.79808 15.923C8.97436 15.7469 9.21332 15.6481 9.46249 15.6481H18.5248C18.774 15.6481 19.0129 15.7469 19.1892 15.923C19.3655 16.0992 19.4646 16.3383 19.4648 16.5875C19.4648 16.8368 19.3658 17.076 19.1895 17.2523C19.0132 17.4286 18.7741 17.5277 18.5248 17.5277H9.46249ZM9.46249 13.5127C9.21308 13.5124 8.97393 13.4133 8.79766 13.2368C8.62138 13.0604 8.52235 12.821 8.52235 12.5716C8.52258 12.3223 8.62173 12.0834 8.79798 11.9072C8.97422 11.7309 9.21324 11.632 9.46249 11.6318H18.5248C18.774 11.632 19.013 11.7309 19.1892 11.9072C19.3654 12.0834 19.4646 12.3223 19.4648 12.5716C19.4648 12.821 19.3658 13.0604 19.1895 13.2368C19.0133 13.4133 18.7742 13.5124 18.5248 13.5127H9.46249Z" fill="white"/>
</g>
</g>
</g>
<defs>
<clipPath id="clip0_266_10628">
<rect width="32" height="32" fill="white" transform="translate(0.5 0.589844)"/>
</clipPath>
<clipPath id="clip1_266_10628">
<rect width="32" height="32" fill="white" transform="translate(0.5 0.589844)"/>
</clipPath>
<clipPath id="clip2_266_10628">
<rect width="32" height="27.9844" fill="white" transform="translate(0.5 2.59766)"/>
</clipPath>
</defs>
</svg>
