<svg width="33" height="33" viewBox="0 0 33 33" fill="none" xmlns="http://www.w3.org/2000/svg">
<g clip-path="url(#clip0_266_10637)">
<g clip-path="url(#clip1_266_10637)">
<g clip-path="url(#clip2_266_10637)">
<path d="M3.41134 32.3155L0.759509 29.6638C0.625801 29.5299 0.535677 29.3588 0.500977 29.1728V28.8303C0.535917 28.6442 0.625993 28.4728 0.759509 28.3385L3.56039 25.5383L0.837839 22.8151C0.726669 22.7038 0.645246 22.5664 0.6011 22.4154C0.556954 22.2644 0.551462 22.1048 0.585167 21.9512C0.619104 21.7979 0.690795 21.6552 0.79374 21.5367C0.896685 21.4182 1.02768 21.3274 1.1747 21.2723L8.38399 18.6128C8.22061 17.9515 8.1383 17.2729 8.13893 16.5918C8.14138 14.3547 9.03114 12.2099 10.613 10.628C12.1949 9.0461 14.3396 8.15634 16.5767 8.15389C18.8139 8.15612 20.9589 9.04605 22.5409 10.628C24.1228 12.2099 25.0124 14.3546 25.0146 16.5918C25.0124 18.829 24.1228 20.9741 22.5409 22.556C20.9589 24.138 18.8139 25.0275 16.5767 25.0297C15.8635 25.03 15.153 24.9404 14.4622 24.7629L11.7507 31.8644C11.6947 32.0104 11.6032 32.1398 11.4843 32.2415C11.3655 32.3431 11.2232 32.4136 11.0703 32.4462C10.9174 32.4794 10.7587 32.4735 10.6086 32.4294C10.4585 32.3852 10.3219 32.304 10.2113 32.1934L7.53593 29.5182L4.73515 32.318C4.6482 32.4051 4.54481 32.4744 4.43108 32.5215C4.31734 32.5686 4.19542 32.5928 4.07232 32.5926C3.94932 32.5922 3.82772 32.5674 3.71428 32.5198C3.60084 32.4723 3.49788 32.4029 3.41134 32.3155ZM13.5671 18.7004C13.5137 18.7337 13.4574 18.762 13.3987 18.7846C13.336 18.8087 13.2708 18.8254 13.2042 18.8344L10.1229 19.9713C10.0509 20.0265 9.97114 20.0705 9.88626 20.1025C9.79767 20.1347 9.70494 20.1546 9.61087 20.1609L3.20163 22.5252L5.55196 24.8747C5.63912 24.962 5.70819 25.0658 5.75529 25.1798C5.8024 25.2938 5.82656 25.4158 5.82643 25.5392C5.82633 25.7877 5.72766 26.0262 5.55196 26.202L2.75108 29.003L4.07653 30.3282L6.87742 27.5272C6.96439 27.4401 7.06766 27.3713 7.18138 27.3241C7.2951 27.277 7.41703 27.2526 7.54014 27.2526C7.66325 27.2526 7.78518 27.277 7.8989 27.3241C8.01262 27.3713 8.11589 27.4401 8.20287 27.5272L10.5178 29.8422L14.9692 18.1851L13.5671 18.7004ZM15.1376 22.9952C15.6105 23.1012 16.0938 23.1543 16.5785 23.1535C18.3186 23.1521 19.9871 22.4604 21.2177 21.23C22.4482 19.9996 23.1402 18.3311 23.1418 16.591C23.1402 14.8508 22.4482 13.1824 21.2177 11.952C19.9871 10.7216 18.3186 10.0298 16.5785 10.0285C14.8386 10.03 13.1705 10.7218 11.9401 11.952C10.7098 13.1822 10.0178 14.8503 10.016 16.5902C10.0156 17.0503 10.0635 17.5093 10.1591 17.9594L11.9443 17.3011C11.9093 17.0658 11.8916 16.828 11.8913 16.5902C11.8931 15.3476 12.3875 14.1563 13.2661 13.2777C14.1447 12.399 15.3359 11.9048 16.5785 11.9031C17.8213 11.9044 19.0129 12.3986 19.8919 13.2772C20.7709 14.1559 21.2655 15.3473 21.2673 16.5902C21.2658 17.8332 20.7712 19.0246 19.8922 19.9035C19.0132 20.7823 17.8215 21.2767 16.5785 21.2781C16.3232 21.278 16.0683 21.2577 15.8164 21.2168L15.1376 22.9952ZM17.2429 15.9314C17.3695 16.0597 17.4566 16.2218 17.4938 16.3981C17.531 16.5745 17.5166 16.7577 17.4526 16.9261L16.5069 19.4027H16.5759C17.3218 19.4015 18.0367 19.1048 18.5641 18.5774C19.0915 18.05 19.3883 17.3352 19.3894 16.5893C19.3883 15.8436 19.0914 15.1288 18.564 14.6017C18.0366 14.0745 17.3216 13.7783 16.5759 13.7777C15.8305 13.7785 15.1158 14.075 14.5887 14.6021C14.0615 15.1292 13.765 15.8439 13.7641 16.5893V16.628L16.2526 15.711C16.3563 15.672 16.466 15.6522 16.5767 15.6522C16.7009 15.6522 16.8239 15.6765 16.9385 15.7242C17.0531 15.7719 17.1572 15.8417 17.2446 15.9298L17.2429 15.9314ZM26.5204 27.8607L23.8686 25.209C23.693 25.0331 23.5944 24.7951 23.5944 24.5466C23.5944 24.2981 23.693 24.0596 23.8686 23.8837C24.0446 23.7081 24.2831 23.6095 24.5317 23.6095C24.7804 23.6095 25.0188 23.7081 25.1949 23.8837L27.8459 26.5355C27.933 26.6224 28.0021 26.7256 28.0493 26.8393C28.0965 26.9531 28.1207 27.0752 28.1207 27.1983C28.1207 27.3214 28.0965 27.4431 28.0493 27.5568C28.0021 27.6706 27.933 27.7737 27.8459 27.8607C27.7589 27.9479 27.6556 28.0171 27.5419 28.0642C27.4282 28.1114 27.3062 28.1355 27.1831 28.1354C27.0601 28.1352 26.9382 28.1108 26.8246 28.0634C26.711 28.016 26.6079 27.9464 26.5212 27.8591L26.5204 27.8607ZM27.7482 17.5293C27.625 17.5293 27.503 17.5049 27.3892 17.4578C27.2755 17.4106 27.1721 17.3413 27.0851 17.2542C26.998 17.1671 26.9291 17.0638 26.882 16.9499C26.835 16.8361 26.8108 16.7141 26.8109 16.591C26.8109 16.3424 26.9096 16.1039 27.0854 15.9281C27.2611 15.7524 27.4996 15.6539 27.7482 15.6539H31.5604C31.6836 15.6536 31.8057 15.6773 31.9197 15.7242C32.0336 15.7711 32.1372 15.8399 32.2245 15.9269C32.3117 16.0139 32.381 16.1174 32.4283 16.2312C32.4756 16.345 32.5 16.4669 32.5002 16.5902C32.5002 16.839 32.4013 17.0775 32.2254 17.2534C32.0495 17.4293 31.8108 17.5281 31.562 17.5281L27.7482 17.5293ZM23.8678 9.29986C23.6922 9.12398 23.5936 8.88594 23.5936 8.63744C23.5936 8.38893 23.6922 8.15049 23.8678 7.97461L26.5195 5.32288C26.6064 5.23565 26.7097 5.16616 26.8234 5.11894C26.9372 5.07171 27.0592 5.04739 27.1823 5.04739C27.3055 5.04739 27.4273 5.07171 27.5411 5.11894C27.6548 5.16616 27.7581 5.23565 27.845 5.32288C27.9322 5.40986 28.0012 5.51303 28.0484 5.62675C28.0955 5.74047 28.1198 5.8626 28.1198 5.98571C28.1198 6.10882 28.0955 6.23054 28.0484 6.34426C28.0012 6.45798 27.9322 6.56115 27.845 6.64813L25.194 9.29986C25.018 9.47568 24.7793 9.57456 24.5305 9.57453C24.2826 9.57332 24.0451 9.47391 23.8702 9.29821L23.8678 9.29986ZM7.9578 9.29986L5.3069 6.64813C5.21977 6.56115 5.15063 6.45798 5.10346 6.34426C5.0563 6.23054 5.03202 6.10882 5.03202 5.98571C5.03202 5.8626 5.0563 5.74047 5.10346 5.62675C5.15063 5.51303 5.21977 5.40986 5.3069 5.32288C5.39382 5.23565 5.49714 5.16616 5.61087 5.11894C5.72459 5.07171 5.84648 5.04739 5.96962 5.04739C6.09277 5.04739 6.21465 5.07171 6.32838 5.11894C6.44211 5.16616 6.54543 5.23565 6.63235 5.32288L9.28418 7.97461C9.45953 8.1506 9.55793 8.389 9.55793 8.63744C9.55793 8.88588 9.45953 9.12387 9.28418 9.29986C9.10836 9.47555 8.87001 9.57443 8.62145 9.57453C8.37326 9.57345 8.13556 9.47403 7.96037 9.29821L7.9578 9.29986ZM15.621 5.34221V1.53012C15.621 1.28132 15.7198 1.0424 15.8957 0.866468C16.0716 0.690539 16.3103 0.591797 16.5591 0.591797C16.6822 0.591797 16.8043 0.616188 16.918 0.663343C17.0318 0.710497 17.1351 0.779346 17.2222 0.866468C17.3092 0.95359 17.3782 1.05734 17.4252 1.17116C17.4723 1.28497 17.4965 1.40697 17.4964 1.53012V5.34221C17.4965 5.46532 17.4723 5.587 17.4252 5.70076C17.3782 5.81453 17.3091 5.91798 17.2221 6.00504C17.135 6.09209 17.0317 6.1611 16.9179 6.20816C16.8042 6.25523 16.6822 6.27941 16.5591 6.2793C16.3106 6.27841 16.0728 6.1792 15.8977 6.00298C15.7226 5.82676 15.6246 5.58817 15.6253 5.33974L15.621 5.34221Z" fill="white"/>
</g>
</g>
</g>
<defs>
<clipPath id="clip0_266_10637">
<rect width="32" height="32" fill="white" transform="translate(0.5 0.589844)"/>
</clipPath>
<clipPath id="clip1_266_10637">
<rect width="32" height="32" fill="white" transform="translate(0.5 0.589844)"/>
</clipPath>
<clipPath id="clip2_266_10637">
<rect width="32" height="32" fill="white" transform="translate(0.5 0.589844)"/>
</clipPath>
</defs>
</svg>
