<svg width="76" height="77" viewBox="0 0 76 77" fill="none" xmlns="http://www.w3.org/2000/svg">
<g clip-path="url(#clip0_266_10480)">
<g clip-path="url(#clip1_266_10480)">
<g clip-path="url(#clip2_266_10480)">
<path d="M37.9994 76.5966C34.6095 76.5966 31.8886 74.8968 29.6997 73.5308C28.7939 72.9037 27.8213 72.3789 26.7998 71.9659C25.6451 71.6983 24.4643 71.5591 23.279 71.5509H23.267C20.5781 71.4079 17.5312 71.2439 14.8773 69.384C12.1604 67.4951 10.9894 64.584 10.0475 62.2461C9.68744 61.2085 9.20755 60.2165 8.61755 59.2902C7.87433 58.4623 7.04008 57.7211 6.13065 57.0803L6.12064 57.0735C4.08872 55.4925 1.55982 53.5253 0.49586 50.3965C-0.550099 47.3256 0.276853 44.3147 0.941826 41.8968V41.8841C1.29122 40.8186 1.51407 39.7156 1.6058 38.5981C1.5151 37.4862 1.29431 36.3887 0.947869 35.3282L0.939873 35.2984C0.2749 32.8795 -0.552098 29.8687 0.49586 26.7988C1.55682 23.6749 4.08573 21.7086 6.11765 20.1276L6.14163 20.1086C7.04152 19.4741 7.86737 18.741 8.60357 17.9222C9.20079 16.9904 9.68546 15.9911 10.0475 14.9452C10.9844 12.6123 12.1474 9.70714 14.8633 7.81222C17.5312 5.96629 20.7041 5.79358 23.254 5.65459C24.45 5.64528 25.6413 5.50276 26.8059 5.23029C27.8295 4.81807 28.8041 4.29325 29.7117 3.66541C31.8946 2.30046 34.6115 0.601562 37.9924 0.601562C41.3732 0.601562 44.0822 2.2947 46.2641 3.65564L46.2801 3.66541C47.1849 4.29348 48.1577 4.81746 49.18 5.22736C50.3386 5.49858 51.5239 5.63967 52.7138 5.64824C55.2687 5.78323 58.4486 5.94836 61.1135 7.80929C63.8274 9.70921 64.9933 12.609 65.9303 14.936C66.2902 15.9795 66.7718 16.9772 67.3652 17.908C68.1084 18.7343 68.9423 19.4743 69.8512 20.114L69.8611 20.1218C71.9 21.7037 74.4389 23.6738 75.4929 26.8217C76.5329 29.8776 75.7069 32.8854 75.0429 35.3023V35.316C74.6929 36.3824 74.4698 37.4864 74.378 38.6049C74.4697 39.7228 74.6926 40.8261 75.0419 41.8919V41.9041C75.7069 44.326 76.5329 47.3368 75.4849 50.4087C74.4419 53.5286 71.9021 55.5003 69.8621 57.0842L69.8512 57.0925C68.947 57.7282 68.1172 58.4633 67.3773 59.2843C66.7803 60.2156 66.2962 61.2146 65.9353 62.2603C64.9983 64.5942 63.8353 67.4978 61.1194 69.3938C58.4506 71.2507 55.2697 71.4198 52.7138 71.5558C51.5301 71.5645 50.3509 71.7043 49.1979 71.9728C48.1704 72.3881 47.1917 72.9147 46.2791 73.5435C44.1022 74.9045 41.3823 76.5966 37.9994 76.5966ZM37.9994 2.86368C35.2685 2.86368 33.0586 4.24538 30.9217 5.58232C29.8543 6.32333 28.7001 6.93062 27.4848 7.39036C26.1436 7.72593 24.7674 7.90112 23.385 7.91231C20.9971 8.0423 18.2971 8.19016 16.1602 9.6681C14.0053 11.173 13.0604 13.5182 12.1544 15.7841C11.7251 17.0202 11.1393 18.1964 10.4115 19.2839C9.56249 20.2639 8.59742 21.137 7.53757 21.8839L7.51456 21.902C5.53464 23.4429 3.48877 25.0336 2.6458 27.5155C1.82283 29.9304 2.48681 32.3492 3.12979 34.6891L3.13876 34.7203C3.54727 35.9732 3.79522 37.273 3.87671 38.5883C3.79419 39.9103 3.54387 41.2161 3.13174 42.4749V42.4881C2.48877 44.827 1.82483 47.2458 2.6458 49.6577C3.49077 52.1436 5.53768 53.7357 7.5156 55.2757L7.52561 55.2835C8.59569 56.0373 9.56951 56.9191 10.4255 57.9094C11.1458 58.9914 11.726 60.1603 12.1524 61.3882C13.0673 63.6621 14.0133 66.012 16.1772 67.5159C18.3032 69.0059 20.8891 69.1441 23.39 69.2781H23.401C24.7754 69.2886 26.1439 69.4611 27.4778 69.7927C28.6881 70.2555 29.8382 70.8623 30.9037 71.5997C33.0446 72.9367 35.2595 74.3208 38.0034 74.3208C40.7473 74.3208 42.9512 72.9405 45.0921 71.6056C46.1642 70.8679 47.3199 70.2596 48.535 69.7937C49.8677 69.4607 51.2352 69.2872 52.6088 69.2761C54.9957 69.1491 57.7016 69.0048 59.8386 67.5179C61.9955 66.0109 62.9384 63.6673 63.8474 61.4004C64.2758 60.164 64.8612 58.9878 65.5893 57.9006C66.442 56.9165 67.4118 56.04 68.4772 55.2913L68.4872 55.2825C70.4731 53.7406 72.526 52.1468 73.354 49.6719C74.179 47.253 73.515 44.8348 72.873 42.4959V42.4798C72.4608 41.221 72.2105 39.9152 72.128 38.5932C72.2105 37.2702 72.4612 35.9629 72.874 34.7032V34.6935C73.517 32.3516 74.181 29.9344 73.364 27.5365V27.5307C72.5291 25.0308 70.4761 23.4429 68.4912 21.903L68.4812 21.8947C67.4113 21.1417 66.4375 20.2608 65.5813 19.2717C64.8574 18.1861 64.2754 17.0126 63.8494 15.7792C62.9364 13.5083 61.9955 11.1663 59.8365 9.65833C57.7016 8.17039 54.9977 8.02754 52.6118 7.90254C51.2343 7.89128 49.8632 7.7164 48.527 7.38157C47.3128 6.92406 46.1593 6.3193 45.0921 5.58135L45.0771 5.57256C42.9382 4.24561 40.7263 2.86759 37.9994 2.86759V2.86368Z" fill="#2C2C2C"/>
<path d="M37.9969 57.8334C32.8977 57.8276 28.0091 55.7992 24.4034 52.1935C20.7977 48.5879 18.7695 43.6995 18.7637 38.6003C18.7695 33.5011 20.7977 28.6123 24.4034 25.0066C28.0091 21.4009 32.8977 19.373 37.9969 19.3672C42.4221 19.3701 46.7115 20.8956 50.1445 23.6878C50.2705 23.7906 50.375 23.9172 50.4521 24.0604C50.5292 24.2035 50.5773 24.3605 50.5938 24.5223C50.6102 24.684 50.5946 24.8475 50.5479 25.0032C50.5012 25.1589 50.4242 25.3039 50.3214 25.4299C50.2187 25.5559 50.0921 25.6604 49.949 25.7375C49.8058 25.8146 49.6489 25.8627 49.4871 25.8791C49.3254 25.8956 49.162 25.88 49.0063 25.8332C48.8505 25.7865 48.7055 25.7095 48.5795 25.6067C45.5886 23.1747 41.8518 21.8458 37.9969 21.8437C33.5541 21.8487 29.2948 23.616 26.1533 26.7575C23.0118 29.899 21.2446 34.1585 21.2396 38.6013C21.2446 43.044 23.0118 47.3032 26.1533 50.4446C29.2949 53.5859 33.5542 55.3527 37.9969 55.3575C42.4396 55.3527 46.699 53.5859 49.8405 50.4446C52.9821 47.3032 54.7492 43.044 54.7543 38.6013C54.7548 37.3985 54.6267 36.1989 54.3723 35.0233C54.3377 34.8644 54.3348 34.7004 54.3636 34.5404C54.3925 34.3804 54.4527 34.2275 54.5406 34.0907C54.6286 33.9539 54.7426 33.8358 54.8762 33.7431C55.0098 33.6504 55.1603 33.5847 55.3192 33.5502C55.4781 33.5157 55.6423 33.513 55.8023 33.5419C55.9623 33.5708 56.1151 33.6307 56.2519 33.7187C56.3887 33.8066 56.5068 33.9205 56.5995 34.0541C56.6922 34.1877 56.7577 34.3385 56.7922 34.4974C57.0841 35.8445 57.2313 37.219 57.2311 38.5974C57.2261 43.6973 55.1981 48.5867 51.5921 52.193C47.9862 55.7994 43.0968 57.8279 37.9969 57.8334Z" fill="#2C2C2C"/>
<path d="M37.2352 43.1439L30.7765 35.5871C30.6708 35.4635 30.5905 35.3208 30.5402 35.1662C30.4899 35.0116 30.4706 34.8483 30.4833 34.6862C30.496 34.5242 30.5406 34.3662 30.6144 34.2214C30.6882 34.0766 30.7899 33.948 30.9135 33.8425C31.0371 33.7368 31.1802 33.6561 31.3348 33.6057C31.4894 33.5553 31.6525 33.5359 31.8146 33.5486C31.9767 33.5612 32.1348 33.6057 32.2798 33.6794C32.4247 33.7532 32.5537 33.8546 32.6594 33.9782L37.5592 39.7109L55.2435 25.5318C55.4996 25.3265 55.8268 25.2314 56.153 25.2672C56.4793 25.303 56.778 25.4667 56.9835 25.7227C57.0853 25.8495 57.1611 25.9953 57.2067 26.1514C57.2522 26.3076 57.2664 26.4712 57.2487 26.6328C57.231 26.7945 57.1816 26.9512 57.1033 27.0938C57.025 27.2363 56.9193 27.3616 56.7924 27.4634L37.2352 43.1439Z" fill="#2C2C2C"/>
</g>
</g>
</g>
<defs>
<clipPath id="clip0_266_10480">
<rect width="76" height="76" fill="white" transform="translate(0 0.599609)"/>
</clipPath>
<clipPath id="clip1_266_10480">
<rect width="76" height="76" fill="white" transform="translate(0 0.599609)"/>
</clipPath>
<clipPath id="clip2_266_10480">
<rect width="75.997" height="76" fill="white" transform="translate(0.00195312 0.599609)"/>
</clipPath>
</defs>
</svg>
