<svg width="33" height="33" viewBox="0 0 33 33" fill="none" xmlns="http://www.w3.org/2000/svg">
<g clip-path="url(#clip0_266_10699)">
<g clip-path="url(#clip1_266_10699)">
<g clip-path="url(#clip2_266_10699)">
<path d="M12.1924 29.5503C12.0609 29.5503 11.9308 29.5243 11.8093 29.474C11.6878 29.4237 11.5775 29.3502 11.4845 29.2572C11.3915 29.1643 11.3178 29.0536 11.2674 28.9321C11.2171 28.8106 11.1912 28.6807 11.1912 28.5492C11.1912 28.4178 11.2171 28.2875 11.2674 28.166C11.3178 28.0445 11.3915 27.9342 11.4845 27.8412C11.5775 27.7483 11.6878 27.6744 11.8093 27.6241C11.9308 27.5738 12.0609 27.5478 12.1924 27.5478H20.8097C21.0752 27.5478 21.3299 27.6535 21.5177 27.8412C21.7055 28.029 21.8109 28.2837 21.8109 28.5492C21.8109 28.8148 21.7055 29.0695 21.5177 29.2572C21.3299 29.445 21.0752 29.5503 20.8097 29.5503H12.1924ZM8.24342 25.3186C7.97788 25.3186 7.72329 25.2132 7.53552 25.0255C7.34776 24.8377 7.24224 24.583 7.24224 24.3175C7.24224 24.0519 7.34776 23.7972 7.53552 23.6095C7.72329 23.4217 7.97788 23.3164 8.24342 23.3164H24.7579C25.0234 23.3164 25.278 23.4217 25.4658 23.6095C25.6535 23.7972 25.7591 24.0519 25.7591 24.3175C25.7591 24.583 25.6535 24.8377 25.4658 25.0255C25.278 25.2132 25.0234 25.3186 24.7579 25.3186H8.24342ZM13.5614 19.7341C13.1616 19.3217 12.8482 18.8339 12.6397 18.2987C12.4312 17.7635 12.3319 17.1918 12.3473 16.6177C12.3628 16.0436 12.4929 15.4785 12.7299 14.9553C12.9669 14.4321 13.306 13.9616 13.7274 13.5713C12.5037 14.135 11.468 15.039 10.7439 16.1751C10.0197 17.3112 9.63758 18.6316 9.6432 19.9789C9.64579 20.2412 9.54426 20.4936 9.36079 20.681C9.17732 20.8684 8.92691 20.9754 8.66466 20.9784H1.48125C1.35126 20.9771 1.22273 20.9502 1.10312 20.8993C0.983511 20.8484 0.875145 20.7746 0.784128 20.6818C0.693111 20.5889 0.621183 20.4788 0.572619 20.3582C0.524055 20.2376 0.499745 20.1089 0.501028 19.9789C0.477071 17.8546 0.872053 15.7463 1.66329 13.7746C2.45453 11.803 3.62656 10.0068 5.11241 8.48838C6.59825 6.96996 8.36872 5.75925 10.3227 4.92545C12.2767 4.09165 14.3759 3.65102 16.5002 3.62891C18.6246 3.65102 20.724 4.09161 22.6781 4.92545C24.6322 5.7593 26.4028 6.96989 27.8887 8.48838C29.3746 10.0069 30.5467 11.8033 31.338 13.775C32.1293 15.7467 32.5242 17.8553 32.5003 19.9797C32.5015 20.1097 32.4772 20.2384 32.4287 20.359C32.3801 20.4796 32.3082 20.5897 32.2172 20.6826C32.1261 20.7754 32.0178 20.8492 31.8982 20.9001C31.7786 20.951 31.65 20.9779 31.52 20.9792H24.3366C24.0744 20.9762 23.824 20.8692 23.6405 20.6818C23.457 20.4944 23.3555 20.242 23.3581 19.9797C23.3605 18.3834 22.8236 16.833 21.8344 15.5802C21.1991 17.0526 20.3958 18.4467 19.4407 19.7349C19.059 20.1287 18.6022 20.4423 18.0972 20.6565C17.5923 20.8706 17.0496 20.981 16.5011 20.9816C15.9524 20.981 15.4094 20.8703 14.9043 20.6561C14.3992 20.4418 13.9431 20.1282 13.5614 19.7341ZM23.3873 14.358C24.4314 15.6918 25.0812 17.291 25.2633 18.9751H30.5092C30.3098 15.8764 29.1136 12.9256 27.0989 10.5629L23.3873 14.358ZM14.9466 15.1436C14.5344 15.5693 14.304 16.1386 14.304 16.7312C14.304 17.3238 14.5344 17.8931 14.9466 18.3189C15.1483 18.5272 15.3899 18.693 15.6569 18.8062C15.924 18.9193 16.2111 18.9778 16.5011 18.9778C16.7911 18.9778 17.0781 18.9193 17.3451 18.8062C17.6122 18.693 17.8538 18.5272 18.0555 18.3189C18.8405 17.5161 21.0243 12.6712 21.4868 11.636C20.4654 12.1131 15.7347 14.3392 14.9466 15.1436ZM2.4938 18.9778H7.73961C7.92141 17.2936 8.57164 15.6938 9.6165 14.3604L5.90406 10.5677C3.8888 12.9295 2.69185 15.8803 2.49212 18.9786L2.4938 18.9778ZM7.29089 9.1501L11.0024 12.942C12.2934 11.8816 13.8628 11.2157 15.5225 11.0245V5.66549C12.4667 5.87823 9.56922 7.10441 7.28921 9.1501H7.29089ZM17.482 11.0245C17.6553 11.0448 17.8287 11.0701 17.9997 11.1001C19.482 10.3629 21.4974 9.42092 23.0016 8.75101C23.1551 8.67715 23.3252 8.64433 23.4951 8.65609C23.6651 8.66784 23.829 8.72356 23.9709 8.81786C24.1127 8.91216 24.2277 9.04187 24.3043 9.19401C24.3809 9.34615 24.4166 9.51553 24.4079 9.68565C24.4006 9.91651 24.3674 9.96755 23.9349 10.968L25.7169 9.1501C23.4368 7.10537 20.5398 5.87978 17.4845 5.66707L17.482 11.0245ZM15.1329 16.452C15.1331 16.0895 15.2772 15.7419 15.5336 15.4857C15.79 15.2294 16.1377 15.0854 16.5002 15.0854C16.8627 15.0854 17.2104 15.2294 17.4668 15.4857C17.7232 15.7419 17.8673 16.0895 17.8675 16.452C17.8675 16.8146 17.7235 17.1622 17.4671 17.4186C17.2106 17.6751 16.8628 17.8193 16.5002 17.8193C16.3206 17.8193 16.1428 17.7841 15.9768 17.7153C15.8109 17.6465 15.6601 17.5457 15.5331 17.4186C15.4061 17.2916 15.3054 17.1405 15.2368 16.9745C15.1681 16.8085 15.1327 16.6316 15.1329 16.452Z" fill="white"/>
</g>
</g>
</g>
<defs>
<clipPath id="clip0_266_10699">
<rect width="32" height="32" fill="white" transform="translate(0.5 0.589844)"/>
</clipPath>
<clipPath id="clip1_266_10699">
<rect width="32" height="32" fill="white" transform="translate(0.5 0.589844)"/>
</clipPath>
<clipPath id="clip2_266_10699">
<rect width="32" height="25.9222" fill="white" transform="translate(0.5 3.62891)"/>
</clipPath>
</defs>
</svg>
