<svg width="33" height="33" viewBox="0 0 33 33" fill="none" xmlns="http://www.w3.org/2000/svg">
<g clip-path="url(#clip0_266_10735)">
<g clip-path="url(#clip1_266_10735)">
<g clip-path="url(#clip2_266_10735)">
<path d="M30.3555 21.4601H18.181L24.2931 15.3441C24.9379 14.7001 25.4492 13.9351 25.7978 13.093C26.1464 12.251 26.3254 11.3484 26.3244 10.437C26.3235 9.52567 26.1427 8.62346 25.7924 7.7821C25.4422 6.94075 24.9293 6.1768 24.2831 5.53406C24.1601 5.42492 24.7654 5.99147 22.8573 4.18068C22.6783 4.01127 22.4403 3.91837 22.1939 3.9217C21.9475 3.92504 21.712 4.02435 21.5377 4.19854L17.0965 8.68336C16.92 8.86058 16.8209 9.10051 16.8209 9.35063C16.8209 9.60074 16.92 9.84067 17.0965 10.0179L18.4251 11.3465L16.658 13.1136L15.3502 11.8019C15.2623 11.7135 15.1578 11.6433 15.0427 11.5954C14.9276 11.5475 14.8042 11.5228 14.6795 11.5228C14.5548 11.5228 14.4314 11.5475 14.3162 11.5954C14.2011 11.6433 14.0966 11.7135 14.0087 11.8019C13.1607 12.6618 12.3752 13.4556 11.6522 14.1832V7.34486C11.6501 5.55431 10.938 3.83766 9.67211 2.57136C8.40618 1.30506 6.68974 0.59247 4.89919 0.589844L2.94353 0.589844C2.69283 0.590106 2.45247 0.689814 2.27519 0.867089C2.09792 1.04436 1.99821 1.28472 1.99795 1.53543V23.3642C1.29341 24.1686 0.835701 25.159 0.679656 26.2169C0.523612 27.2748 0.675845 28.3552 1.11812 29.3287C1.5604 30.3023 2.27396 31.1277 3.17334 31.7061C4.07272 32.2845 5.11977 32.5913 6.18907 32.5898H30.3555C30.8911 32.5891 31.4044 32.376 31.7831 31.9973C32.1618 31.6186 32.3749 31.1052 32.3757 30.5697V23.4803C32.3749 22.9448 32.1618 22.4314 31.7831 22.0527C31.4044 21.674 30.8911 21.4609 30.3555 21.4601ZM14.6844 13.8131L15.9922 15.1209C16.08 15.2087 16.1842 15.2784 16.299 15.3259C16.4137 15.3735 16.5367 15.3979 16.6609 15.3979C16.7851 15.3979 16.9081 15.3735 17.0229 15.3259C17.1376 15.2784 17.2419 15.2087 17.3297 15.1209L20.4353 12.0162C20.5233 11.9285 20.5931 11.8242 20.6407 11.7095C20.6883 11.5947 20.7128 11.4717 20.7128 11.3475C20.7128 11.2232 20.6883 11.1002 20.6407 10.9854C20.5931 10.8707 20.5233 10.7665 20.4353 10.6787L19.1028 9.34616L22.2273 6.19091L22.9566 6.88546C23.425 7.35284 23.7967 7.90804 24.0503 8.51927C24.3039 9.13051 24.4345 9.78577 24.4345 10.4475C24.4345 11.1093 24.3039 11.7645 24.0503 12.3758C23.7967 12.987 23.425 13.5422 22.9566 14.0096L15.507 21.4641H7.06024C9.32448 19.2167 12.4897 16.0278 14.6844 13.8131ZM3.89011 2.48101H4.89919C6.18807 2.48285 7.42364 2.99567 8.33502 3.90705C9.2464 4.81843 9.75922 6.05399 9.76106 7.34288V16.0853C6.51353 19.3477 4.79997 21.0464 3.88911 21.9225L3.89011 2.48101ZM8.6587 30.6977H6.18907C5.21541 30.6977 4.28162 30.3109 3.59314 29.6224C2.90466 28.9339 2.51787 28.0001 2.51787 27.0265C2.51787 26.0528 2.90466 25.119 3.59314 24.4305C4.28162 23.7421 5.21541 23.3553 6.18907 23.3553H30.3555C30.3897 23.3553 30.4225 23.3689 30.4467 23.3931C30.4709 23.4172 30.4845 23.4501 30.4845 23.4843V30.5737C30.4845 30.8247 31.5124 30.6362 8.6587 30.6977Z" fill="white"/>
<path d="M26.3736 24.3164C25.8524 24.3164 25.3429 24.471 24.9095 24.7605C24.4761 25.0501 24.1383 25.4617 23.9389 25.9432C23.7394 26.4248 23.6872 26.9547 23.7889 27.4659C23.8906 27.9771 24.1416 28.4466 24.5102 28.8152C24.8787 29.1837 25.3483 29.4347 25.8595 29.5364C26.3707 29.6381 26.9006 29.5859 27.3821 29.3864C27.8637 29.187 28.2752 28.8492 28.5648 28.4158C28.8544 27.9825 29.0089 27.473 29.0089 26.9517C29.0081 26.2531 28.7302 25.5832 28.2362 25.0891C27.7421 24.5951 27.0723 24.3172 26.3736 24.3164ZM26.3736 27.6899C26.2278 27.6899 26.0853 27.6467 25.964 27.5657C25.8428 27.4847 25.7483 27.3695 25.6925 27.2348C25.6367 27.1001 25.6221 26.9519 25.6506 26.8089C25.679 26.6659 25.7492 26.5345 25.8523 26.4314C25.9554 26.3283 26.0868 26.2581 26.2298 26.2297C26.3728 26.2012 26.521 26.2158 26.6557 26.2716C26.7904 26.3274 26.9056 26.4219 26.9866 26.5431C27.0676 26.6644 27.1108 26.8069 27.1108 26.9527C27.1103 27.148 27.0324 27.3351 26.8943 27.4731C26.7561 27.6111 26.5689 27.6887 26.3736 27.6889V27.6899Z" fill="white"/>
<path d="M6.62653 24.3165C5.92793 24.3173 5.25818 24.5952 4.76429 25.0892C4.2704 25.5833 3.99271 26.2532 3.99219 26.9518C3.99219 27.0179 3.99484 27.0841 4.00013 27.1502C4.03141 27.5513 4.15408 27.94 4.35874 28.2863C4.5634 28.6327 4.84462 28.9276 5.18087 29.1486C5.50992 29.3651 5.88337 29.5051 6.27371 29.5582C6.66404 29.6113 7.06132 29.5761 7.43626 29.4553C7.8112 29.3345 8.15425 29.1311 8.44016 28.8601C8.72606 28.5891 8.94752 28.2574 9.08822 27.8894C9.08822 27.8785 9.09715 27.8666 9.10112 27.8547C9.24709 27.4564 9.29476 27.0288 9.24009 26.6082C9.18543 26.1875 9.03003 25.7863 8.78711 25.4386C8.54419 25.0909 8.22092 24.8069 7.84477 24.6108C7.46862 24.4148 7.0507 24.3125 6.62653 24.3125V24.3165ZM6.62653 27.69C6.48076 27.6898 6.33832 27.6464 6.21722 27.5653C6.09612 27.4842 6.00178 27.3689 5.94613 27.2342C5.89049 27.0995 5.87603 26.9513 5.90459 26.8083C5.93314 26.6654 6.00344 26.5341 6.10658 26.4311C6.20972 26.3281 6.34108 26.258 6.48406 26.2297C6.62704 26.2013 6.77522 26.2159 6.90987 26.2718C7.04452 26.3276 7.1596 26.4221 7.24056 26.5433C7.32152 26.6645 7.36474 26.807 7.36474 26.9528C7.36421 27.1482 7.2862 27.3355 7.14782 27.4735C7.00943 27.6115 6.82197 27.689 6.62653 27.689V27.69Z" fill="white"/>
<path d="M18.2801 26.0964H17.4487V25.265C17.4487 25.0134 17.3487 24.7721 17.1708 24.5942C16.9929 24.4163 16.7517 24.3164 16.5001 24.3164C16.2485 24.3164 16.0072 24.4163 15.8293 24.5942C15.6515 24.7721 15.5515 25.0134 15.5515 25.265V26.0964H14.7201C14.4685 26.0964 14.2272 26.1964 14.0493 26.3743C13.8714 26.5522 13.7715 26.7934 13.7715 27.045C13.7715 27.2966 13.8714 27.5378 14.0493 27.7157C14.2272 27.8936 14.4685 27.9936 14.7201 27.9936H15.5515V28.825C15.5515 29.0766 15.6515 29.3179 15.8293 29.4958C16.0072 29.6736 16.2485 29.7736 16.5001 29.7736C16.7517 29.7736 16.9929 29.6736 17.1708 29.4958C17.3487 29.3179 17.4487 29.0766 17.4487 28.825V27.9936H18.2801C18.5317 27.9936 18.773 27.8936 18.9509 27.7157C19.1287 27.5378 19.2287 27.2966 19.2287 27.045C19.2287 26.7934 19.1287 26.5522 18.9509 26.3743C18.773 26.1964 18.5317 26.0964 18.2801 26.0964Z" fill="white"/>
</g>
</g>
</g>
<defs>
<clipPath id="clip0_266_10735">
<rect width="32" height="32" fill="white" transform="translate(0.5 0.589844)"/>
</clipPath>
<clipPath id="clip1_266_10735">
<rect width="32" height="32" fill="white" transform="translate(0.5 0.589844)"/>
</clipPath>
<clipPath id="clip2_266_10735">
<rect width="31.751" height="32" fill="white" transform="translate(0.625 0.589844)"/>
</clipPath>
</defs>
</svg>
