<svg width="96" height="98" viewBox="0 0 96 98" fill="none" xmlns="http://www.w3.org/2000/svg">
<path d="M64.0097 19.3642C64.0097 10.4661 56.4632 3.36723 47.5472 4.37479C40.9457 5.12051 35.5142 10.4937 34.6022 17.2113C34.1957 20.09 34.6139 23.0273 35.8063 25.6689C36.9987 28.3104 38.9144 30.5433 41.3222 32.0981C42.5777 32.9112 43.2782 34.3781 43.2782 35.8956V38.7559H55.1897V35.8068C55.1897 34.2403 56.0297 32.8438 57.3137 31.9863C59.3712 30.6179 61.0614 28.7467 62.231 26.5426C63.4006 24.3384 64.011 21.871 64.0097 19.3642Z" fill="#FFD54F"/>
<path d="M55.1883 38.7559V42.7876L49.2333 45.8501L43.2783 42.7876V38.7559H55.1883Z" fill="#FCB316"/>
<path d="M53.1974 17.1072C53.0582 16.9648 52.8929 16.8519 52.7109 16.7749C52.5289 16.6979 52.3339 16.6582 52.1369 16.6582C51.9399 16.6582 51.7448 16.6979 51.5628 16.7749C51.3809 16.8519 51.2156 16.9648 51.0764 17.1072L49.2329 18.9891L47.3894 17.1072C47.2501 16.965 47.0848 16.8522 46.9028 16.7753C46.7209 16.6983 46.5258 16.6587 46.3289 16.6587C46.1319 16.6587 45.9369 16.6983 45.7549 16.7753C45.573 16.8522 45.4076 16.965 45.2684 17.1072C45.1291 17.2493 45.0186 17.4181 44.9433 17.6039C44.8679 17.7896 44.8291 17.9887 44.8291 18.1898C44.8291 18.3908 44.8679 18.5899 44.9433 18.7757C45.0186 18.9614 45.1291 19.1302 45.2684 19.2724L47.7329 21.7882V38.756C47.7329 39.1621 47.8909 39.5516 48.1722 39.8387C48.4535 40.1259 48.835 40.2872 49.2329 40.2872C49.6307 40.2872 50.0122 40.1259 50.2935 39.8387C50.5748 39.5516 50.7329 39.1621 50.7329 38.756V21.7867L53.1974 19.2724C53.3368 19.1303 53.4474 18.9615 53.5229 18.7758C53.5983 18.59 53.6372 18.3909 53.6372 18.1898C53.6372 17.9887 53.5983 17.7895 53.5229 17.6038C53.4474 17.418 53.3368 17.2492 53.1974 17.1072Z" fill="#FCB316"/>
<path d="M28.5222 22.6857C28.92 22.6857 29.3016 22.5244 29.5829 22.2372C29.8642 21.95 30.0222 21.5605 30.0222 21.1544C30.0222 20.7483 29.8642 20.3588 29.5829 20.0717C29.3016 19.7845 28.92 19.6232 28.5222 19.6232H21.7002C21.3024 19.6232 20.9208 19.7845 20.6395 20.0717C20.3582 20.3588 20.2002 20.7483 20.2002 21.1544C20.2002 21.5605 20.3582 21.95 20.6395 22.2372C20.9208 22.5244 21.3024 22.6857 21.7002 22.6857H28.5222ZM28.6002 30.7048L22.3827 33.5729C22.0311 33.7469 21.76 34.0542 21.6269 34.4292C21.4939 34.8042 21.5094 35.2174 21.6703 35.581C21.8311 35.9445 22.1246 36.2295 22.4882 36.3756C22.8518 36.5216 23.2568 36.517 23.6172 36.3628L29.8347 33.4948C30.1863 33.3207 30.4574 33.0135 30.5904 32.6384C30.7235 32.2634 30.7079 31.8502 30.5471 31.4867C30.3863 31.1232 30.0928 30.8381 29.7292 30.6921C29.3656 30.5461 28.9605 30.5506 28.6002 30.7048ZM29.8362 8.81255L23.6187 5.94452C23.4384 5.85523 23.2423 5.80374 23.0422 5.79309C22.842 5.78244 22.6418 5.81285 22.4533 5.88252C22.2649 5.9522 22.092 6.05972 21.9449 6.19874C21.7979 6.33776 21.6796 6.50545 21.5971 6.69192C21.5146 6.87839 21.4695 7.07985 21.4645 7.28439C21.4596 7.48894 21.4948 7.69242 21.5682 7.88283C21.6416 8.07323 21.7516 8.2467 21.8918 8.39297C22.0319 8.53924 22.1993 8.65536 22.3842 8.73446L28.6017 11.6025C28.962 11.7567 29.3671 11.7613 29.7307 11.6153C30.0943 11.4692 30.3878 11.1841 30.5486 10.8206C30.7094 10.4571 30.725 10.0439 30.5919 9.66888C30.4589 9.29385 30.1878 8.98662 29.8362 8.81255ZM76.7652 19.6232H69.9432C69.5454 19.6232 69.1638 19.7845 68.8825 20.0717C68.6012 20.3588 68.4432 20.7483 68.4432 21.1544C68.4432 21.5605 68.6012 21.95 68.8825 22.2372C69.1638 22.5244 69.5454 22.6857 69.9432 22.6857H76.7652C77.163 22.6857 77.5446 22.5244 77.8259 22.2372C78.1072 21.95 78.2652 21.5605 78.2652 21.1544C78.2652 20.7483 78.1072 20.3588 77.8259 20.0717C77.5446 19.7845 77.163 19.6232 76.7652 19.6232ZM76.0812 33.5729L69.8637 30.7048C69.6836 30.6176 69.4884 30.5679 69.2893 30.5586C69.0902 30.5493 68.8913 30.5806 68.7042 30.6506C68.5171 30.7207 68.3455 30.8281 68.1995 30.9666C68.0536 31.1051 67.9361 31.2719 67.854 31.4573C67.7718 31.6426 67.7267 31.8429 67.7212 32.0462C67.7158 32.2496 67.7501 32.452 67.8221 32.6417C67.8941 32.8314 68.0025 33.0046 68.1408 33.151C68.2791 33.2975 68.4446 33.4143 68.6277 33.4948L74.8452 36.3628C75.2062 36.5214 75.6139 36.529 75.9804 36.384C76.3469 36.239 76.6429 35.9529 76.8049 35.5873C76.9669 35.2217 76.9818 34.8058 76.8465 34.429C76.7111 34.0523 76.4363 33.7449 76.0812 33.5729ZM69.2472 11.7388C69.4599 11.7391 69.6702 11.6926 69.8637 11.6025L76.0812 8.73446C76.2643 8.65403 76.4298 8.53717 76.5681 8.39071C76.7064 8.24424 76.8148 8.07111 76.8868 7.88142C76.9588 7.69173 76.9931 7.48929 76.9876 7.28592C76.9822 7.08255 76.9371 6.88233 76.8549 6.69696C76.7728 6.51159 76.6553 6.34479 76.5093 6.20629C76.3634 6.06779 76.1918 5.96038 76.0047 5.89033C75.8176 5.82028 75.6187 5.78899 75.4196 5.79829C75.2205 5.8076 75.0252 5.85731 74.8452 5.94452L68.6277 8.81255C68.3153 8.95693 68.0608 9.20623 67.9065 9.51892C67.7523 9.83161 67.7077 10.1888 67.7802 10.531C67.8526 10.8732 68.0377 11.1797 68.3047 11.3995C68.5716 11.6192 68.9043 11.739 69.2472 11.7388Z" fill="#FFD54F"/>
<path d="M19.3215 56.4697H7.5C5.84315 56.4697 4.5 57.8409 4.5 59.5322V90.658C4.5 92.3493 5.84315 93.7205 7.5 93.7205H19.3215C20.9784 93.7205 22.3215 92.3493 22.3215 90.658V59.5322C22.3215 57.8409 20.9784 56.4697 19.3215 56.4697Z" fill="#95C8EC"/>
<path d="M22.3213 88.7777L35.7538 90.116C37.719 90.3125 39.7013 90.01 41.5243 89.2356L88.5088 69.3048C89.6264 68.829 90.5294 67.9437 91.0404 66.823C91.5513 65.7022 91.6333 64.4269 91.2702 63.2476C90.9071 62.0683 90.1252 61.0702 89.078 60.4494C88.0309 59.8285 86.7941 59.6298 85.6108 59.8922L44.8003 69.6754C45.9759 69.6754 47.1033 69.1987 47.9345 68.3501C48.7658 67.5015 49.2328 66.3506 49.2328 65.1505C49.2328 63.9505 48.7658 62.7996 47.9345 61.951C47.1033 61.1024 45.9759 60.6257 44.8003 60.6257H22.3213V88.7777Z" fill="#FECC81"/>
</svg>
