<svg width="33" height="33" viewBox="0 0 33 33" fill="none" xmlns="http://www.w3.org/2000/svg">
<g clip-path="url(#clip0_266_10708)">
<g clip-path="url(#clip1_266_10708)">
<g clip-path="url(#clip2_266_10708)">
<path d="M25.0173 8.60243H24.7443V1.5297C24.7443 1.28043 24.6453 1.04138 24.469 0.86512C24.2928 0.688864 24.0537 0.589844 23.8045 0.589844H9.51677C9.26751 0.589844 9.02845 0.688864 8.8522 0.86512C8.67594 1.04138 8.57692 1.28043 8.57692 1.5297V8.60243H7.98333C6.49441 8.6043 5.06701 9.1966 4.01418 10.2494C2.96136 11.3023 2.36906 12.7297 2.36719 14.2186V24.7804C2.36719 25.0297 2.46621 25.2687 2.64246 25.445C2.81872 25.6213 3.05777 25.7203 3.30704 25.7203H7.37561V31.65C7.37561 31.8993 7.47463 32.1383 7.65088 32.3146C7.82714 32.4908 8.06619 32.5898 8.31546 32.5898H25.0102C25.2595 32.5898 25.4985 32.4908 25.6748 32.3146C25.851 32.1383 25.95 31.8993 25.95 31.65V25.7203H29.6988C29.9472 25.7189 30.1849 25.6192 30.36 25.4431C30.5351 25.267 30.6334 25.0288 30.6334 24.7804V14.2186C30.6315 12.7297 30.0392 11.3023 28.9864 10.2494C27.9336 9.1966 26.5062 8.6043 25.0173 8.60243ZM10.4557 2.46866H22.8602V8.60243H10.4557V2.46866ZM24.0659 30.711H9.25708V19.1395H24.0659V30.711ZM28.7546 23.8414H25.9456V19.1395H27.1823C27.3081 19.1434 27.4333 19.122 27.5507 19.0765C27.668 19.031 27.775 18.9624 27.8654 18.8748C27.9557 18.7872 28.0276 18.6823 28.0766 18.5664C28.1257 18.4505 28.1509 18.326 28.1509 18.2001C28.1509 18.0743 28.1257 17.9497 28.0766 17.8338C28.0276 17.7179 27.9557 17.6131 27.8654 17.5254C27.775 17.4378 27.668 17.3693 27.5507 17.3238C27.4333 17.2783 27.3081 17.2569 27.1823 17.2607H6.13896C6.01317 17.2569 5.88789 17.2783 5.77054 17.3238C5.6532 17.3693 5.54618 17.4378 5.45584 17.5254C5.3655 17.6131 5.29367 17.7179 5.24462 17.8338C5.19557 17.9497 5.1703 18.0743 5.1703 18.2001C5.1703 18.326 5.19557 18.4505 5.24462 18.5664C5.29367 18.6823 5.3655 18.7872 5.45584 18.8748C5.54618 18.9624 5.6532 19.031 5.77054 19.0765C5.88789 19.122 6.01317 19.1434 6.13896 19.1395H7.37561V23.8388H4.24601V14.2186C4.24741 13.228 4.64167 12.2784 5.3423 11.5781C6.04293 10.8778 6.99272 10.484 7.98333 10.483H25.0173C26.0082 10.484 26.9582 10.878 27.6589 11.5787C28.3596 12.2794 28.7536 13.2294 28.7546 14.2203V23.8414Z" fill="white"/>
<path d="M16.5006 11.5039C16.0205 11.5039 15.5512 11.6463 15.152 11.913C14.7529 12.1797 14.4417 12.5588 14.258 13.0024C14.0743 13.4459 14.0262 13.934 14.1199 14.4048C14.2135 14.8757 14.4447 15.3082 14.7842 15.6477C15.1237 15.9871 15.5562 16.2183 16.027 16.312C16.4979 16.4057 16.986 16.3576 17.4295 16.1739C17.8731 15.9901 18.2522 15.679 18.5189 15.2798C18.7856 14.8807 18.928 14.4114 18.928 13.9313C18.9273 13.2877 18.6713 12.6707 18.2162 12.2156C17.7612 11.7606 17.1442 11.5046 16.5006 11.5039ZM16.5006 14.5734C16.3738 14.5734 16.2498 14.5358 16.1443 14.4654C16.0389 14.3949 15.9567 14.2947 15.9081 14.1776C15.8596 14.0604 15.8469 13.9314 15.8716 13.8071C15.8964 13.6827 15.9575 13.5684 16.0471 13.4787C16.1368 13.389 16.2511 13.3279 16.3755 13.3032C16.4999 13.2784 16.6288 13.2911 16.746 13.3397C16.8632 13.3882 16.9634 13.4704 17.0338 13.5759C17.1043 13.6813 17.1419 13.8053 17.1419 13.9322C17.1417 14.1022 17.074 14.2651 16.9538 14.3854C16.8336 14.5056 16.6706 14.5732 16.5006 14.5734Z" fill="white"/>
<path d="M24.2048 13.0547H21.6352C21.5179 13.0547 21.4018 13.0778 21.2935 13.1227C21.1851 13.1676 21.0867 13.2333 21.0037 13.3162C20.9208 13.3992 20.8551 13.4976 20.8102 13.606C20.7653 13.7143 20.7422 13.8304 20.7422 13.9477C20.7422 14.065 20.7653 14.1811 20.8102 14.2895C20.8551 14.3978 20.9208 14.4963 21.0037 14.5792C21.0867 14.6621 21.1851 14.7279 21.2935 14.7728C21.4018 14.8177 21.5179 14.8408 21.6352 14.8408H24.2048C24.3221 14.8408 24.4382 14.8177 24.5465 14.7728C24.6549 14.7279 24.7533 14.6621 24.8363 14.5792C24.9192 14.4963 24.985 14.3978 25.0298 14.2895C25.0747 14.1811 25.0978 14.065 25.0978 13.9477C25.0978 13.8304 25.0747 13.7143 25.0298 13.606C24.985 13.4976 24.9192 13.3992 24.8363 13.3162C24.7533 13.2333 24.6549 13.1676 24.5465 13.1227C24.4382 13.0778 24.3221 13.0547 24.2048 13.0547Z" fill="white"/>
<path d="M11.4352 13.0547H8.86472C8.74744 13.0547 8.63131 13.0778 8.52297 13.1227C8.41462 13.1676 8.31617 13.2333 8.23325 13.3162C8.15032 13.3992 8.08454 13.4976 8.03966 13.606C7.99478 13.7143 7.97168 13.8304 7.97168 13.9477C7.97168 14.065 7.99478 14.1811 8.03966 14.2895C8.08454 14.3978 8.15032 14.4963 8.23325 14.5792C8.31617 14.6621 8.41462 14.7279 8.52297 14.7728C8.63131 14.8177 8.74744 14.8408 8.86472 14.8408H11.4343C11.5516 14.8408 11.6677 14.8177 11.776 14.7728C11.8844 14.7279 11.9828 14.6621 12.0658 14.5792C12.1487 14.4963 12.2145 14.3978 12.2593 14.2895C12.3042 14.1811 12.3273 14.065 12.3273 13.9477C12.3273 13.8304 12.3042 13.7143 12.2593 13.606C12.2145 13.4976 12.1487 13.3992 12.0658 13.3162C11.9828 13.2333 11.8844 13.1676 11.776 13.1227C11.6677 13.0778 11.5525 13.0547 11.4352 13.0547Z" fill="white"/>
<path d="M21.2818 20.1758H12.2719C12.1547 20.1758 12.0385 20.1989 11.9302 20.2438C11.8218 20.2886 11.7234 20.3544 11.6405 20.4373C11.5575 20.5203 11.4918 20.6187 11.4469 20.7271C11.402 20.8354 11.3789 20.9515 11.3789 21.0688C11.3789 21.1861 11.402 21.3022 11.4469 21.4106C11.4918 21.5189 11.5575 21.6174 11.6405 21.7003C11.7234 21.7832 11.8218 21.849 11.9302 21.8939C12.0385 21.9387 12.1547 21.9619 12.2719 21.9619H21.2818C21.3991 21.9619 21.5152 21.9387 21.6235 21.8939C21.7319 21.849 21.8303 21.7832 21.9133 21.7003C21.9962 21.6174 22.062 21.5189 22.1068 21.4106C22.1517 21.3022 22.1748 21.1861 22.1748 21.0688C22.1748 20.9515 22.1517 20.8354 22.1068 20.7271C22.062 20.6187 21.9962 20.5203 21.9133 20.4373C21.8303 20.3544 21.7319 20.2886 21.6235 20.2438C21.5152 20.1989 21.3991 20.1758 21.2818 20.1758Z" fill="white"/>
<path d="M21.1705 23.8984H12.1606C12.0433 23.8984 11.9272 23.9215 11.8189 23.9664C11.7105 24.0113 11.6121 24.0771 11.5291 24.16C11.4462 24.2429 11.3804 24.3414 11.3355 24.4497C11.2907 24.5581 11.2676 24.6742 11.2676 24.7915C11.2676 24.9087 11.2907 25.0249 11.3355 25.1332C11.3804 25.2416 11.4462 25.34 11.5291 25.423C11.6121 25.5059 11.7105 25.5716 11.8189 25.6165C11.9272 25.6614 12.0433 25.6845 12.1606 25.6845H21.1705C21.4073 25.6845 21.6345 25.5904 21.8019 25.423C21.9694 25.2555 22.0635 25.0283 22.0635 24.7915C22.0635 24.5546 21.9694 24.3275 21.8019 24.16C21.6345 23.9925 21.4073 23.8984 21.1705 23.8984Z" fill="white"/>
<path d="M21.1705 27.832H12.1606C11.9238 27.832 11.6966 27.9261 11.5291 28.0936C11.3617 28.2611 11.2676 28.4882 11.2676 28.7251C11.2676 28.9619 11.3617 29.1891 11.5291 29.3565C11.6966 29.524 11.9238 29.6181 12.1606 29.6181H21.1705C21.4073 29.6181 21.6345 29.524 21.8019 29.3565C21.9694 29.1891 22.0635 28.9619 22.0635 28.7251C22.0635 28.4882 21.9694 28.2611 21.8019 28.0936C21.6345 27.9261 21.4073 27.832 21.1705 27.832Z" fill="white"/>
</g>
</g>
</g>
<defs>
<clipPath id="clip0_266_10708">
<rect width="32" height="32" fill="white" transform="translate(0.5 0.589844)"/>
</clipPath>
<clipPath id="clip1_266_10708">
<rect width="32" height="32" fill="white" transform="translate(0.5 0.589844)"/>
</clipPath>
<clipPath id="clip2_266_10708">
<rect width="28.2662" height="32" fill="white" transform="translate(2.36719 0.589844)"/>
</clipPath>
</defs>
</svg>
