<svg width="33" height="33" viewBox="0 0 33 33" fill="none" xmlns="http://www.w3.org/2000/svg">
<g clip-path="url(#clip0_266_10724)">
<g clip-path="url(#clip1_266_10724)">
<g clip-path="url(#clip2_266_10724)">
<path d="M32.3725 31.1834L31.0015 28.8624L32.4365 24.3694C32.4761 24.2456 32.489 24.1149 32.4744 23.9857C32.4597 23.8566 32.4178 23.7321 32.3515 23.6204L25.5625 12.1514C25.5099 11.4811 25.3128 10.8302 24.9849 10.2433C24.6569 9.65639 24.2058 9.14743 23.6625 8.75136V4.40236C23.6611 4.27786 23.6351 4.15487 23.5862 4.0404C23.5372 3.92594 23.4661 3.82224 23.3771 3.73522C23.288 3.64821 23.1827 3.5796 23.0672 3.53329C22.9516 3.48699 22.828 3.46391 22.7035 3.46536H21.7445V1.52736C21.7445 1.27302 21.6435 1.02909 21.4636 0.849244C21.2838 0.669397 21.0399 0.568359 20.7855 0.568359C20.5312 0.568359 20.2873 0.669397 20.1074 0.849244C19.9276 1.02909 19.8265 1.27302 19.8265 1.52736V3.46436H18.8675C18.743 3.46291 18.6195 3.48599 18.5039 3.53229C18.3883 3.5786 18.283 3.64721 18.1939 3.73423C18.1049 3.82124 18.0339 3.92493 17.9849 4.0394C17.9359 4.15387 17.91 4.27686 17.9085 4.40136V8.74736C17.3653 9.14343 16.9142 9.65239 16.5862 10.2393C16.2582 10.8262 16.0611 11.4771 16.0085 12.1474L9.21853 23.6164C9.15221 23.7281 9.11035 23.8526 9.09569 23.9817C9.08104 24.1109 9.09393 24.2416 9.13352 24.3654L10.5685 28.8584L9.19453 31.1834C9.13167 31.2901 9.09087 31.4083 9.07451 31.531C9.05816 31.6538 9.0666 31.7786 9.09933 31.898C9.13205 32.0175 9.18839 32.1291 9.26504 32.2264C9.34168 32.3237 9.43706 32.4046 9.54552 32.4644C9.76555 32.589 10.0255 32.623 10.2702 32.5589C10.5148 32.4948 10.7248 32.3379 10.8555 32.1214L16.1555 23.1524H19.8295V24.0894C19.8295 24.3437 19.9306 24.5876 20.1104 24.7675C20.2903 24.9473 20.5342 25.0484 20.7885 25.0484C21.0429 25.0484 21.2868 24.9473 21.4666 24.7675C21.6465 24.5876 21.7475 24.3437 21.7475 24.0894V23.1524H25.4215L30.7215 32.1214C30.8522 32.3379 31.0622 32.4948 31.3069 32.5589C31.5515 32.623 31.8115 32.589 32.0315 32.4644C32.14 32.4046 32.2354 32.3237 32.312 32.2264C32.3886 32.1291 32.445 32.0175 32.4777 31.898C32.5105 31.7786 32.5189 31.6538 32.5025 31.531C32.4862 31.4083 32.4454 31.2901 32.3825 31.1834H32.3725ZM29.6945 26.6544L23.5775 16.2964C24.1267 15.9096 24.5878 15.411 24.9305 14.8334L30.4765 24.2034L29.6945 26.6544ZM19.8235 5.33936H21.7415V7.90136C21.1084 7.77553 20.4567 7.77553 19.8235 7.90136V5.33936ZM20.7825 9.68236C21.336 9.69496 21.8735 9.8706 22.3276 10.1873C22.7817 10.504 23.1323 10.9477 23.3354 11.4627C23.5385 11.9778 23.5851 12.5413 23.4694 13.0827C23.3536 13.6241 23.0807 14.1193 22.6848 14.5063C22.2888 14.8933 21.7875 15.1549 21.2436 15.2582C20.6997 15.3615 20.1374 15.3021 19.6271 15.0873C19.1168 14.8724 18.6813 14.5118 18.375 14.0506C18.0688 13.5894 17.9055 13.048 17.9055 12.4944C17.915 11.7404 18.2231 11.021 18.7622 10.4938C19.3014 9.96671 20.0285 9.67489 20.7825 9.68236ZM11.0825 24.2034L16.6295 14.8334C16.9723 15.411 17.4334 15.9096 17.9825 16.2964L11.8655 26.6534L11.0825 24.2034ZM21.7405 21.2774V20.3394C21.7405 20.085 21.6395 19.8411 21.4596 19.6612C21.2798 19.4814 21.0359 19.3804 20.7815 19.3804C20.5272 19.3804 20.2833 19.4814 20.1034 19.6612C19.9236 19.8411 19.8225 20.085 19.8225 20.3394V21.2764H17.2555L19.7405 17.0684C20.4264 17.2185 21.1366 17.2185 21.8225 17.0684L24.3075 21.2754L21.7405 21.2774Z" fill="white"/>
<path d="M21.0588 13.3637C21.5464 13.3637 21.9418 12.9683 21.9418 12.4807C21.9418 11.993 21.5464 11.5977 21.0588 11.5977C20.5711 11.5977 20.1758 11.993 20.1758 12.4807C20.1758 12.9683 20.5711 13.3637 21.0588 13.3637Z" fill="white"/>
<path d="M6.68438 0.589844H1.38338C1.14218 0.597423 0.913812 0.700294 0.748306 0.875921C0.5828 1.05155 0.49365 1.28561 0.500384 1.52684V31.6518C0.49338 31.8932 0.58241 32.1276 0.747944 32.3034C0.913479 32.4793 1.142 32.5823 1.38338 32.5898H6.68338C6.92459 32.5823 7.15296 32.4794 7.31846 32.3038C7.48397 32.1281 7.57312 31.8941 7.56638 31.6528V1.52684C7.57312 1.28578 7.48411 1.05186 7.31882 0.876265C7.15353 0.700666 6.92541 0.597682 6.68438 0.589844ZM5.80038 30.7148H2.26738V28.7768H3.20938C3.44885 28.7633 3.67406 28.6586 3.8388 28.4843C4.00354 28.31 4.09533 28.0792 4.09533 27.8393C4.09533 27.5995 4.00354 27.3687 3.8388 27.1944C3.67406 27.0201 3.44885 26.9154 3.20938 26.9018H2.26738V25.0268H3.20938C3.44885 25.0133 3.67406 24.9086 3.8388 24.7343C4.00354 24.56 4.09533 24.3292 4.09533 24.0893C4.09533 23.8495 4.00354 23.6187 3.8388 23.4444C3.67406 23.2701 3.44885 23.1654 3.20938 23.1518H2.26738V21.2768H3.20938C3.44885 21.2633 3.67406 21.1586 3.8388 20.9843C4.00354 20.81 4.09533 20.5792 4.09533 20.3393C4.09533 20.0995 4.00354 19.8687 3.8388 19.6944C3.67406 19.5201 3.44885 19.4154 3.20938 19.4018H2.26738V17.5268H3.20938C3.44885 17.5133 3.67406 17.4086 3.8388 17.2343C4.00354 17.06 4.09533 16.8292 4.09533 16.5893C4.09533 16.3495 4.00354 16.1187 3.8388 15.9444C3.67406 15.7701 3.44885 15.6654 3.20938 15.6518H2.26738V13.7768H3.20938C3.44885 13.7633 3.67406 13.6586 3.8388 13.4843C4.00354 13.31 4.09533 13.0792 4.09533 12.8393C4.09533 12.5995 4.00354 12.3687 3.8388 12.1944C3.67406 12.0201 3.44885 11.9154 3.20938 11.9018H2.26738V10.0268H3.20938C3.44885 10.0133 3.67406 9.90862 3.8388 9.73429C4.00354 9.55996 4.09533 9.3292 4.09533 9.08934C4.09533 8.84949 4.00354 8.61873 3.8388 8.4444C3.67406 8.27007 3.44885 8.1654 3.20938 8.15184H2.26738V6.27684H3.20938C3.45059 6.26926 3.67896 6.16639 3.84446 5.99077C4.00997 5.81514 4.09912 5.58107 4.09238 5.33984C4.09912 5.09861 4.00997 4.86455 3.84446 4.68892C3.67896 4.51329 3.45059 4.41042 3.20938 4.40284H2.26738V2.46484H5.80038V30.7148Z" fill="white"/>
</g>
</g>
</g>
<defs>
<clipPath id="clip0_266_10724">
<rect width="32" height="32" fill="white" transform="translate(0.5 0.589844)"/>
</clipPath>
<clipPath id="clip1_266_10724">
<rect width="32" height="32" fill="white" transform="translate(0.5 0.589844)"/>
</clipPath>
<clipPath id="clip2_266_10724">
<rect width="32" height="32" fill="white" transform="translate(0.5 0.589844)"/>
</clipPath>
</defs>
</svg>
